<svg xmlns="http://www.w3.org/2000/svg" xmlns:xlink="http://www.w3.org/1999/xlink" width="1600" height="900" viewBox="0 0 1600 900"><defs><style>.cls-1{fill:url(#linear-gradient);}.cls-2{fill:#009245;}.cls-2,.cls-5{stroke:#006837;}.cls-13,.cls-14,.cls-19,.cls-2,.cls-4,.cls-5,.cls-8{stroke-miterlimit:10;}.cls-3,.cls-5{fill:#006837;}.cls-4{fill:#39b54a;stroke:#39b54a;}.cls-6{fill:#fbcb88;}.cls-7{fill:#f2f2f2;}.cls-13,.cls-14,.cls-19,.cls-8{fill:none;}.cls-8{stroke:#b3b3b3;}.cls-9{fill:#b3b3b3;}.cls-10{fill:#333;}.cls-11{fill:#4d4d4d;}.cls-12{fill:#666;}.cls-13{stroke:#666;stroke-width:8px;}.cls-14{stroke:#4d4d4d;stroke-width:16px;}.cls-15{fill:#2b2a2a;}.cls-16{fill:#e6e6e6;}.cls-17{fill:#ccc;}.cls-18{fill:#fff;opacity:0.76;}.cls-19{stroke:#000;}.cls-20{font-size:27.43px;}.cls-20,.cls-21{font-family:GorgeousGirls, Gorgeous Girls;}.cls-21{font-size:36.57px;}</style><linearGradient id="linear-gradient" x1="799.52" y1="-286.77" x2="800.45" y2="1148.33" gradientUnits="userSpaceOnUse"><stop offset="0.4" stop-color="#69b3c4"/><stop offset="0.77" stop-color="#313131"/></linearGradient></defs><title>indstillinger</title><g id="baggrund"><rect id="vand" class="cls-1" width="1600" height="901"/><g id="plante"><path class="cls-2" d="M780.54,791.16c-10.46-2.23-19.35-45-1.8-63.7,8.88-9.44,17.37-5.11,33.41-18.2,6.33-5.16,15.93-13,19.42-25.94,4.7-17.38-4.43-33.65-9-41.86-6.84-12.21-10.07-10.49-19-25.48-7.1-12-14.19-24.3-9.93-35.49.45-1.18,4.4-11.17,12.64-12.74,1.66-.32,2.29.36,4.52,0,4.08-.66,8.67-3.43,9.93-7.28,1.16-3.51-.76-6.9-1.8-9.1a45,45,0,0,1-1.81-28.22c1.79-6.8,4.63-5.58,24.39-29.12,4-4.72,7.46-9.07,8.12-15.47.73-6.92-2-14.51-4.51-14.56-2.76-.06-6.32,9.35-6.32,18.2,0,5.77,1.5,7.17,5.42,22.75,1.95,7.79,2.92,11.74,2.71,14.56-.65,8.42-5.38,14.45-9,19.11-2.81,3.6-6.73,8.6-13.54,11.84-4.84,2.29-6.28,1.39-9,3.64-5.07,4.12-6.48,12.25-5.42,18.2,1.68,9.42,9.46,12.61,18.06,20.93,4.34,4.2,20.58,21,21.67,40.95,1.24,22.54-17.21,43.47-21.67,48.23-5,5.38-8,6.93-10.84,12.74-4.86,10-1.26,16.07-2.71,33.68A107.11,107.11,0,0,1,809,755.22c-5.4,15.38-12.68,23.57-15.35,26.39C787.21,788.39,783.9,791.88,780.54,791.16Z"/><path class="cls-3" d="M792.28,807.54c12.67.89,40.59-51.87,24.39-87.36-11.12-24.36-44.22-43.24-40.64-63.7.44-2.52,2.16-9.18,0-17.29-1.89-7.12-5.84-11.85-9-15.48-15.06-17.09-21.25-18.61-28.9-28.21-2.58-3.22-13.18-16.87-13.55-35.49-.39-19.1,10.18-34.29,13.55-39.13,8.21-11.81,12.69-11,15.35-20,3.09-10.5.8-24.48-7.23-33.67-.62-.72-2-3-2.71-2.73s-.15,3.59,0,4.55c.08.45,1.36,11.39-3.61,20.93a30.52,30.52,0,0,1-4.51,6.37,35,35,0,0,1-9.94,7.28c-6.41,3.6-10,8.84-14.45,15.47-6.37,9.4-12.35,27.57-4.51,44.59,6,13.15,18.32,19.41,22.12,21.39,4.14,2.14,4.16,1.42,11.74,4.55,15.88,6.54,24.47,10.07,28,17.29,1.85,3.76.91,5.66-2.71,26.39-2.73,15.66-4.1,23.49-4.51,30-.93,14.68,1.76,25.77,3.61,33.67C781.74,769.65,781.85,806.82,792.28,807.54Z"/><path class="cls-4" d="M788.22,808a108.73,108.73,0,0,0,15.35-34.58c5.42-22.33.31-34.17,7.23-57.34a85.07,85.07,0,0,1,13.55-27.3c2-2.68,3.15-3.83,4.51-5.46,14.52-17.42,7.18-32.71,19-50.05,8.72-12.83,24.15-21.25,28.9-23.66,7.16-3.64,8.91-3.19,11.74-6.37,12-13.46-.06-43-1.81-47.32-2.45-6-3.45-6.61-6.32-12.75-10-21.36-10.14-41.82-9.93-41.86s7.17,18.05.9,35.49c-2.63,7.32-7.29,13.68-9.93,17.3-8.5,11.59-11.46,10-14.45,16.38-6.5,13.78,2.38,32,6.32,40,5.5,11.27,8.07,10,9.93,17.29,4,15.56-3.95,36.13-17.16,41.86-7.1,3.09-10.39-.45-18.06,3.64-9,4.79-12.83,14.11-14.45,18.2-6.38,16.08,1.46,22-1.81,37.32-4.39,20.58-21.1,21.43-27.09,41.86C782.3,778.55,781.18,790.68,788.22,808Z"/><path class="cls-5" d="M799.06,800.72c-5.77-1.32-8.71-34.14,6.32-61,4.28-7.65,13-23.16,29.8-29.13,19.69-7,36,4.26,41.55-3.64s-8.28-21.85-.9-34.58c.77-1.33,3.89-6.3,9-7.28,11-2.1,26.89,14.94,27.09,29.12,0,2.32-.36,4.21.91,6.37,3.51,6,14.89,5.66,20.77,5.46,4.2-.13,8.64-.28,12.64-1.82,17.15-6.58,22.88-37.37,20.77-38.22s-20,23.41-23.48,45.5A27.42,27.42,0,0,1,940,722.46c-1,1.66-7.94,13.08-20.77,13.65-1.08,0-10.39.31-17.16-6.37-7.55-7.45-9-20.67-7.23-30,1-5.38,3.23-9.77.91-14.56-1.2-2.46-4-5.91-6.33-5.46-5.92,1.17,1.73,26.14-9.93,42.78-9.28,13.23-21.71,8.25-39.74,19.11C807.36,761,805.62,802.22,799.06,800.72Z"/><path class="cls-2" d="M783.71,798.9c-.3,3.53,14.1,10.09,28.9,8.19,4.75-.61,8.92-2,22.57-10,27.94-16.36,42-24.77,44.26-36.4,1.24-6.26-.46-11.12,3.61-15.47,3.87-4.14,10.88-5.61,16.26-3.64,4.54,1.65,5.73,5,10.84,10.92,7.2,8.4,11,12.51,15.35,13.65,7.12,1.86,13.73-2.27,14.45-2.73,4.45-2.87,7.54-8.93,13.55-20.93,2.71-5.43,2.87-6.29,4.51-8.19.53-.62,6.74-7.6,16.26-8.19,9.8-.62,16.07,6,17.16,4.55s-3.44-8.73-10.84-11.84c-8.28-3.46-17-.24-22.58,1.82-5,1.86-4.63,2.63-18.06,9.11-7.92,3.81-9.66,4.31-11.74,4.55-7.66.85-13.91-2.67-17.16-4.55-7.16-4.16-6.82-7-17.16-15.48-5.17-4.21-8-6.46-12.64-8.19-2.68-1-11.55-4.28-18.07,0a13.44,13.44,0,0,0-3.61,3.64c-8.79,12.19-13.18,18.29-16.26,28.22-4,12.91,0,13.19-3.61,23.66a54.09,54.09,0,0,1-18.06,24.57C803.84,799.47,784.05,794.79,783.71,798.9Z"/></g><path id="sand" class="cls-6" d="M1600,831.69h-234l-77.81-4a213.86,213.86,0,0,1-38.66-3.65c-18-3.43-20.49-6.55-38.65-9.75-6.06-1.06-10.5-1.55-43.74-3.65-39.89-2.53-37.61-2.09-39.67-2.44-31.86-5.36-33.64-18-63.07-21.31-15.32-1.74-16.43,1.51-35.6-.61-21.33-2.36-24.42-6.88-41.7-9.75-7.55-1.25-13.85-1.53-68.16,3.66-44.89,4.29-46.69,5.06-55.94,4.26-29.08-2.53-27.55-11.64-56-14-24.36-2-48.41,2.77-68.15,6.7-13.54,2.7-12.82,3.4-24.41,5.48-26.48,4.77-41.84,3.23-60,4.27-37.52,2.13-38.65,12.49-86.46,20.7-14.77,2.54-13.15,1.29-66.11,5.48-77,6.1-79.4,8.66-112.91,9.45-37.47.88-42.79-2.13-89.52-3-46.51-.92-84.09,1.21-107.82,3L.5,825.6,1,900.5H1600.5Z"/><g id="musling"><path class="cls-7" d="M795.32,718.59c-2.74.61-1.61,10-6.71,11.69-5.61,1.86-11.14-8.16-16.42-6.19-4.6,1.73-2.55,10.18-8.09,13.4s-11.16-3.16-15.91.12-1.51,11.59-6.45,14.84c-4.45,2.93-9.59-2.16-13.09.83-3.84,3.27.49,11-3.41,14.58s-10.65-1.39-13.32,1.79c-2.93,3.51,4.13,10.88,1.05,16.73-2.65,5-10.22,4.06-10.71,7.6s8.59,9.56,5.94,12.81c-2.79,3.42-9.55,1.59-10.26,5.65-.73,4.23,7.24,11.23,9,12.55,21.63,16.4,30.05,15.78,64.28,26.45,2.12.66,16.46,4.45,27.15,2.71,7.36-1.2,11.42-6.4,14-8.84,4.94-4.72,6.54-13.61,6.65-19.94.47-28.53-.77-70.56-8.13-92.59C807.5,722.74,797.63,718.07,795.32,718.59Z"/><line class="cls-8" x1="697.2" y1="875.02" x2="697.2" y2="875.02"/><polyline class="cls-9" points="807.56 847.07 708.58 800.45 710.23 803.54 709.7 805.46 708.24 807.11 707.05 807.79 703.78 808.41"/><polyline class="cls-9" points="802.91 846.09 727.77 761.29 727.8 765.41 727.12 768.33 724.79 769.8 722.68 770.3 719.87 769.59"/><path class="cls-9" d="M814,842.63c-5.09,9-20,13.49-27.53,11.6-6.21-1.56,10.27-15.5,15.51-23.88s14.7-25.89,16.48-19.53C820.57,818.57,818.48,834.6,814,842.63Z"/><polyline class="cls-9" points="802.32 842.78 768.73 730.42 767.59 735.28 766.2 736.99 763.87 738.47 760.83 738.73 758.96 738.26"/><polyline class="cls-9" points="809.12 840.63 793.68 724.1 791.79 728.7 790.15 730.15 787.62 731.21 784.58 730.95 782.81 730.17"/><polyline class="cls-9" points="805.35 845.04 746.54 747.36 745.84 751.41 744.65 754.15 742.1 755.15 739.95 755.25 737.31 754.01"/><polyline class="cls-9" points="804.77 846.79 713.13 781.72 714.05 785.73 714.02 788.73 712.07 790.71 710.13 791.69 707.24 791.66"/></g><g id="anker"><polygon class="cls-10" points="780.89 782.08 787.15 816.46 822.19 799.59 888.74 655.81 869.45 644.38 780.89 782.08"/><polygon class="cls-10" points="899.28 688 891.77 701.49 829.86 664.43 837.37 650.95 899.28 688"/><ellipse class="cls-11" cx="828.45" cy="652.99" rx="11.26" ry="11.68"/><ellipse class="cls-11" cx="902.28" cy="699.04" rx="11.26" ry="11.68"/><ellipse class="cls-12" cx="828.13" cy="652.66" rx="8.45" ry="8.76"/><ellipse class="cls-12" cx="902.59" cy="698.72" rx="8.45" ry="8.76"/><g id="lænke"><path class="cls-13" d="M891.64,637.13h0c-3.15-2.18-4.62-6.62-2.52-9.88l5.31-8.24a6.75,6.75,0,0,1,9.54-2h0a7.3,7.3,0,0,1,1.89,9.88l-4.69,8.24A6.74,6.74,0,0,1,891.64,637.13Z"/><ellipse id="top_anker" data-name="top anker" class="cls-14" cx="890.7" cy="631.25" rx="20.96" ry="21.73"/><path class="cls-11" d="M899.2,624.5h0a2.14,2.14,0,0,1-.58-2.88l6.3-9.93a2,2,0,0,1,2.78-.59h0a2.13,2.13,0,0,1,.57,2.88L902,623.9A2,2,0,0,1,899.2,624.5Z"/><path class="cls-13" d="M891.37,663.26h0a7.08,7.08,0,0,1-6.13-7.82l1-9.86a7,7,0,0,1,7.54-6.36h0A7.09,7.09,0,0,1,899.9,647l-1,9.86A7,7,0,0,1,891.37,663.26Z"/><path class="cls-13" d="M888.85,688.67h0a7.1,7.1,0,0,1-6.14-7.82l1-9.86a7,7,0,0,1,7.55-6.36h0a7.08,7.08,0,0,1,6.13,7.82l-1,9.86A7,7,0,0,1,888.85,688.67Z"/><path class="cls-11" d="M890.76,672.34h0a2.06,2.06,0,0,1-1.79-2.28l1.23-12.41a2,2,0,0,1,2.2-1.85h0a2.06,2.06,0,0,1,1.79,2.28L893,670.49A2,2,0,0,1,890.76,672.34Z"/><path class="cls-13" d="M885.48,711h0a7.08,7.08,0,0,1-6.14-7.82l1-9.86a7,7,0,0,1,7.55-6.36h0a7.08,7.08,0,0,1,6.13,7.82l-1,9.86A7,7,0,0,1,885.48,711Z"/><path class="cls-13" d="M868.43,728.52h0a7.32,7.32,0,0,1-.75-10l6.21-7.54a6.72,6.72,0,0,1,9.69-.78h0a7.32,7.32,0,0,1,.76,10.05l-6.21,7.53A6.73,6.73,0,0,1,868.43,728.52Z"/><path class="cls-11" d="M878.19,717.65h0a2.14,2.14,0,0,1-.45-2.9l7-10.11a2,2,0,0,1,2.8-.46h0a2.12,2.12,0,0,1,.45,2.9l-7,10.11A2,2,0,0,1,878.19,717.65Z"/><path class="cls-11" d="M888.35,696.57h0a2.07,2.07,0,0,1-1.79-2.28l1.18-11.82a2,2,0,0,1,2.2-1.86h0a2.08,2.08,0,0,1,1.79,2.29l-1.18,11.81A2,2,0,0,1,888.35,696.57Z"/><path class="cls-13" d="M761.64,774.91h0a7.49,7.49,0,0,0,10.19-1.8l5.44-8.15a7.31,7.31,0,0,0-1.74-9.92h0a6.74,6.74,0,0,0-9.56,1.8L759.9,765A7.32,7.32,0,0,0,761.64,774.91Z"/><path id="spidsen_af_skaftet" data-name="spidsen af skaftet" class="cls-15" d="M964,794c13.3-23.53,14.51-46.43,14.31-57.86a64.12,64.12,0,0,1-34.38,29.52"/><path class="cls-11" d="M756.53,790.11h0a2,2,0,0,0,2.76-.65L767,771.12a2.13,2.13,0,0,0-.63-2.86h0a2.76,2.76,0,0,0-3.39.65l-7,18.34A2.12,2.12,0,0,0,756.53,790.11Z"/><path id="skaftet" class="cls-15" d="M944,765.6c-5.56,3.38-10.57,11.15-8.93,19a16.49,16.49,0,0,0,5,8.62,6.83,6.83,0,0,0-3.52,1c-4.18,2.61-.25,10-1.77,14.47-3.18,9.28-21.27,16.22-32.53,18.17-25.43,4.39-25.66,2.59-41.3,0,0,0-26.33-4-31.91-13-1.21-2-6.44-18.49-8.76-22.05-4.62-7.11-13.44-10.28-13.44-10.28-9.28-4.75-18.28-2.91-21.16-2.28-6.3,1.39-6.53,3.39-10.41,3.45-8,.11-14.08-8.32-20.29-17.19-7.15-10.19-19.52-27.85-13.81-38,2.29-4.07,8.18-8.16,6.9-12.3-.51-1.65-1.89-2.45-1.55-3.43.63-1.75,5.28.26,9.6-1.57,6.16-2.62,9.41-12.14,8.23-19.33a20.59,20.59,0,0,0-.93-3.36c-.87-2.72-5.49-17.53-3.74-31.71,1.1-8.94,4.13-12.77,3.23-13.35-2.2-1.41-24.2,18.46-33.05,47.31,0,0-13,42.43,10.6,95.06.77,1.7,3.58,7.75,6.54,16.36,4.77,13.83,4.24,17.74,6.45,23.52,6.75,17.65,30.43,30.29,49.89,29.5,9.71-.39,12-3.87,28.78-4.73,5.86-.29,11.1-.08,21.35.35,18,.76,22.22.19,28.75-.28a102.44,102.44,0,0,0,36.29-9.08c31.18-14.46,45.12-44.29,48.81-53.38"/><path class="cls-11" d="M893.26,646.12h0a2.07,2.07,0,0,1-1.79-2.28L892.64,632a2,2,0,0,1,2.2-1.86h0a2.07,2.07,0,0,1,1.79,2.28l-1.17,11.82A2,2,0,0,1,893.26,646.12Z"/><rect class="cls-13" x="827.58" y="729.02" width="14.26" height="23.31" rx="7.13" transform="translate(1577.44 -92.21) rotate(90.14)"/><path class="cls-13" d="M846.32,741.77h0a7.32,7.32,0,0,1,1.77-9.91l7.88-5.62a6.74,6.74,0,0,1,9.56,1.84h0a7.3,7.3,0,0,1-1.77,9.91l-7.88,5.62A6.75,6.75,0,0,1,846.32,741.77Z"/><path class="cls-11" d="M836.72,740.32h0a2.05,2.05,0,0,1,1.84-2.23l12-1a2,2,0,0,1,2.16,1.91h0a2.05,2.05,0,0,1-1.84,2.23l-12,1A2,2,0,0,1,836.72,740.32Z"/><path class="cls-11" d="M860,733.47h0a2.13,2.13,0,0,1,.57-2.88l10-6.87a2,2,0,0,1,2.78.59h0a2.13,2.13,0,0,1-.57,2.88l-10,6.87A2,2,0,0,1,860,733.47Z"/><path class="cls-13" d="M798.34,742.18h0a7,7,0,0,0,7.52,6.39l9.51-1a7.08,7.08,0,0,0,6.16-7.8h0A7,7,0,0,0,814,733.4l-9.51,1A7.08,7.08,0,0,0,798.34,742.18Z"/><path class="cls-11" d="M813.73,740.72h0a2,2,0,0,0,2,2l12-.22a2.05,2.05,0,0,0,2-2.12h0a2,2,0,0,0-2-2l-12,.23A2.05,2.05,0,0,0,813.73,740.72Z"/><path class="cls-13" d="M774.26,753.36h0a6.82,6.82,0,0,0,8.86,4.15l9-3.49a7.24,7.24,0,0,0,4-9.19h0a6.81,6.81,0,0,0-8.85-4.15l-9,3.49A7.24,7.24,0,0,0,774.26,753.36Z"/><path class="cls-11" d="M789.06,747.56h0a2,2,0,0,0,2.6,1.16l11.18-4.62a2.11,2.11,0,0,0,1.12-2.7h0a2,2,0,0,0-2.61-1.16l-11.17,4.62A2.1,2.1,0,0,0,789.06,747.56Z"/><path class="cls-11" d="M770.32,763.47h0a2,2,0,0,0,2.82-.29l7.63-9.65a2.14,2.14,0,0,0-.28-2.93h0a2,2,0,0,0-2.82.29L770,760.54A2.15,2.15,0,0,0,770.32,763.47Z"/></g></g><g id="musling2"><path class="cls-7" d="M894.5,838c0,12.7-12.31,23-27.5,23s-27.5-10.3-27.5-23,13.4-28.64,27.5-23c7.5,3,15.4,7.73,21,11C894,829.5,894.5,831.65,894.5,838Z"/><path class="cls-16" d="M892.19,832.1l-1.07,1.71a2.73,2.73,0,0,1-3.76.86l-9.86-2.17-10.5-6-4.5-4.5c-1.32-.83-.32-4.58.5-5.9h0a10.82,10.82,0,0,1,14.86-3.43l11.51,7.21A8.89,8.89,0,0,1,892.19,832.1Z"/><path class="cls-17" d="M889.69,822.57l-.28.4c-1.17,1.7-3.71,3.2-5.41,2l-5-1.5-5-4-2-3c-1.7-1.17-.64-3.47.53-5.17l.28-.4a3.77,3.77,0,0,1,5.22-1l10.7,7.38A3.76,3.76,0,0,1,889.69,822.57Z"/><rect class="cls-16" x="879.46" y="808.79" width="8.19" height="9" rx="4.1" transform="translate(-287.49 1079.29) rotate(-55.43)"/><rect class="cls-7" x="884.35" y="808.4" width="2.23" height="4.32" rx="1.11" transform="translate(564.54 -346.19) rotate(32.02)"/></g><path class="cls-6" d="M685.17,832.16c.43-7.83,23.56-11.74,66.82-19,29.8-5,41.08-3.72,50.12,2.73,7.82,5.57,9.25,11.63,19.06,17.27,10.94,6.3,17,3.14,31.76,5.47,25.27,4,26.85,15.77,54.68,21.79,18.5,4,30.8,1.61,30.84,2.45.09,1.85-58.86,12.94-128.38,6.14C754.68,863.55,684.42,846,685.17,832.16Z"/></g><g id="Layer_1" data-name="Layer 1"><rect class="cls-18" x="589" y="208" width="446.46" height="386" rx="72.09"/><rect class="cls-19" x="637.76" y="250.67" width="348.94" height="299.83" rx="39.99"/><text class="cls-20" transform="translate(745.73 275.52)">settings</text><text class="cls-21" transform="translate(670.93 350.61)">music</text><text class="cls-21" transform="translate(670.87 456.88)">sound effects</text></g></svg>
