<svg xmlns="http://www.w3.org/2000/svg" width="172" height="218" viewBox="0 0 172 218"><defs><style>.cls-1{fill:#f2f2f2;opacity:0.52;}.cls-2,.cls-3{fill:none;stroke:gray;stroke-miterlimit:10;}.cls-2{opacity:0.35;}.cls-3{opacity:0.44;}</style></defs><title>bag_right</title><g id="Layer_1" data-name="Layer 1"><g id="plastik_pose" data-name="plastik pose"><path class="cls-1" d="M142.71,70.65l-13.48-10.2-22.13,35a3.21,3.21,0,0,1-4.9.64L71.37,69.23a5.48,5.48,0,0,1-1.31-6.58l15-30.37-13-15.65C66,31.6,58.89,41.5,53.41,47.88,51,50.72,47.84,54,43.34,60c-7.1,9.42-10.64,14.12-12.2,20.18-1.7,6.65-1.24,13.43-.67,21.93.32,4.63.58,4.25.67,7.63a98.06,98.06,0,0,1-1.85,19.76c-1.11,6.08-1.81,7.51-.95,10.22a14.25,14.25,0,0,0,6.18,7.45c4.3,2.66,8.51,2.4,12.14,2.51a55.69,55.69,0,0,1,24.15,6.38c5.48,3.09,3.66,4.18,17,16.71,9.72,9.13,12.89,10.6,16.21,10.45,4.83-.23,9.45-3.72,11.73-7.84,3-5.43.77-9.81-2.29-27-3.39-19-2.29-22.79-.38-25.47,2.9-4,6.14-3.5,9.75-8.71s3.6-10.32,4.06-14.06c.82-6.63,3.93-15.86,14.2-26.86Z"/><path class="cls-2" d="M89.45,111.05a32.42,32.42,0,0,0-11-7.9c-4.87-2.1-9.18-2.43-17.59-3-10.56-.73-12.22.27-17-1.59-2.67-1-7.42-2.86-10.27-7.83A17.49,17.49,0,0,1,32,78.2"/><path class="cls-3" d="M62.9,123a88.82,88.82,0,0,1,40.66,21,84.4,84.4,0,0,1,11.81,13.48"/></g></g></svg>
