<svg xmlns="http://www.w3.org/2000/svg" width="121" height="171" viewBox="0 0 121 171"><defs><style>.cls-1{fill:#f2f2f2;opacity:0.52;}.cls-2,.cls-3{fill:none;stroke:gray;stroke-miterlimit:10;}.cls-2{opacity:0.35;}.cls-3{opacity:0.44;}</style></defs><title>bag_right</title><g id="Layer_1" data-name="Layer 1"><g id="plastik_pose" data-name="plastik pose"><path class="cls-1" d="M118.71,55.65l-13.48-10.2-22.13,35a3.21,3.21,0,0,1-4.9.64L47.37,54.23a5.48,5.48,0,0,1-1.31-6.58l15-30.37-13-15.65C42,16.6,34.89,26.5,29.41,32.88,27,35.72,23.84,39,19.34,45,12.24,54.42,8.7,59.12,7.14,65.18c-1.7,6.65-1.24,13.43-.67,21.93.32,4.63.58,4.25.67,7.63A98.06,98.06,0,0,1,5.29,114.5c-1.11,6.08-1.81,7.51-1,10.22a14.25,14.25,0,0,0,6.18,7.45c4.3,2.66,8.51,2.4,12.14,2.51a55.69,55.69,0,0,1,24.15,6.38c5.48,3.09,3.66,4.18,17,16.71,9.72,9.13,12.89,10.6,16.21,10.45,4.83-.23,9.45-3.72,11.73-7.84,3-5.43.77-9.81-2.29-27-3.39-19-2.29-22.79-.38-25.47,2.9-4,6.14-3.5,9.75-8.71s3.6-10.32,4.06-14.06c.82-6.63,3.93-15.86,14.2-26.86Z"/><path class="cls-2" d="M65.45,96.05a32.42,32.42,0,0,0-11-7.9c-4.87-2.1-9.18-2.43-17.59-3-10.56-.73-12.22.27-17-1.59-2.67-1-7.42-2.86-10.27-7.83A17.49,17.49,0,0,1,8,63.2"/><path class="cls-3" d="M38.9,108a88.82,88.82,0,0,1,40.66,21,84.4,84.4,0,0,1,11.81,13.48"/></g></g></svg>
