<svg xmlns="http://www.w3.org/2000/svg" width="121" height="172" viewBox="0 0 121 172"><defs><style>.cls-1{fill:#f2f2f2;opacity:0.52;}.cls-2,.cls-3{fill:none;stroke:gray;stroke-miterlimit:10;}.cls-2{opacity:0.35;}.cls-3{opacity:0.44;}</style></defs><title>bag_left</title><g id="Layer_1" data-name="Layer 1"><g id="plastik_pose" data-name="plastik pose"><path class="cls-1" d="M3.5,50.36l14.37-8.9L36.66,78.4a3.22,3.22,0,0,0,4.82,1.09L74.67,55.58a5.51,5.51,0,0,0,1.92-6.44L64.42,17.51,78.79,3.13A113.81,113.81,0,0,0,94.54,36c2.16,3,5,6.64,8.9,13,6.18,10,9.28,15.05,10.26,21.22,1.09,6.79,0,13.49-1.37,21.9-.74,4.58-1,4.18-1.36,7.53a97.06,97.06,0,0,0,0,19.85c.54,6.16,1.1,7.65,0,10.27a14.34,14.34,0,0,1-6.85,6.85c-4.53,2.25-8.69,1.59-12.32,1.37a55.84,55.84,0,0,0-24.64,4.1c-5.74,2.57-4,3.83-18.48,15.06-10.54,8.19-13.82,9.36-17.12,8.9-4.79-.67-9.06-4.58-10.95-8.9-2.47-5.68.15-9.84,4.79-26.69,5.14-18.65,4.4-22.48,2.74-25.33-2.51-4.3-5.78-4.06-8.9-9.58s-2.62-10.61-2.73-14.38C16.3,74.48,14.07,65,4.87,53.1Z"/><path class="cls-2" d="M52.78,95.54a32.43,32.43,0,0,1,11.64-6.85c5-1.64,9.36-1.57,17.8-1.37,10.58.26,12.14,1.4,17.11,0,2.75-.77,7.65-2.15,11-6.84A17.56,17.56,0,0,0,113,68.16"/><path class="cls-3" d="M78.11,109.91A89,89,0,0,0,35.67,127a84.65,84.65,0,0,0-13,12.32"/></g></g></svg>
