<svg xmlns="http://www.w3.org/2000/svg" xmlns:xlink="http://www.w3.org/1999/xlink" width="293" height="216" viewBox="0 0 293 216"><defs><style>.cls-1{fill:#e6e6e6;opacity:0.65;}.cls-10,.cls-2{fill:none;stroke-miterlimit:10;}.cls-2{stroke:#e6e6e6;}.cls-3{fill:#c1272d;opacity:0.58;}.cls-4{fill:#d44700;}.cls-4,.cls-5,.cls-6{opacity:0.64;}.cls-5{fill:#ed1c24;}.cls-6{fill:#e93124;}.cls-7{fill:url(#Summer);}.cls-8{fill:url(#Summer-2);}.cls-9{fill:url(#Summer-3);}.cls-10{stroke:red;}.cls-11{fill:url(#Summer-4);}</style><radialGradient id="Summer" cx="2220.62" cy="-5323.77" r="7.89" gradientTransform="translate(-1971.96 -5239.51) rotate(135)" gradientUnits="userSpaceOnUse"><stop offset="0" stop-color="#fff"/><stop offset="0.09" stop-color="#ffedd8"/><stop offset="0.21" stop-color="#ffd5a7"/><stop offset="0.33" stop-color="#ffc17d"/><stop offset="0.46" stop-color="#ffb05b"/><stop offset="0.59" stop-color="#ffa340"/><stop offset="0.72" stop-color="#ff9a2d"/><stop offset="0.86" stop-color="#ff9522"/><stop offset="1" stop-color="#ff931e"/></radialGradient><radialGradient id="Summer-2" cx="2238.34" cy="-5337.24" r="7.89" gradientTransform="translate(-3827.45 -4011.2) rotate(112.74)" xlink:href="#Summer"/><radialGradient id="Summer-3" cx="2227.71" cy="-5310.31" r="7.89" gradientTransform="translate(-4187.72 -3623.08) rotate(107.49)" xlink:href="#Summer"/><radialGradient id="Summer-4" cx="2246.84" cy="-5323.77" r="7.89" gradientTransform="translate(3659.2 -4519.25) rotate(-166.29)" xlink:href="#Summer"/></defs><title>brændmand_right</title><g id="Layer_1" data-name="Layer 1"><g id="brændmand"><g id="brændmandhoved"><path class="cls-1" d="M259.89,83.05C249.15,63.5,216,56.31,200.19,65s-11.83,31.55-1.09,51.11,29.67,38.42,45.46,29.75S270.63,102.61,259.89,83.05Z"/><ellipse class="cls-2" cx="217.11" cy="107.29" rx="19.2" ry="39.33" transform="translate(-24.9 98.5) rotate(-24.22)"/></g><path class="cls-3" d="M207.66,98.26c-50.49,4.84-69.93,4-77.31,1.78-1.12-.34-7.9-2.49-8.35-1.49-.27.62,2,2.47,4.3,3.68,5.52,2.86,11.62,2.14,19.14,3.66.85.16,2.62.55,3.06,1.67a2.69,2.69,0,0,1-.59,2.33c-3.78,4.88-30.73-3.68-35-6.41a5.24,5.24,0,0,0-3.26-.9c-.76.08-1.88.44-2,1.09-.29,1.19,2.85,2.91,4.29,3.69a52.7,52.7,0,0,0,16.92,5.52c0-.11-6.88-1.31-30.14-5a3,3,0,0,0-1,.55,2.65,2.65,0,0,0-.79,3.1,3.08,3.08,0,0,0,2.24,1.45L120.57,116c2.2.49,3.71,1.75,3.68,2.68s-2,2.27-4.87,2a56.42,56.42,0,0,0-22.81-3A52.67,52.67,0,0,0,81.74,121l-1.21,1.32a1.94,1.94,0,0,0-.4,1.55c.29,1.34,2.37,2.13,3.87,1.91a3.69,3.69,0,0,0,2-1.1c3.5-3.47,18.13-2.29,18.91-2.22a63.87,63.87,0,0,1,16.5,3.75c3.92,1.4,3.45,1.62,6.32,2.59,9.77,3.29,21.84,3,24-1.64.78-1.67-.12-3.06,1-3.87,1.77-1.28,5.14,1.39,9.78,2.72,3.61,1,6.39.77,12.21.07,7.35-.9,22.19-2.85,41.68-5.86Z"/><path class="cls-4" d="M216.72,118.83c-20.89,3.32-30.68,13-36.63,19.61a162.7,162.7,0,0,1-13.47,13.78c-5.18,4.83-14.17,13.21-27.49,14.85-12.87,1.58-24.61-1.77-39.3-7.83-1-.39-12.41-5.65-13-5.88-2.35-.4-4-.45-5,2.25-1.91,5.17,26.15,16.46,36.31,18.24,5.77,1,17.08,2.87,29.76-1.25,13.29-4.33,23.34-11.92,32.49-24.34,8.26-11.22,14-17.16,25.94-20.85a66.18,66.18,0,0,1,12.73-2Z"/><path class="cls-5" d="M206,98.35c-21,2.22-33.78-4.5-41.84-9.3a190.3,190.3,0,0,0-17.79-9.72c-6.67-3.28-18.25-9-31.45-7.1-12.75,1.81-22.63,8-34.31,17.65-.75.62-1.89,1.39-2.32,1.76-2.08,1-3.68.45-5.61-1.88-3.7-4.45,11-14.29,20-18.62,5.09-2.46,15.1-7.16,28.61-6.49,14.16.7,26.45,5.37,39.65,14.89,11.93,8.61,19.57,12.8,32.19,13.25a41,41,0,0,0,10-.88Z"/><path class="cls-6" d="M211.38,107.59c-21.58-1-51.81,1.45-59.82,5.63a170.22,170.22,0,0,1-17.7,8.34c-6.64,2.77-17.84,6.87-31.24,4.8s-23-9.86-34.85-20.33c-.77-.68-1.92-1.54-2.35-1.93C63.32,103,48.77,86.3,46.87,88.48c-3.64,4.16,24.21,32.17,33.25,37.18,5.14,2.84,15.24,8.29,28.78,8.65,14.19.38,26.45-3.34,39.55-11.85,11.84-7.68,18.82-6.37,32.44-8.39,4.18-.62,30.25-1.58,32.55-.92Z"/><ellipse class="cls-7" cx="222.3" cy="95.18" rx="6.75" ry="8.88" transform="translate(-18.83 113.43) rotate(-27.51)"/><ellipse class="cls-8" cx="229.82" cy="116.12" rx="6.75" ry="8.88" transform="translate(-9.65 21.49) rotate(-5.24)"/><path class="cls-9" d="M201.34,101c-2.27-4.35-1.42-9.28,1.89-11s7.83.41,10.09,4.76,1.42,9.27-1.89,11S203.6,105.36,201.34,101Z"/><path class="cls-10" d="M213,87.66c-26.32-1.2-37.35-9.34-42.52-16.8-4.88-7-3.58-12.11-10.35-19.49-.54-.59-13.36-14.13-31.2-12.42-8.44.81-22,5.43-28.12,15.45-1.47,2.4-3.44,6.64-6.93,7-2.67.27-4.88-1.87-7-4C75,45.57,73.23,42,68.46,39.14A24.21,24.21,0,0,0,52.75,36.2C41.12,38.2,31.38,52,29.31,70.41"/><path class="cls-10" d="M216.57,120.3c-8.28,16.89-17.06,22.17-23.82,23.7-10.49,2.37-17.23-4-32.05.3-8.29,2.43-12.5,6.29-14.65,8.76-2.36,2.72-2.88,4.52-4.8,8.15-4.5,8.53-9.17,17.38-16.7,20-4.78,1.66-10.91-.34-23.16-4.33-2.83-.92-6.3-3.88-12-4.51-2.81-.31-5.18-.57-7.62.57-4.51,2.13-4.58,6.9-8.95,14.27-3.5,5.9-5.42,7.34-7.71,8-4.75,1.31-7.43-3-20.32-8.63-6.54-2.84-9-2.72-10.35-2.52-6.47,1-10.46,7-12,9.61"/><ellipse class="cls-11" cx="214.42" cy="120.18" rx="8.88" ry="6.75" transform="translate(80.36 326.21) rotate(-86.22)"/><rect class="cls-5" x="63.99" y="88.98" width="7.6" height="14.17" rx="3.8" transform="translate(87.27 -19.88) rotate(44.74)"/><rect class="cls-4" x="72.47" y="145.05" width="6.88" height="11.43" rx="3.44" transform="translate(244.59 157.1) rotate(118.87)"/><rect class="cls-4" x="58.17" y="133.6" width="7.09" height="17.72" rx="3.54" transform="translate(215.65 162.59) rotate(120.88)"/></g></g></svg>
