<svg xmlns="http://www.w3.org/2000/svg" xmlns:xlink="http://www.w3.org/1999/xlink" width="315" height="271" viewBox="0 0 315 271"><defs><style>.cls-1{fill:#e6e6e6;opacity:0.65;}.cls-10,.cls-2{fill:none;stroke-miterlimit:10;}.cls-2{stroke:#e6e6e6;}.cls-3{fill:#c1272d;opacity:0.58;}.cls-4{fill:#d44700;}.cls-4,.cls-5,.cls-6{opacity:0.64;}.cls-5{fill:#ed1c24;}.cls-6{fill:#e93124;}.cls-7{fill:url(#Summer);}.cls-8{fill:url(#Summer-2);}.cls-9{fill:url(#Summer-3);}.cls-10{stroke:red;}.cls-11{fill:url(#Summer-4);}</style><radialGradient id="Summer" cx="-1954.25" cy="199.77" r="7.89" gradientTransform="translate(1588.43 1329.66) rotate(45)" gradientUnits="userSpaceOnUse"><stop offset="0" stop-color="#fff"/><stop offset="0.09" stop-color="#ffedd8"/><stop offset="0.21" stop-color="#ffd5a7"/><stop offset="0.33" stop-color="#ffc17d"/><stop offset="0.46" stop-color="#ffb05b"/><stop offset="0.59" stop-color="#ffa340"/><stop offset="0.72" stop-color="#ff9a2d"/><stop offset="0.86" stop-color="#ff9522"/><stop offset="1" stop-color="#ff931e"/></radialGradient><radialGradient id="Summer-2" cx="-1936.54" cy="186.3" r="7.89" gradientTransform="translate(1930.28 644.6) rotate(22.74)" xlink:href="#Summer"/><radialGradient id="Summer-3" cx="-1947.17" cy="213.24" r="7.89" gradientTransform="translate(1560.53 -1185.04) rotate(-34.6)" xlink:href="#Summer"/><radialGradient id="Summer-4" cx="-1928.03" cy="199.77" r="7.89" gradientTransform="translate(2007.32 337.12) rotate(13.71)" xlink:href="#Summer"/></defs><title>brændmand_left</title><g id="Layer_1" data-name="Layer 1"><g id="brændmand"><g id="brændmandhoved"><path class="cls-1" d="M28.2,75.53c-3.54,22,18.22,48.08,36,50.94s28.72-17.63,32.26-39.65.19-48.55-17.58-51.41S31.74,53.5,28.2,75.53Z"/><ellipse class="cls-2" cx="76.85" cy="82.69" rx="39.33" ry="19.2" transform="translate(-21.68 137.78) rotate(-76.31)"/></g><path class="cls-3" d="M78.75,95.62c42.81,27.2,57.63,39.82,62.09,46.09.68,1,4.71,6.82,5.67,6.31.61-.32,0-3.16-1.12-5.54-2.6-5.65-7.85-8.83-12.86-14.65-.56-.65-1.73-2-1.39-3.21s1.73-1.42,1.9-1.46c6-1.54,22,21.78,23.71,26.57a5.24,5.24,0,0,0,2,2.72c.65.4,1.75.8,2.28.38,1-.76-.47-4.05-1.13-5.54A52.51,52.51,0,0,0,150,132.54c-.08.08,4.62,5.26,20.68,22.5a2.86,2.86,0,0,0,1.14.19,2.66,2.66,0,0,0,2.53-2,3.08,3.08,0,0,0-.88-2.52l-15.07-15.62c-1.43-1.74-1.86-3.65-1.25-4.37s3-.57,5,1.44a56.34,56.34,0,0,0,16.14,16.39,53.19,53.19,0,0,0,13.76,6.47l1.77-.3a1.94,1.94,0,0,0,1.27-1c.59-1.23-.56-3.14-1.89-3.88a3.67,3.67,0,0,0-2.27-.38c-4.89.58-15.71-9.34-16.29-9.87a63.82,63.82,0,0,1-10.71-13.1c-2.23-3.51-1.73-3.39-3.4-5.92-5.68-8.6-15.37-15.8-19.94-13.46-1.65.85-1.79,2.49-3.17,2.45-2.18-.08-3.2-4.26-6-8.16-2.22-3-4.56-4.53-9.59-7.55-6.35-3.81-19.26-11.4-36.49-21Z"/><path class="cls-4" d="M84.24,73.83c18.52,10.21,32.19,8.6,41,7a163,163,0,0,1,19.1-2.61c7.05-.62,19.29-1.71,30.81,5.18,11.12,6.66,18.33,16.52,26.2,30.33.51.9,6.32,12.08,6.6,12.59,1.61,1.76,2.85,2.8,5.3,1.28,4.68-2.91-10.52-29.06-17.44-36.71-3.93-4.34-11.71-12.75-24.25-17.29-13.15-4.76-25.74-4.94-40.59-.76-13.41,3.78-21.61,4.92-33.28.51a65.51,65.51,0,0,1-11.27-6.25Z"/><path class="cls-5" d="M80.11,96.57c17.91,11.13,23.89,24.3,27.3,33a191.23,191.23,0,0,0,8.06,18.6c3.25,6.69,8.88,18.3,20.45,24.92,11.18,6.41,22.8,7.55,37.92,7.15,1,0,2.35.07,2.9,0,2.26.5,3.19,1.91,3.29,4.93.18,5.79-17.49,4.5-27.22,2.42-5.52-1.19-16.31-3.63-26.55-12.46-10.74-9.25-17.57-20.48-22.14-36.11C100,125,96.55,117,86.86,108.87a41.25,41.25,0,0,0-8.44-5.47Z"/><path class="cls-6" d="M81.56,86c16.4,14,41.76,30.69,50.65,32.31a172,172,0,0,1,19.09,4.29c6.94,1.9,18.29,5.55,27.59,15.41s12.1,21.92,15,37.46c.19,1,.57,2.39.67,3,1,2.19,2.19,24.27,5,23.72,5.44-1,.67-40.26-3.39-49.77-2.3-5.39-6.93-15.9-17.39-24.51-11-9-22.92-13.61-38.48-14.95-14.07-1.21-18.76-6.54-30.75-13.31-3.68-2.07-24.84-17.33-26.25-19.27Z"/><ellipse class="cls-7" cx="65.31" cy="89.06" rx="8.88" ry="6.75" transform="translate(-34.08 137.21) rotate(-79.6)"/><ellipse class="cls-8" cx="72.24" cy="67.91" rx="8.88" ry="6.75" transform="translate(-23.92 92.08) rotate(-57.34)"/><path class="cls-9" d="M85.43,97.34c-.89,4.82-4.58,8.19-8.25,7.51s-5.92-5.13-5-9.95,4.58-8.19,8.25-7.52S86.31,92.51,85.43,97.34Z"/><path class="cls-10" d="M68.07,100.74c20,17.11,23.73,30.31,23.22,39.37-.47,8.56-4.61,11.75-3.81,21.74.07.8,1.86,19.36,17,29,7.16,4.55,20.7,9.25,31.68,5.09,2.64-1,6.79-3.13,9.77-1.26,2.27,1.42,2.7,4.47,3.08,7.47,2.08,16.62,1.23,20.52,3.26,25.68a24.26,24.26,0,0,0,10.58,12c10.41,5.57,26.59.64,39.52-12.59"/><path class="cls-10" d="M85.27,72.76c16.91-8.25,27.08-7,33.35-4.07,9.73,4.58,11.11,13.77,25.47,19.45,8,3.18,13.73,2.73,16.94,2.09,3.53-.69,5.06-1.79,8.79-3.48,8.8-4,17.92-8.08,25.47-5.51,4.79,1.62,8.4,7,15.62,17.64,1.66,2.46,2.58,6.94,6.66,10.9,2,2,3.73,3.63,6.35,4.23,4.87,1.1,7.85-2.63,15.83-5.76,6.39-2.5,8.79-2.46,11-1.55,4.55,1.88,4,7,10.72,19.29,3.42,6.27,5.43,7.68,6.62,8.35,5.7,3.22,12.58.88,15.33-.24"/><ellipse class="cls-11" cx="86.89" cy="74.17" rx="8.88" ry="6.75" transform="translate(-26.29 89.73) rotate(-48.31)"/><rect class="cls-5" x="183.97" y="176.2" width="7.6" height="14.17" rx="3.8" transform="translate(30 392.95) rotate(-97.35)"/><rect class="cls-4" x="211.53" y="129.42" width="6.88" height="11.43" rx="3.44" transform="translate(-35.87 95.69) rotate(-23.22)"/><rect class="cls-4" x="217.52" y="141.56" width="7.09" height="17.72" rx="3.54" transform="translate(-39.45 90.2) rotate(-21.22)"/></g></g></svg>
