<svg xmlns="http://www.w3.org/2000/svg" xmlns:xlink="http://www.w3.org/1999/xlink" width="1600" height="900" viewBox="0 0 1600 900"><defs><style>.cls-1,.cls-10,.cls-11,.cls-19,.cls-20,.cls-23,.cls-30,.cls-33,.cls-37,.cls-55,.cls-65,.cls-73{fill:none;}.cls-2,.cls-7{fill:#c6dd7f;}.cls-2,.cls-3,.cls-4{mix-blend-mode:multiply;}.cls-3,.cls-5{fill:#e9ddb7;}.cls-4,.cls-6{fill:#a6d0e4;}.cls-8{fill:url(#linear-gradient);}.cls-22,.cls-83,.cls-86,.cls-87,.cls-9{fill:#f2f2f2;}.cls-9{opacity:0.52;}.cls-10,.cls-11{stroke:gray;}.cls-10,.cls-11,.cls-12,.cls-14,.cls-15,.cls-19,.cls-20,.cls-23,.cls-30,.cls-32,.cls-33,.cls-34,.cls-36,.cls-37,.cls-50,.cls-53,.cls-54,.cls-55,.cls-56,.cls-59,.cls-65,.cls-73,.cls-83,.cls-85{stroke-miterlimit:10;}.cls-10{opacity:0.35;}.cls-11{opacity:0.44;}.cls-12,.cls-61{fill:#009245;}.cls-12,.cls-15{stroke:#006837;}.cls-13,.cls-15{fill:#006837;}.cls-14,.cls-60{fill:#39b54a;}.cls-14{stroke:#39b54a;}.cls-16{fill:#333;}.cls-17{fill:#4d4d4d;}.cls-18{fill:#666;}.cls-19{stroke:#666;}.cls-19,.cls-59{stroke-width:8px;}.cls-20{stroke:#4d4d4d;stroke-width:16px;}.cls-21{fill:#2b2a2a;}.cls-23{stroke:#b3b3b3;}.cls-24,.cls-32{fill:#b3b3b3;}.cls-25{fill:#fbcb88;}.cls-26,.cls-54,.cls-56,.cls-64{fill:#e6e6e6;}.cls-27{fill:#ccc;}.cls-28{fill:#c69c6d;}.cls-29{opacity:0.25;}.cls-30,.cls-73{stroke:red;}.cls-30{stroke-width:3px;}.cls-31,.cls-34{fill:#c69a6d;}.cls-32,.cls-33,.cls-36,.cls-50,.cls-53,.cls-59,.cls-83{stroke:#000;}.cls-34{stroke:#c69c6d;}.cls-35{fill:#b1836d;}.cls-37,.cls-55,.cls-56{stroke:#42210b;}.cls-37{stroke-width:2px;}.cls-38{fill:#a67c52;}.cls-39{fill:#ae8b6d;}.cls-40{fill:#d7d9d6;}.cls-41{fill:#422b0b;}.cls-42{fill:#4e3813;}.cls-43{fill:#5a4624;}.cls-44{fill:#7a6539;}.cls-45{fill:#5e4a24;}.cls-46{fill:#caaf91;}.cls-47{fill:#deccc0;}.cls-48{fill:#fff;}.cls-49{fill:#c7b299;}.cls-50,.cls-51{fill:#2c2a28;}.cls-52,.cls-53{fill:#848b85;}.cls-54{stroke:#ccc;}.cls-55{stroke-width:11px;}.cls-56,.cls-83{stroke-width:5px;}.cls-57{fill:url(#Alyssa);}.cls-58{fill:#999;}.cls-59{fill:url(#Sky);}.cls-62{fill:#22b573;}.cls-63{opacity:0.43;}.cls-64,.cls-83{opacity:0.65;}.cls-65{stroke:#e6e6e6;}.cls-66{fill:#c1272d;opacity:0.58;}.cls-67{fill:#d44700;}.cls-67,.cls-68,.cls-69{opacity:0.64;}.cls-68{fill:#ed1c24;}.cls-69{fill:#e93124;}.cls-70{fill:url(#Summer);}.cls-71{fill:url(#Summer-2);}.cls-72{fill:url(#Summer-3);}.cls-74{fill:url(#Summer-4);}.cls-75{fill:url(#Summer-5);}.cls-76{fill:url(#Summer-6);}.cls-77{fill:url(#Summer-7);}.cls-78{fill:url(#Summer-8);}.cls-79{fill:#020100;}.cls-80{fill:#29abe2;}.cls-81{fill:#fcee21;}.cls-82{fill:#fdfdfd;}.cls-84{fill:#1a1a1a;opacity:0.17;}.cls-85{stroke:#999;stroke-width:4px;}.cls-86{opacity:0.5;}.cls-87{opacity:0.82;}</style><linearGradient id="linear-gradient" x1="800.02" y1="-285.77" x2="800.95" y2="1149.33" gradientUnits="userSpaceOnUse"><stop offset="0.4" stop-color="#69b3c4"/><stop offset="0.77" stop-color="#313131"/></linearGradient><pattern id="Alyssa" data-name="Alyssa" width="144.13" height="138.36" patternTransform="translate(89.02 9.25) scale(0.75)" patternUnits="userSpaceOnUse" viewBox="0 0 144.13 138.36"><rect class="cls-1" width="144.13" height="138.36"/><path class="cls-2" d="M211.07,158.52c-11.76-1.38-19.37.35-22.65,3.11-3,2.55-5,5.41-2.25,11.94,2.94,7.09,1.53,14.73-5.53,15.91-6.23,1-10.9-4.85-11.24-12.28-.24-5.18-1.91-8.3-5.54-7.61s-4.63,5.9-3.63,11.76c1.38,8.13,5.53,11.76,6.23,20.23.49,6.06-2.94,13.66-12.46,15-9.3,1.35-15.91-4.33-16.6-10.55-.73-6.59,3.63-10.9,3.11-17.64s-4-10.17-5.87-17.29c-2.77-10.55,1.21-19,7.78-22.66,14.74-8.15,22.83,3.64,36,1.56,10.89-1.73,23.35-18.16,33-19.54,8.23-1.18,13.83,4.66,15,14S221.72,159.78,211.07,158.52Zm-42.19.52a4.15,4.15,0,1,0-4.15,4.15A4.15,4.15,0,0,0,168.88,159Zm49.46-15.39a1.73,1.73,0,1,0-1.73,1.73A1.73,1.73,0,0,0,218.34,143.65Z"/><path class="cls-3" d="M48.83,139.33c0,7.17,4.59,13.82-1,16.34-8.5,3.83-28-14.34-28-36.17,0-12,8.67-19,17.84-19,12.33,0,18,8.17,18,17.5S48.83,131.14,48.83,139.33ZM43.42,134A2.08,2.08,0,1,0,41.35,136,2.07,2.07,0,0,0,43.42,134Z"/><path class="cls-4" d="M123.53,162.83c-7.87,2.74-19.44-15.3-17.67-27,1.24-8.23,7.12-13.19,13.09-14.22,7.52-1.29,12.9,2.6,13.3,7.25.54,6.3-3.63,7.51-4.22,14.95C127.46,150.93,131.72,160,123.53,162.83Zm-3.79-27.51a2.6,2.6,0,1,0-2.59,2.59A2.59,2.59,0,0,0,119.74,135.32Z"/><path class="cls-3" d="M19.39,140.36a2.6,2.6,0,1,1-2.6-2.59A2.59,2.59,0,0,1,19.39,140.36Z"/><path class="cls-4" d="M84.61,132.64c.74,8.1,12.67,7,17.9,14.21,10.52,14.48-1.22,46.37-21.63,46.37-11.74,0-24.21-9.72-24.21-29.22,0-15.83,10.16-21.5,8.25-42.17-1-10.83-12.5-20.34-12.5-34.75C52.42,81.16,56,73.64,64,73.64c7,0,10.82,6,10.82,12.9,0,6.79-5.38,15.74,1.38,19,5.24,2.57,13.21-4.77,19.5-6.75,5.19-1.63,12.38.23,14.75,8.5,2.53,8.88-3.26,14.75-11.6,16.7C92.51,125.5,84,126.2,84.61,132.64Zm-16-30.56a3.29,3.29,0,1,0-3.29,3.29A3.3,3.3,0,0,0,68.63,102.08Zm26,9.7a2.33,2.33,0,1,0-2.33-2.33A2.34,2.34,0,0,0,94.61,111.78Zm-20,59.67a3.29,3.29,0,1,0-3.29,3.28A3.29,3.29,0,0,0,74.63,171.45Z"/><path class="cls-2" d="M66.94,158.52c-11.76-1.38-19.37.35-22.65,3.11-3,2.55-5,5.41-2.25,11.94,2.94,7.09,1.53,14.73-5.53,15.91-6.23,1-10.9-4.85-11.24-12.28-.24-5.18-1.91-8.3-5.54-7.61s-4.63,5.9-3.63,11.76c1.38,8.13,5.54,11.76,6.23,20.23.49,6.06-2.94,13.66-12.45,15C.57,218-6,212.3-6.73,206.08c-.73-6.59,3.63-10.9,3.12-17.64s-4-10.17-5.88-17.29c-2.77-10.55,1.21-19,7.78-22.66,14.74-8.15,22.83,3.64,36,1.56,10.89-1.73,23.35-18.16,33-19.54,8.23-1.18,13.83,4.66,15,14S77.59,159.78,66.94,158.52ZM24.75,159a4.15,4.15,0,1,0-4.15,4.15A4.15,4.15,0,0,0,24.75,159Zm49.46-15.39a1.73,1.73,0,1,0-1.73,1.73A1.73,1.73,0,0,0,74.21,143.65Z"/><path class="cls-4" d="M190.32,112c0,6.22-4.15,10.72-8.65,11.58s-8.31-1.28-13,1.21c-4.84,2.6-7.09,11.07-16.77,11.07-8,0-15.22-7.95-15.22-18.85,0-20.23,13.14-29.22,25.6-29.22C178.91,87.78,190.32,100.4,190.32,112ZM170.61,97.63a3.81,3.81,0,1,0-3.81,3.81A3.81,3.81,0,0,0,170.61,97.63Z"/><path class="cls-2" d="M211.07,20.16c-11.76-1.38-19.37.34-22.65,3.11-3,2.55-5,5.41-2.25,11.93,2.94,7.09,1.53,14.74-5.53,15.91-6.23,1-10.9-4.84-11.24-12.27-.24-5.19-1.91-8.3-5.54-7.61s-4.63,5.9-3.63,11.76c1.38,8.12,5.53,11.76,6.23,20.23.49,6-2.94,13.66-12.46,15-9.3,1.36-15.91-4.32-16.6-10.54-.73-6.59,3.63-10.9,3.11-17.64s-4-10.17-5.87-17.3c-2.77-10.55,1.21-19,7.78-22.65,14.74-8.15,22.83,3.64,36,1.55,10.89-1.72,23.35-18.15,33-19.54,8.23-1.17,13.83,4.67,15,14S221.72,21.41,211.07,20.16Zm-42.19.52a4.15,4.15,0,1,0-4.15,4.15A4.15,4.15,0,0,0,168.88,20.68ZM218.34,5.29A1.73,1.73,0,1,0,216.61,7,1.73,1.73,0,0,0,218.34,5.29Z"/><path class="cls-4" d="M31.83,83.64c-13.95,2-21.16-13.33-17.66-20.33,3.66-7.34,12.12-4.17,19.5-4.17,9.66,0,16.36-7.57,20.41-2.25C58.33,62.47,49.07,81.18,31.83,83.64Zm.53-17.48a2.25,2.25,0,1,0-2.25,2.25A2.25,2.25,0,0,0,32.36,66.16Z"/><path class="cls-3" d="M48.83,1c0,7.17,4.59,13.82-1,16.33-8.5,3.84-28-14.33-28-36.16,0-12,8.67-19,17.84-19,12.33,0,18,8.16,18,17.5S48.83-7.22,48.83,1ZM43.42-4.4a2.07,2.07,0,0,0-2.07-2.07A2.08,2.08,0,0,0,39.27-4.4a2.08,2.08,0,0,0,2.08,2.08A2.08,2.08,0,0,0,43.42-4.4Z"/><path class="cls-4" d="M46.19,112c0,6.22-4.15,10.72-8.64,11.58s-8.32-1.28-13,1.21c-4.84,2.6-7.09,11.07-16.77,11.07-8,0-15.22-7.95-15.22-18.85,0-20.23,13.15-29.22,25.6-29.22C34.78,87.78,46.19,100.4,46.19,112ZM26.48,97.63a3.81,3.81,0,1,0-3.81,3.81A3.81,3.81,0,0,0,26.48,97.63Z"/><path class="cls-2" d="M45.5,88.3a2.42,2.42,0,1,1-2.42-2.43A2.42,2.42,0,0,1,45.5,88.3Z"/><path class="cls-4" d="M129.2,69.79c-3.19,4.68,1,10.72-1.38,15.22s-6.75,5-9.86,2.59c-3.64-2.82-3.41-6.64-8.3-8.82-5.53-2.46-18,2.25-19.72-7.26-.87-4.81,2.38-8.57,7.27-9.68,6.05-1.39,9.35-.18,15.39-3.12s11.24-9,22.13-12.1c10.41-3,16.08,1.55,16.61,5.88C152.37,61,134.21,62.45,129.2,69.79ZM127,62.35a2.25,2.25,0,1,0-2.25,2.25A2.24,2.24,0,0,0,127,62.35Z"/><path class="cls-3" d="M156.17,109c0,17.17-14.5,25.5-27,22.83-10.27-2.19-12.84-17.33-16.67-26.16-3.71-8.56-8.83-22.5-20.17-22.5-11.19,0-12.83,14.5-23.66,14.5-11,0-24.5-15.67-24.5-39.67C44.17,43.3,54,26.52,65,27.3,76.67,28.14,69.5,47,80.33,47c9.5,0,7.86-16.26,9.17-23.33,1.67-9,6.83-14.17,18.5-13.17,14.44,1.24,22.33,13.5,18.87,23.35-4,11.45-23.87,17.32-21.54,30.49,1.35,7.59,13,12,26,16.16C145.86,85.13,156.17,91.8,156.17,109Zm-45-75.84a3.29,3.29,0,1,0,3.29-3.29A3.29,3.29,0,0,0,111.21,33.13ZM64.52,58a1.73,1.73,0,1,0-1.73,1.73A1.73,1.73,0,0,0,64.52,58ZM82,68.75a3.81,3.81,0,1,0-3.81,3.81A3.8,3.8,0,0,0,82,68.75Zm19.89-15.56a1.56,1.56,0,1,0-1.56,1.56A1.56,1.56,0,0,0,101.88,53.19Zm29.64,54.69a3.18,3.18,0,1,0-3.17,3.18A3.17,3.17,0,0,0,131.52,107.88Z"/><path class="cls-4" d="M123.53,24.47c-7.87,2.73-19.44-15.3-17.67-27C107.1-10.78,113-15.74,119-16.77c7.52-1.3,12.9,2.6,13.3,7.24.54,6.31-3.63,7.52-4.22,15C127.46,12.57,131.72,21.62,123.53,24.47ZM119.74-3a2.59,2.59,0,0,0-2.59-2.6,2.59,2.59,0,0,0-2.6,2.6,2.59,2.59,0,0,0,2.6,2.59A2.59,2.59,0,0,0,119.74-3Z"/><path class="cls-3" d="M19.39,2a2.6,2.6,0,1,1-2.6-2.59A2.59,2.59,0,0,1,19.39,2Z"/><path class="cls-3" d="M153.38,88.74c0-8.41-5.07-15.23-11.34-15.23s-11.33,6.82-11.33,15.23,5.07,12.44,11.33,12.44S153.38,97.15,153.38,88.74Z"/><path class="cls-4" d="M84.61-5.72c.74,8.1,12.67,7,17.9,14.21C113,23,101.29,54.86,80.88,54.86c-11.74,0-24.21-9.72-24.21-29.22,0-15.84,10.16-21.5,8.25-42.17-1-10.83-12.5-20.34-12.5-34.75C52.42-57.2,56-64.73,64-64.73c7,0,10.82,6,10.82,12.9s-5.38,15.75,1.38,19c5.24,2.57,13.21-4.77,19.5-6.75,5.19-1.63,12.38.23,14.75,8.5,2.53,8.88-3.26,14.75-11.6,16.7C92.51-12.86,84-12.16,84.61-5.72Zm-16-30.56a3.29,3.29,0,0,0-3.29-3.29,3.29,3.29,0,0,0-3.29,3.29A3.29,3.29,0,0,0,65.34-33,3.29,3.29,0,0,0,68.63-36.28Zm26,9.69a2.33,2.33,0,0,0,2.33-2.33,2.33,2.33,0,0,0-2.33-2.32,2.32,2.32,0,0,0-2.33,2.32A2.33,2.33,0,0,0,94.61-26.59Zm-20,59.68a3.29,3.29,0,1,0-3.29,3.28A3.29,3.29,0,0,0,74.63,33.09Z"/><path class="cls-2" d="M66.94,20.16c-11.76-1.38-19.37.34-22.65,3.11-3,2.55-5,5.41-2.25,11.93,2.94,7.09,1.53,14.74-5.53,15.91-6.23,1-10.9-4.84-11.24-12.27-.24-5.19-1.91-8.3-5.54-7.61S15.1,37.13,16.1,43c1.38,8.12,5.54,11.76,6.23,20.23.49,6-2.94,13.66-12.45,15C.57,79.62-6,73.94-6.73,67.72c-.73-6.59,3.63-10.9,3.12-17.64s-4-10.17-5.88-17.3c-2.77-10.55,1.21-19,7.78-22.65C13,2,21.12,13.77,34.26,11.68,45.15,10,57.61-6.47,67.29-7.86c8.23-1.17,13.83,4.67,15,14S77.59,21.41,66.94,20.16Zm-42.19.52a4.15,4.15,0,1,0-4.15,4.15A4.15,4.15,0,0,0,24.75,20.68ZM74.21,5.29A1.73,1.73,0,1,0,72.48,7,1.73,1.73,0,0,0,74.21,5.29Z"/><path class="cls-2" d="M130.24,42.47a1.39,1.39,0,1,1-1.39-1.39A1.38,1.38,0,0,1,130.24,42.47Z"/><path class="cls-5" d="M135.77,4.08a2.25,2.25,0,1,1-2.25-2.25A2.25,2.25,0,0,1,135.77,4.08Z"/><path class="cls-6" d="M52.24,27.25A1.21,1.21,0,1,1,51,26,1.21,1.21,0,0,1,52.24,27.25Z"/><path class="cls-6" d="M48.61,95.73a1.38,1.38,0,1,1-1.38-1.38A1.38,1.38,0,0,1,48.61,95.73Z"/><path class="cls-3" d="M133.18,73.77A1.21,1.21,0,1,1,132,72.56,1.21,1.21,0,0,1,133.18,73.77Z"/><path class="cls-7" d="M95.89,91.69a3.41,3.41,0,1,1-3.41-3.4A3.41,3.41,0,0,1,95.89,91.69Z"/><path class="cls-3" d="M100.87,131.55a2.1,2.1,0,1,1-2.1-2.1A2.1,2.1,0,0,1,100.87,131.55Z"/><path class="cls-3" d="M62.07,125.25a1.58,1.58,0,1,1-1.58-1.57A1.58,1.58,0,0,1,62.07,125.25Z"/><circle class="cls-7" cx="133.12" cy="11.21" r="2.62"/><circle class="cls-4" cx="123.15" cy="46.07" r="2.36"/><path class="cls-5" d="M27.72,52.63A2.62,2.62,0,1,1,25.1,50,2.62,2.62,0,0,1,27.72,52.63Z"/><path class="cls-4" d="M22.74,45.55a1.31,1.31,0,1,1-1.31-1.31A1.31,1.31,0,0,1,22.74,45.55Z"/><path class="cls-3" d="M87,97.46a1.58,1.58,0,1,1-1.58-1.57A1.57,1.57,0,0,1,87,97.46Z"/><path class="cls-4" d="M-14.93,69.79c-3.19,4.68,1,10.72-1.38,15.22s-6.75,5-9.86,2.59c-3.64-2.82-3.41-6.64-8.3-8.82-5.53-2.46-18,2.25-19.72-7.26-.87-4.81,2.38-8.57,7.27-9.68,6.05-1.39,9.35-.18,15.39-3.12s11.24-9,22.13-12.1C1,43.64,6.68,48.17,7.21,52.5,8.24,61-9.92,62.45-14.93,69.79Zm-2.25-7.44a2.24,2.24,0,0,0-2.25-2.24,2.24,2.24,0,0,0-2.24,2.24,2.24,2.24,0,0,0,2.24,2.25A2.24,2.24,0,0,0-17.18,62.35Z"/><path class="cls-3" d="M12,109c0,17.17-14.5,25.5-27,22.83-10.27-2.19-12.84-17.33-16.67-26.16-3.71-8.56-8.83-22.5-20.17-22.5s-12.83,14.5-23.66,14.5C-86.46,97.64-100,82-100,58c0-14.67,9.8-31.45,20.83-30.67C-67.46,28.14-74.63,47-63.8,47c9.5,0,7.86-16.26,9.17-23.33,1.67-9,6.83-14.17,18.5-13.17C-21.69,11.71-13.8,24-17.26,33.82c-4,11.45-23.87,17.32-21.54,30.49,1.35,7.59,13,12,26,16.16C1.73,85.13,12,91.8,12,109ZM-32.91,33.13a3.28,3.28,0,0,0,3.28,3.28,3.29,3.29,0,0,0,3.29-3.28,3.29,3.29,0,0,0-3.29-3.29A3.28,3.28,0,0,0-32.91,33.13ZM-79.61,58a1.73,1.73,0,0,0-1.73-1.73A1.74,1.74,0,0,0-83.07,58a1.73,1.73,0,0,0,1.73,1.73A1.72,1.72,0,0,0-79.61,58Zm17.47,10.72A3.8,3.8,0,0,0-65.95,65a3.8,3.8,0,0,0-3.8,3.8,3.81,3.81,0,0,0,3.8,3.81A3.81,3.81,0,0,0-62.14,68.75Zm19.89-15.56a1.56,1.56,0,0,0-1.56-1.56,1.56,1.56,0,0,0-1.56,1.56,1.56,1.56,0,0,0,1.56,1.56A1.56,1.56,0,0,0-42.25,53.19Zm29.64,54.69a3.17,3.17,0,0,0-3.17-3.17A3.17,3.17,0,0,0-19,107.88a3.18,3.18,0,0,0,3.18,3.18A3.17,3.17,0,0,0-12.61,107.88Z"/><path class="cls-3" d="M9.26,88.74c0-8.41-5.08-15.23-11.34-15.23s-11.34,6.82-11.34,15.23,5.07,12.44,11.34,12.44S9.26,97.15,9.26,88.74Z"/></pattern><linearGradient id="Sky" x1="355.25" y1="1371.19" x2="409.49" y2="1371.19" gradientTransform="translate(-148.32 -577.41) rotate(-12.01)" gradientUnits="userSpaceOnUse"><stop offset="0" stop-color="#cce0f4"/><stop offset="0.06" stop-color="#c3dcf2"/><stop offset="0.17" stop-color="#a9d2ee"/><stop offset="0.31" stop-color="#80c2e7"/><stop offset="0.46" stop-color="#47acde"/><stop offset="0.57" stop-color="#1e9cd7"/><stop offset="0.87" stop-color="#0075be"/><stop offset="0.99" stop-color="#005b97"/></linearGradient><radialGradient id="Summer" cx="1117.34" cy="276.51" r="5.9" gradientTransform="translate(522.78 -709.09) rotate(45)" gradientUnits="userSpaceOnUse"><stop offset="0" stop-color="#fff"/><stop offset="0.09" stop-color="#ffedd8"/><stop offset="0.21" stop-color="#ffd5a7"/><stop offset="0.33" stop-color="#ffc17d"/><stop offset="0.46" stop-color="#ffb05b"/><stop offset="0.59" stop-color="#ffa340"/><stop offset="0.72" stop-color="#ff9a2d"/><stop offset="0.86" stop-color="#ff9522"/><stop offset="1" stop-color="#ff931e"/></radialGradient><radialGradient id="Summer-2" cx="1130.6" cy="266.44" r="5.9" gradientTransform="translate(190.85 -416.29) rotate(22.74)" xlink:href="#Summer"/><radialGradient id="Summer-3" cx="1122.65" cy="286.58" r="5.9" gradientTransform="matrix(1, 0, 0, 1, 0, 0)" xlink:href="#Summer"/><radialGradient id="Summer-4" cx="1136.96" cy="276.51" r="5.9" gradientTransform="translate(97.95 -261.63) rotate(13.71)" xlink:href="#Summer"/><radialGradient id="Summer-5" cx="1264.71" cy="280.77" r="15.09" gradientTransform="translate(566.43 -817.72) rotate(45)" xlink:href="#Summer"/><radialGradient id="Summer-6" cx="1298.6" cy="255.02" r="15.09" gradientTransform="translate(194.03 -491.23) rotate(22.74)" xlink:href="#Summer"/><radialGradient id="Summer-7" cx="1278.27" cy="306.53" r="15.09" gradientTransform="matrix(0.99, -0.11, 0.11, 0.99, -25.2, 130.27)" xlink:href="#Summer"/><radialGradient id="Summer-8" cx="1314.87" cy="280.77" r="15.09" gradientTransform="matrix(0.97, 0.24, -0.24, 0.97, 101.21, -314.67)" xlink:href="#Summer"/></defs><title>forside</title><g id="baggrund"><rect id="vand" class="cls-8" x="0.5" y="1" width="1600" height="901"/><g id="plastik_pose" data-name="plastik pose"><path class="cls-9" d="M1382.63,458l-19.21-14.53-31.53,49.91a4.57,4.57,0,0,1-7,.91L1281,456a7.83,7.83,0,0,1-1.87-9.38l21.45-43.27L1282.08,381c-8.82,21.34-18.87,35.43-26.68,44.52-3.47,4-7.94,8.77-14.34,17.27-10.11,13.42-15.16,20.12-17.38,28.74-2.43,9.49-1.77,19.14-1,31.25.45,6.6.81,6.05.94,10.87.06,2,.27,12.32-2.62,28.15-1.58,8.66-2.58,10.7-1.36,14.57,2,6.29,7.39,9.74,8.8,10.61,6.13,3.79,12.12,3.41,17.3,3.57,13.47.42,26.48,4.62,34.41,9.09s5.2,6,24.22,23.81c13.86,13,18.36,15.1,23.1,14.88,6.88-.32,13.46-5.29,16.71-11.17,4.26-7.73,1.1-14-3.27-38.5-4.82-27.13-3.26-32.47-.53-36.29,4.13-5.77,8.74-5,13.89-12.41s5.13-14.7,5.79-20c1.16-9.45,5.59-22.59,20.22-38.27Z"/><path class="cls-10" d="M1306.75,515.54a46.11,46.11,0,0,0-15.6-11.25c-6.94-3-13.08-3.47-25.07-4.3-15-1-17.41.38-24.27-2.26-3.8-1.47-10.57-4.07-14.63-11.16-4.36-7.61-2.8-15.51-2.25-17.84"/><path class="cls-11" d="M1268.92,532.58c13.78,3.12,37,10.57,57.93,29.89a120.24,120.24,0,0,1,16.82,19.19"/></g></g><g id="Titelskærm_plante"><g id="plante"><path class="cls-12" d="M887.2,674.51c13.32-2.86,24.63-57.61,2.3-81.49-11.3-12.08-22.11-6.53-42.52-23.28-8.05-6.6-20.26-16.62-24.71-33.18-6-22.24,5.64-43,11.49-53.55,8.71-15.61,12.82-13.42,24.14-32.6,9-15.32,18.05-31.08,12.64-45.4-.57-1.51-5.6-14.29-16.09-16.3-2.1-.4-2.91.47-5.75,0-5.19-.84-11-4.38-12.64-9.31-1.46-4.48,1-8.82,2.3-11.64a57.77,57.77,0,0,0,2.3-36.09c-2.27-8.7-5.89-7.15-31-37.25-5-6.05-9.5-11.61-10.34-19.79-.92-8.86,2.62-18.57,5.74-18.63,3.51-.07,8,12,8.05,23.28,0,7.38-1.92,9.17-6.9,29.11-2.48,10-3.72,15-3.44,18.62.82,10.76,6.84,18.48,11.49,24.45,3.58,4.59,8.57,11,17.23,15.14,6.16,2.93,8,1.78,11.5,4.65,6.44,5.28,8.24,15.68,6.89,23.29-2.14,12-12,16.13-23,26.77-5.53,5.38-26.19,26.9-27.58,52.39-1.58,28.84,21.9,55.61,27.58,61.7,6.41,6.87,10.19,8.86,13.79,16.3,6.18,12.78,1.61,20.55,3.45,43.07A137.74,137.74,0,0,0,851,628.53c6.88,19.68,16.14,30.16,19.54,33.76C878.72,671,882.93,675.43,887.2,674.51Z"/><path class="cls-13" d="M872.26,695.47c-16.11,1.13-51.63-66.36-31-111.76,14.15-31.16,56.27-55.32,51.72-81.49-.56-3.22-2.75-11.74,0-22.12,2.41-9.11,7.42-15.15,11.49-19.79,19.15-21.86,27-23.81,36.77-36.09,3.28-4.13,16.76-21.58,17.24-45.4.49-24.44-13-43.86-17.24-50.06-10.45-15.1-16.15-14.08-19.53-25.61-3.94-13.43-1-31.31,9.19-43.08.8-.92,2.56-3.85,3.45-3.49s.2,4.6,0,5.82c-.1.58-1.72,14.58,4.59,26.78a39.35,39.35,0,0,0,5.75,8.15,44.43,44.43,0,0,0,12.64,9.31c8.16,4.61,12.67,11.31,18.39,19.79,8.11,12,15.72,35.27,5.74,57.05-7.7,16.82-23.32,24.83-28.15,27.35-5.26,2.75-5.29,1.83-14.94,5.82-20.21,8.37-31.13,12.89-35.63,22.12-2.34,4.82-1.15,7.25,3.45,33.76,3.48,20,5.22,30.06,5.75,38.42,1.18,18.78-2.25,33-4.6,43.07C885.68,647,885.54,694.54,872.26,695.47Z"/><path class="cls-14" d="M877.43,696.05a139.39,139.39,0,0,1-19.53-44.24c-6.89-28.56-.39-43.71-9.2-73.34a109,109,0,0,0-17.24-34.92c-2.57-3.43-4-4.9-5.74-7-18.48-22.28-9.13-41.84-24.13-64-11.1-16.4-30.74-27.18-36.78-30.26-9.11-4.66-11.33-4.08-14.94-8.15-15.25-17.22.08-55.05,2.3-60.54,3.13-7.72,4.39-8.45,8-16.3,12.72-27.33,12.91-53.51,12.65-53.55s-9.13,23.09-1.15,45.4c3.34,9.36,9.27,17.5,12.64,22.12,10.8,14.84,14.58,12.83,18.39,21,8.26,17.63-3,40.9-8,51.22-7,14.42-10.26,12.83-12.64,22.12-5.09,19.9,5,46.22,21.83,53.55,9,3.95,13.23-.57,23,4.66,11.44,6.13,16.32,18,18.39,23.28,8.11,20.57-1.86,28.18,2.29,47.73,5.6,26.33,26.86,27.42,34.48,53.55C885,658.37,886.39,673.89,877.43,696.05Z"/><path class="cls-15" d="M863.64,686.74c7.35-1.69,11.09-43.67-8-78-5.45-9.78-16.51-29.62-37.93-37.25-25-8.93-45.74,5.44-52.86-4.66s10.53-28,1.15-44.24c-1-1.7-5-8.06-11.49-9.31-14-2.69-34.22,19.11-34.48,37.25,0,3,.46,5.38-1.15,8.15-4.47,7.71-18.94,7.23-26.43,7-5.35-.18-11-.37-16.09-2.33-21.82-8.42-29.1-47.82-26.43-48.9s25.5,29.95,29.88,58.21a35.15,35.15,0,0,0,4.6,14c1.29,2.13,10.1,16.74,26.43,17.46,1.37.06,13.22.4,21.83-8.15,9.61-9.52,11.5-26.43,9.2-38.41-1.33-6.89-4.11-12.51-1.15-18.63,1.52-3.15,5.11-7.56,8-7,7.54,1.49-2.2,33.43,12.64,54.71,11.81,16.93,27.63,10.56,50.57,24.45C853.07,636,855.29,688.65,863.64,686.74Z"/><path class="cls-12" d="M883.18,684.41c.38,4.52-17.95,12.91-36.78,10.48-6-.78-11.35-2.58-28.73-12.81-35.54-20.92-53.38-31.69-56.31-46.56-1.57-8,.59-14.23-4.59-19.8-4.93-5.28-13.85-7.16-20.69-4.65-5.77,2.12-7.29,6.35-13.79,14-9.16,10.74-14,16-19.53,17.46-9.06,2.38-17.48-2.9-18.39-3.49-5.66-3.66-9.6-11.42-17.24-26.78-3.45-6.94-3.65-8-5.75-10.47-.67-.79-8.57-9.72-20.68-10.48-12.47-.79-20.45,7.66-21.84,5.82s4.38-11.17,13.79-15.14c10.54-4.43,21.64-.31,28.73,2.33,6.38,2.37,5.9,3.37,23,11.64,10.07,4.88,12.29,5.53,14.94,5.83,9.74,1.08,17.7-3.42,21.83-5.83,9.12-5.31,8.68-9,21.84-19.79,6.58-5.38,10.16-8.26,16.09-10.47,3.4-1.27,14.68-5.48,23,0a17,17,0,0,1,4.6,4.65c11.18,15.59,16.77,23.39,20.68,36.09,5.09,16.53,0,16.88,4.6,30.27,6.41,18.6,20.22,29.36,23,31.43C857.56,685.15,882.74,679.16,883.18,684.41Z"/></g></g><g id="anker_Titelskærm"><g id="anker"><polygon class="cls-16" points="852.61 601.23 862.02 651.74 914.71 626.96 1014.78 415.72 985.77 398.93 852.61 601.23"/><polygon class="cls-16" points="1030.62 463.02 1019.33 482.83 926.24 428.39 937.53 408.58 1030.62 463.02"/><ellipse class="cls-17" cx="924.11" cy="411.57" rx="16.93" ry="17.15"/><ellipse class="cls-17" cx="1035.12" cy="479.24" rx="16.93" ry="17.15"/><ellipse class="cls-18" cx="923.64" cy="411.1" rx="12.7" ry="12.87"/><ellipse class="cls-18" cx="1035.59" cy="478.76" rx="12.7" ry="12.87"/><g id="lænke"><path class="cls-19" d="M1019.12,388.28h0c-4.72-3.2-6.94-9.73-3.78-14.52l8-12.11a10.29,10.29,0,0,1,14.34-2.88h0a10.59,10.59,0,0,1,2.85,14.53l-7.06,12.1A10.28,10.28,0,0,1,1019.12,388.28Z"/><ellipse id="top_anker" data-name="top anker" class="cls-20" cx="1017.72" cy="379.65" rx="31.52" ry="31.93"/><path class="cls-17" d="M1030.49,369.72h0a3.1,3.1,0,0,1-.86-4.23l9.48-14.58a3,3,0,0,1,4.17-.87h0a3.08,3.08,0,0,1,.86,4.23l-9.47,14.57A3,3,0,0,1,1030.49,369.72Z"/><path class="cls-19" d="M1018.73,426.67h0a10.47,10.47,0,0,1-9.22-11.49L1011,400.7a10.42,10.42,0,0,1,11.35-9.35h0a10.47,10.47,0,0,1,9.22,11.49l-1.48,14.49A10.39,10.39,0,0,1,1018.73,426.67Z"/><path class="cls-19" d="M1014.93,464h0a10.47,10.47,0,0,1-9.22-11.49l1.47-14.49a10.41,10.41,0,0,1,11.35-9.34h0a10.47,10.47,0,0,1,9.22,11.49l-1.47,14.49A10.41,10.41,0,0,1,1014.93,464Z"/><path class="cls-17" d="M1017.81,440h0a3.05,3.05,0,0,1-2.69-3.35l1.85-18.23a3,3,0,0,1,3.31-2.73h0a3.06,3.06,0,0,1,2.69,3.36l-1.85,18.23A3,3,0,0,1,1017.81,440Z"/><path class="cls-19" d="M1009.86,496.81h0a10.47,10.47,0,0,1-9.22-11.49l1.47-14.49a10.41,10.41,0,0,1,11.35-9.34h0a10.47,10.47,0,0,1,9.22,11.49l-1.47,14.48A10.42,10.42,0,0,1,1009.86,496.81Z"/><path class="cls-19" d="M984.24,522.55h0a10.59,10.59,0,0,1-1.14-14.76l9.34-11.07a10.27,10.27,0,0,1,14.57-1.16h0a10.59,10.59,0,0,1,1.14,14.77l-9.34,11.07A10.28,10.28,0,0,1,984.24,522.55Z"/><path class="cls-17" d="M998.91,506.57h0a3.09,3.09,0,0,1-.68-4.26l10.61-14.85a3,3,0,0,1,4.21-.68h0a3.08,3.08,0,0,1,.67,4.26l-10.6,14.85A3,3,0,0,1,998.91,506.57Z"/><path class="cls-17" d="M1014.19,475.6h0a3.05,3.05,0,0,1-2.69-3.35l1.76-17.36a3,3,0,0,1,3.31-2.73h0a3.06,3.06,0,0,1,2.69,3.35l-1.77,17.37A3,3,0,0,1,1014.19,475.6Z"/><path class="cls-19" d="M823.66,590.7h0c4.68,3.28,12.09,2.08,15.33-2.65l8.18-12a10.58,10.58,0,0,0-2.62-14.57h0a10.28,10.28,0,0,0-14.38,2.64l-9.12,12A10.59,10.59,0,0,0,823.66,590.7Z"/><path id="spidsen_af_skaftet" data-name="spidsen af skaftet" class="cls-21" d="M1127.86,618.73c20-34.57,21.82-68.21,21.52-85a95.4,95.4,0,0,1-12,16.82,98,98,0,0,1-39.68,26.56"/><path id="skaftet" class="cls-21" d="M1097.87,577c-8.37,5-15.9,16.37-13.44,27.9a24.21,24.21,0,0,0,7.56,12.66,10.56,10.56,0,0,0-5.29,1.45c-6.28,3.83-.37,14.77-2.66,21.27-4.78,13.62-32,23.83-48.92,26.68-38.22,6.46-38.57,3.82-62.09,0,0,0-39.59-5.83-48-19.06-1.82-2.86-9.68-27.17-13.17-32.4-7-10.44-20.2-15.09-20.2-15.09-14-7-27.5-4.28-31.82-3.35-9.48,2-9.83,5-15.65,5.06-12,.17-21.18-12.23-30.52-25.25-10.74-15-29.35-40.91-20.76-55.84,3.45-6,12.29-12,10.37-18.07-.77-2.43-2.85-3.61-2.32-5,.94-2.57,7.94.38,14.42-2.31,9.28-3.85,14.15-17.83,12.37-28.41a28.75,28.75,0,0,0-1.38-4.93c-1.32-4-8.26-25.75-5.63-46.59,1.66-13.12,6.21-18.76,4.85-19.61-3.3-2.06-36.38,27.13-49.69,69.51,0,0-19.58,62.34,16,139.65,1.15,2.51,5.37,11.39,9.83,24,7.17,20.33,6.37,26.07,9.7,34.56,10.15,25.93,45.75,44.5,75,43.34,14.61-.57,18.08-5.69,43.28-6.94,8.81-.44,16.7-.13,32.1.5,27.1,1.12,33.41.29,43.24-.4,27.28-1.91,45.92-9.42,54.56-13.34,46.87-21.25,67.84-65.06,73.39-78.43"/><path class="cls-17" d="M816,613h0a3,3,0,0,0,4.16-.95l11.52-27a3.09,3.09,0,0,0-.94-4.21h0c-1.41-.89-4.22-.46-5.1,1L815,608.82A3.08,3.08,0,0,0,816,613Z"/><path class="cls-17" d="M1021.56,401.48h0a3.05,3.05,0,0,1-2.69-3.35l1.77-17.36A3,3,0,0,1,1024,378h0a3.06,3.06,0,0,1,2.69,3.36l-1.77,17.36A3,3,0,0,1,1021.56,401.48Z"/><rect class="cls-19" x="923.06" y="522.87" width="20.94" height="35.05" rx="10.34" transform="translate(1476.28 -391.77) rotate(90.14)"/><path class="cls-19" d="M951,542h0a10.59,10.59,0,0,1,2.66-14.56l11.85-8.25a10.28,10.28,0,0,1,14.38,2.7h0a10.59,10.59,0,0,1-2.67,14.56l-11.84,8.25A10.3,10.3,0,0,1,951,542Z"/><path class="cls-17" d="M936.55,539.88h0a3.05,3.05,0,0,1,2.77-3.28l18-1.44A3,3,0,0,1,960.6,538h0a3.05,3.05,0,0,1-2.77,3.28l-18,1.44A3,3,0,0,1,936.55,539.88Z"/><path class="cls-17" d="M971.58,529.82h0a3.09,3.09,0,0,1,.85-4.24l15.1-10.09a3,3,0,0,1,4.18.87h0a3.09,3.09,0,0,1-.86,4.23l-15.1,10.09A3,3,0,0,1,971.58,529.82Z"/><path class="cls-19" d="M878.84,542.61h0A10.4,10.4,0,0,0,890.15,552l14.31-1.45a10.47,10.47,0,0,0,9.26-11.45h0a10.41,10.41,0,0,0-11.31-9.39l-14.31,1.45A10.46,10.46,0,0,0,878.84,542.61Z"/><rect class="cls-17" x="910.99" y="528.19" width="6.11" height="24.12" rx="3.02" transform="translate(390.3 1463.85) rotate(-91.03)"/><path class="cls-19" d="M842.64,559h0A10.33,10.33,0,0,0,856,565.14L869.41,560a10.55,10.55,0,0,0,6-13.49h0a10.33,10.33,0,0,0-13.32-6.11l-13.45,5.14A10.54,10.54,0,0,0,842.64,559Z"/><path class="cls-17" d="M864.89,550.52h0a3,3,0,0,0,3.91,1.7l16.81-6.78a3.07,3.07,0,0,0,1.68-4h0a3,3,0,0,0-3.92-1.71l-16.8,6.79A3.07,3.07,0,0,0,864.89,550.52Z"/><path class="cls-17" d="M836.72,573.89h0a3,3,0,0,0,4.24-.43l11.47-14.17A3.1,3.1,0,0,0,852,555h0a3,3,0,0,0-4.24.42L836.3,569.59A3.09,3.09,0,0,0,836.72,573.89Z"/></g></g></g><g id="Titelskærm_sand"><g id="musling"><path class="cls-22" d="M1171.25,713.93c-.56-2.7-9.4-1.63-11-6.67-1.73-5.56,7.73-11,5.89-16.2-1.6-4.55-9.55-2.57-12.57-8.06s3-11,0-15.71-10.9-1.55-13.94-6.44c-2.73-4.41,2.08-9.47-.72-12.94-3.06-3.81-10.31.44-13.69-3.44s1.35-10.52-1.63-13.17c-3.29-2.91-10.26,4-15.75,1-4.71-2.64-3.77-10.12-7.09-10.62s-9,8.44-12.08,5.81c-3.2-2.76-1.46-9.44-5.28-10.16-4-.74-10.59,7.11-11.84,8.82-15.53,21.3-15,29.62-25.17,63.4-.63,2.09-4.26,16.24-2.67,26.82,1.09,7.27,6,11.31,8.25,13.84,4.42,4.9,12.77,6.53,18.72,6.66,26.84.6,66.39-.44,87.15-7.62C1167.29,726,1171.73,716.23,1171.25,713.93Z"/><line class="cls-23" x1="1024.52" y1="616.3" x2="1024.52" y2="616.3"/><polyline class="cls-24" points="1050.33 725.46 1094.63 627.87 1091.71 629.49 1089.91 628.95 1088.37 627.5 1087.73 626.32 1087.16 623.09"/><polyline class="cls-24" points="1051.27 720.87 1131.38 647 1127.5 647.01 1124.76 646.32 1123.39 644.02 1122.93 641.94 1123.61 639.16"/><path class="cls-24" d="M1054.47,731.79c-8.45-5.06-12.6-19.84-10.79-27.24,1.5-6.13,14.54,10.21,22.4,15.43s24.29,14.64,18.29,16.36C1077.08,738.44,1062,736.31,1054.47,731.79Z"/><polyline class="cls-24" points="1054.38 720.3 1160.23 687.61 1155.67 686.47 1154.07 685.08 1152.69 682.77 1152.46 679.77 1152.91 677.92"/><polyline class="cls-24" points="1056.38 727.03 1166.08 712.29 1161.76 710.41 1160.4 708.78 1159.41 706.27 1159.67 703.27 1160.41 701.52"/><polyline class="cls-24" points="1052.24 723.29 1144.4 665.62 1140.59 664.9 1138.02 663.72 1137.09 661.19 1137.01 659.06 1138.18 656.46"/><polyline class="cls-24" points="1050.6 722.71 1112.23 632.45 1108.45 633.34 1105.63 633.3 1103.78 631.36 1102.86 629.44 1102.9 626.58"/></g><path id="sand" class="cls-25" d="M1600,777.06h-234.1L1288.07,770a123.65,123.65,0,0,1-38.68-6.53c-18-6.13-20.51-11.7-38.67-17.41-6.06-1.91-10.51-2.77-43.77-6.53-39.92-4.52-37.63-3.73-39.7-4.36-31.87-9.58-33.66-32.14-63.1-38.08-15.34-3.1-16.45,2.7-35.63-1.09-21.34-4.22-24.43-12.28-41.73-17.41-7.55-2.24-13.85-2.75-68.19,6.53-44.92,7.66-46.73,9-56,7.62-29.09-4.53-27.57-20.81-56-25-24.38-3.63-48.45,4.94-68.2,12-13.54,4.82-12.82,6.06-24.42,9.79-26.5,8.52-41.87,5.77-60.06,7.62-37.54,3.82-38.67,22.32-86.51,37-14.79,4.53-13.16,2.3-66.16,9.79-77,10.88-79.45,15.46-113,16.87-37.49,1.57-42.81-3.79-89.57-5.44a625.15,625.15,0,0,0-107.89,5.44L-.5,766.18,0,900H1600.5Z"/><g id="musling2"><path class="cls-22" d="M1006.5,691.53c0,21.25-20.59,38.47-46,38.47s-46-17.22-46-38.47,22.41-47.91,46-38.48c12.55,5,25.75,12.94,35.13,18.4C1005.66,677.31,1006.5,680.9,1006.5,691.53Z"/><path class="cls-26" d="M1002.63,681.65l-1.79,2.86a4.57,4.57,0,0,1-6.28,1.45l-16.5-3.63-17.56-10L953,664.76c-2.21-1.38-.54-7.66.84-9.87h0a18.09,18.09,0,0,1,24.85-5.73l19.26,12.05A14.87,14.87,0,0,1,1002.63,681.65Z"/><path class="cls-27" d="M998.45,665.71l-.46.67c-2,2.84-6.21,5.36-9,3.4l-8.37-2.51-8.36-6.69-3.35-5c-2.84-1.95-1.06-5.8.9-8.64l.46-.67a6.28,6.28,0,0,1,8.72-1.6L996.85,657A6.28,6.28,0,0,1,998.45,665.71Z"/><rect class="cls-26" x="981.34" y="642.66" width="13.7" height="15.05" rx="6.85" transform="translate(-107.93 1094.9) rotate(-55.43)"/><rect class="cls-22" x="989.53" y="642.01" width="3.72" height="7.23" rx="1.5" transform="translate(493.2 -427.45) rotate(32.02)"/></g><g id="flaske"><path class="cls-26" d="M1137.59,783.52l-38.47,77.15A12,12,0,0,1,1083,866l-17.43-8.92a12.27,12.27,0,0,1-5.3-16.33l38.47-77.15a12,12,0,0,1,16.12-5.37l17.43,8.92A12.26,12.26,0,0,1,1137.59,783.52Z"/><polygon class="cls-16" points="1140.3 748.96 1132.81 763.98 1116.28 755.52 1123.76 740.5 1140.3 748.96"/><polygon class="cls-22" points="1135.29 765.25 1133.91 768.02 1113.24 757.44 1114.62 754.67 1135.29 765.25"/></g><g id="sandstump"><path class="cls-25" d="M980.72,839.63c.4-7.46,22.16-11.18,62.86-18.13,28-4.8,38.65-3.55,47.15,2.6,7.36,5.31,8.7,11.08,17.93,16.46,10.3,6,16,3,29.88,5.21,23.78,3.8,25.26,15,51.45,20.77,17.4,3.82,29,1.53,29,2.33.08,1.77-55.38,12.34-120.78,5.85C1046.12,869.55,980,852.79,980.72,839.63Z"/><path class="cls-28" d="M1164.17,855.74c-9.31-7.82-20.64-12.18-32.61-13.92-6.36-.93-13-.26-19.27-1.49-7.62-1.5-11.14-6.4-16.46-11.33-8-7.43-18.55-12.83-29.73-11.83-6.54.59-12.89,3.27-19.14,5.16a119.89,119.89,0,0,1-24.49,5.2c-1.9.16-1.92,3.16,0,3,13.76-1.17,26.13-6.39,39.39-9.61,13.46-3.27,26.22,3.78,35.1,13.49,3.41,3.71,6.73,6.5,11.62,8.07,5.55,1.78,11.4,1.21,17.12,1.67,13.15,1.07,26.13,5.13,36.35,13.71,1.47,1.24,3.6-.87,2.12-2.12Z"/></g></g><g id="Titelskærm_karaktere"><ellipse class="cls-29" cx="428.71" cy="835.6" rx="69.83" ry="24.4"/><ellipse class="cls-29" cx="254.53" cy="823.96" rx="99.48" ry="31.16"/><g id="sugerør"><line class="cls-30" x1="106.54" y1="416.7" x2="86.04" y2="375.67"/><line class="cls-30" x1="81.46" y1="374.6" x2="67.95" y2="384.36"/><line class="cls-30" x1="82.06" y1="374.29" x2="83.12" y2="374.16"/><line class="cls-30" x1="84.62" y1="374.25" x2="83.56" y2="374.19"/><line class="cls-30" x1="85.99" y1="375.32" x2="85.19" y2="374.63"/></g><g id="fisker_fødder" data-name="fisker fødder"><rect class="cls-31" x="228.25" y="774.41" width="5.26" height="21.77" rx="2.63"/><rect class="cls-31" x="266.54" y="774.41" width="5.26" height="21.77" rx="2.63"/><path class="cls-16" d="M286.44,822.46l-15.66-9h-5.25L264,815.7c-5.83,10.38-7.31-1.74-4-14.83l2.84-7.32c1.35-2.08,5.62.88,7.88,1.13s2.53-2.22,4.6-.87l14.93,13.63,13.51,12.77c4.16,2.69,4.2,6.35,1.5,10.51h-3.75C296.2,827,289.89,824.7,286.44,822.46Z"/><path class="cls-16" d="M214.47,821.71l15.65-9h5.26l1.5,2.25c5.83,10.38,7.3-1.75,4-14.83L238,792.8c-1.35-2.08-5.62.88-7.89,1.13s-2.52-2.22-4.6-.87L210.6,806.69l-13.51,12.77c-4.16,2.69-4.2,6.35-1.5,10.51h3.75C204.71,826.21,211,824,214.47,821.71Z"/></g><g id="fisken"><path class="cls-32" d="M120.55,485.22c-.64,10.56-7.14,25.94-8.88,34.82-1.46,7.46-1.39,7.57-2.35,14.14-.25,1.69,10.36,42.68,10.11,44.24-1.76,11.26-15.63-13-20.26-13.26-4-.24-21.49,20.47-22.41,9.93-.13-1.48,15.34-38.87,15.23-40.45-.52-7.34-.52-8.25-1.3-15.87-1-10.23-4.8-24.86-6.78-37.27-2.18-13.67-3-20.94-.34-31.61,4.61-18.74,14.79-35.21,21.65-34.8C116,415.74,122.84,447.14,120.55,485.22Z"/><path class="cls-22" d="M103.68,440.57c-.3,5-3.77,8.05-8.74,7.75s-7.38-2.23-7.08-7.2a9,9,0,0,1,9.53-8.45C102.36,433,104,435.61,103.68,440.57Z"/><path class="cls-33" d="M98.41,484.26c.62,7.53,4.84,13.93,11,16.46,4.42,1.8-3.62-21.44-1.69-21.91"/><line class="cls-33" x1="90.47" y1="435.26" x2="100.28" y2="447.14"/><line class="cls-33" x1="102.27" y1="434.99" x2="88.33" y2="445.67"/><line class="cls-33" x1="107.82" y1="415.63" x2="104.1" y2="427.44"/><path class="cls-33" d="M89.64,455.15c5.61,4,12.4,4.76,17.19,1.79a12.89,12.89,0,0,0,4.86-5.73"/><path class="cls-33" d="M90.69,462.73c5.61,4,12.39,4.76,17.19,1.79a12.87,12.87,0,0,0,4.86-5.72"/></g><polygon id="fisker_arm" data-name="fisker arm" class="cls-34" points="335.61 456.44 357.39 494.73 385.92 521.01 379.91 532.27 346.88 502.99 343.87 502.99 341.62 505.99 339.37 506.74 337.87 504.49 339.74 498.48 333.36 487.22 319.1 465.45 335.61 456.44"/><rect id="fisker_hals" data-name="fisker hals" class="cls-34" x="236.88" y="338.56" width="29.28" height="36.79" rx="12"/><g id="fisker_øre" data-name="fisker øre"><path class="cls-35" d="M310.27,282.62c.66,10.34-4,17.56,6.34,16.9s18.37-18.63,17.71-29-4-13.28-14.35-12.62S309.6,272.27,310.27,282.62Z"/><path class="cls-35" d="M195.72,282.62c-.66,10.34,4,17.56-6.35,16.9s-18.36-18.63-17.7-29,4-13.28,14.35-12.62S196.38,272.27,195.72,282.62Z"/></g><g id="fisker_hoved" data-name="fisker hoved"><path class="cls-34" d="M275.92,349.82l-6.11-.77-14.26-3a37.35,37.35,0,0,0-9.66,0l-14.64,3.51c-10.89,5.5-37.16-36.2-37.16-41.05V242.27c0-4.86,6-21.59,14.26-21.59l92.35-.75c8.26,1.5,12.88,17,12,22.34V310C314.22,314.88,284.93,350.57,275.92,349.82Z"/><path class="cls-36" d="M235.72,270.85a3,3,0,0,0-3.47-2.45l-6.88,1.19a3,3,0,0,0-2.45,3.46,15.06,15.06,0,0,1,2-1.31,11.3,11.3,0,0,1,8.26-1.5A16.39,16.39,0,0,1,235.72,270.85Z"/><path class="cls-36" d="M286.18,274a3,3,0,0,0-2.34-3.54L277,269.06a3,3,0,0,0-3.54,2.34,15.69,15.69,0,0,1,2.29-.52,11.25,11.25,0,0,1,8.24,1.6A15.42,15.42,0,0,1,286.18,274Z"/><polyline class="cls-37" points="210.98 296.89 210.98 304.4 242.51 308.9 255.28 311.91 283.06 303.65 297.32 301.39 295.07 295.39"/><path class="cls-38" d="M273.3,297.64a2.69,2.69,0,0,0-3-3.75,2.21,2.21,0,0,0-1.5.75,2.49,2.49,0,0,0,.08,3H244.4a3,3,0,0,0-1.14-3.75,2.79,2.79,0,0,0-3,.75c-1.1,1.14-.35,2.46-1.3,3-.46.27-.73,0-4,0h0c-5.25,0-6.38-1.5-6.38-5.63v-3.75c0-4.13-.75-7.51,3.76-7.51h45.05c4.13,0,3.37,3,3.37,7.13l-.37,4.88C280.43,296.89,277.43,297.64,273.3,297.64Z"/><line class="cls-33" x1="225.62" y1="325.42" x2="225.62" y2="349.45"/><line class="cls-33" x1="231.63" y1="326.17" x2="231.63" y2="350.2"/><line class="cls-33" x1="227.12" y1="326.17" x2="227.12" y2="350.2"/><line class="cls-33" x1="228.62" y1="326.17" x2="228.62" y2="350.2"/><line class="cls-33" x1="230.12" y1="326.17" x2="230.12" y2="350.2"/><line class="cls-33" x1="233.13" y1="325.42" x2="233.13" y2="349.45"/><line class="cls-33" x1="243.64" y1="322.42" x2="243.64" y2="346.44"/><line class="cls-33" x1="249.65" y1="322.42" x2="249.65" y2="346.44"/><line class="cls-33" x1="245.14" y1="322.42" x2="245.14" y2="346.44"/><line class="cls-33" x1="246.64" y1="322.42" x2="246.64" y2="346.44"/><line class="cls-33" x1="248.14" y1="322.42" x2="248.14" y2="346.44"/><line class="cls-33" x1="251.15" y1="322.42" x2="251.15" y2="346.44"/><line class="cls-33" x1="234.63" y1="325.42" x2="234.63" y2="349.45"/><line class="cls-33" x1="240.64" y1="323.92" x2="240.64" y2="347.94"/><line class="cls-33" x1="236.13" y1="324.67" x2="236.13" y2="348.7"/><line class="cls-33" x1="237.63" y1="324.67" x2="237.63" y2="348.7"/><line class="cls-33" x1="239.13" y1="323.92" x2="239.13" y2="347.94"/><line class="cls-33" x1="242.14" y1="323.17" x2="242.14" y2="347.19"/><line class="cls-33" x1="252.65" y1="322.42" x2="252.65" y2="346.44"/><line class="cls-33" x1="258.66" y1="323.17" x2="258.66" y2="347.19"/><line class="cls-33" x1="254.15" y1="322.42" x2="254.15" y2="346.44"/><line class="cls-33" x1="255.65" y1="322.42" x2="255.65" y2="346.44"/><line class="cls-33" x1="257.15" y1="323.17" x2="257.15" y2="346.82"/><line class="cls-33" x1="260.16" y1="323.17" x2="260.16" y2="347.19"/><line class="cls-33" x1="216.61" y1="319.41" x2="216.61" y2="343.44"/><line class="cls-33" x1="222.62" y1="323.92" x2="222.62" y2="347.94"/><line class="cls-33" x1="218.11" y1="320.92" x2="218.11" y2="344.94"/><line class="cls-33" x1="219.61" y1="321.67" x2="219.61" y2="345.69"/><line class="cls-33" x1="221.11" y1="322.42" x2="221.11" y2="346.44"/><line class="cls-33" x1="224.12" y1="324.67" x2="224.12" y2="348.7"/><line class="cls-33" x1="279.68" y1="325.42" x2="279.68" y2="349.45"/><line class="cls-33" x1="273.67" y1="326.17" x2="273.67" y2="350.2"/><line class="cls-33" x1="278.18" y1="326.17" x2="278.18" y2="350.2"/><line class="cls-33" x1="276.67" y1="326.17" x2="276.67" y2="350.2"/><line class="cls-33" x1="275.17" y1="326.17" x2="275.17" y2="350.2"/><line class="cls-33" x1="272.17" y1="325.42" x2="272.17" y2="349.45"/><line class="cls-33" x1="261.66" y1="322.42" x2="261.66" y2="346.44"/><line class="cls-33" x1="255.65" y1="322.42" x2="255.65" y2="346.44"/><line class="cls-33" x1="260.16" y1="322.42" x2="260.16" y2="346.44"/><line class="cls-33" x1="258.66" y1="322.42" x2="258.66" y2="346.44"/><line class="cls-33" x1="257.15" y1="322.42" x2="257.15" y2="346.44"/><line class="cls-33" x1="254.15" y1="322.42" x2="254.15" y2="346.44"/><line class="cls-33" x1="270.67" y1="325.42" x2="270.67" y2="349.45"/><line class="cls-33" x1="264.66" y1="323.92" x2="264.66" y2="347.94"/><line class="cls-33" x1="269.17" y1="324.67" x2="269.17" y2="348.7"/><line class="cls-33" x1="267.67" y1="324.67" x2="267.67" y2="348.7"/><line class="cls-33" x1="266.16" y1="323.92" x2="266.16" y2="347.94"/><line class="cls-33" x1="263.16" y1="323.17" x2="263.16" y2="347.19"/><line class="cls-33" x1="252.65" y1="322.42" x2="252.65" y2="346.44"/><line class="cls-33" x1="246.64" y1="323.17" x2="246.64" y2="347.19"/><line class="cls-33" x1="251.15" y1="322.42" x2="251.15" y2="346.44"/><line class="cls-33" x1="249.65" y1="322.42" x2="249.65" y2="346.44"/><line class="cls-33" x1="248.14" y1="323.17" x2="248.14" y2="346.82"/><line class="cls-33" x1="245.14" y1="323.17" x2="245.14" y2="347.19"/><line class="cls-33" x1="288.69" y1="319.41" x2="288.69" y2="343.44"/><line class="cls-33" x1="282.68" y1="323.92" x2="282.68" y2="347.94"/><line class="cls-33" x1="287.19" y1="320.92" x2="287.19" y2="344.94"/><line class="cls-33" x1="285.68" y1="321.67" x2="285.68" y2="345.69"/><line class="cls-33" x1="284.18" y1="322.42" x2="284.18" y2="346.44"/><line class="cls-33" x1="281.18" y1="324.67" x2="281.18" y2="348.7"/><line class="cls-33" x1="213.61" y1="315.66" x2="213.61" y2="339.69"/><line class="cls-33" x1="215.11" y1="317.16" x2="215.11" y2="341.19"/><line class="cls-33" x1="204.6" y1="304.4" x2="204.6" y2="328.42"/><line class="cls-33" x1="210.6" y1="311.91" x2="210.6" y2="335.93"/><line class="cls-33" x1="206.1" y1="305.9" x2="206.1" y2="329.93"/><line class="cls-33" x1="207.6" y1="308.9" x2="207.6" y2="332.93"/><line class="cls-33" x1="209.1" y1="310.4" x2="209.1" y2="334.43"/><line class="cls-33" x1="212.1" y1="314.16" x2="212.1" y2="338.18"/><line class="cls-33" x1="296.2" y1="310.4" x2="296.2" y2="334.43"/><line class="cls-33" x1="290.19" y1="317.91" x2="290.19" y2="341.94"/><line class="cls-33" x1="294.69" y1="312.66" x2="294.69" y2="336.68"/><line class="cls-33" x1="293.19" y1="314.91" x2="293.19" y2="338.93"/><line class="cls-33" x1="291.69" y1="316.41" x2="291.69" y2="340.44"/><line class="cls-33" x1="303.7" y1="302.15" x2="303.7" y2="326.17"/><line class="cls-33" x1="297.7" y1="309.65" x2="297.7" y2="333.68"/><line class="cls-33" x1="302.2" y1="304.4" x2="302.2" y2="328.42"/><line class="cls-33" x1="300.7" y1="306.65" x2="300.7" y2="330.68"/><line class="cls-33" x1="299.2" y1="308.15" x2="299.2" y2="332.18"/><line class="cls-33" x1="197.09" y1="292.38" x2="197.09" y2="316.41"/><line class="cls-33" x1="203.1" y1="301.39" x2="203.1" y2="325.42"/><line class="cls-33" x1="198.59" y1="294.64" x2="198.59" y2="318.66"/><line class="cls-33" x1="200.09" y1="297.64" x2="200.09" y2="321.67"/><line class="cls-33" x1="201.59" y1="299.89" x2="201.59" y2="323.92"/><line class="cls-33" x1="195.59" y1="289.38" x2="195.59" y2="313.41"/><line class="cls-33" x1="194.09" y1="287.88" x2="194.09" y2="311.91"/><line class="cls-33" x1="311.21" y1="292.38" x2="311.21" y2="316.41"/><line class="cls-33" x1="305.21" y1="299.89" x2="305.21" y2="323.92"/><line class="cls-33" x1="309.71" y1="293.89" x2="309.71" y2="317.91"/><line class="cls-33" x1="308.21" y1="296.89" x2="308.21" y2="320.92"/><line class="cls-33" x1="306.71" y1="298.39" x2="306.71" y2="322.42"/><line class="cls-33" x1="312.71" y1="289.38" x2="312.71" y2="313.41"/><path class="cls-39" d="M255.92,285.21c.21,2.25-4.47,1-10.52,1.54s-11.16,2.76-11.38.51,4.52-4.55,10.57-5.11S255.71,283,255.92,285.21Z"/><path class="cls-40" d="M247.17,283.75c.16.92-2.25.57-5.24,1.09s-5.43,1.69-5.58.77,2.21-2.48,5.2-3S247,282.83,247.17,283.75Z"/></g><g id="hatten"><polygon class="cls-41" points="329.61 227.55 329.61 227.55 317.81 242.08 189.36 240.84 179.44 232.8 179.44 214.78 244.01 193.76 329.3 212.77 329.61 227.55"/><path class="cls-42" d="M329.61,208c-1.08-9.7-32.07-22.9-80-22.9s-69.45,15.39-72.46,25.15c-1.26,4.09,1.76,7.12,3,8.26,5.37,4.94,31.89-14.16,71-14.64C299.45,203.3,331.88,228.47,329.61,208Z"/><path class="cls-43" d="M324,248.2c1.33-4.13-27.59-22.7-71.33-21.78-46.41,1-70,16.13-69.08,20.27,6.39,27.41,21.52-3.48,69.83-4.5C299.76,241.21,316.09,272.6,324,248.2Z"/><path class="cls-44" d="M246.13,232.3c1.07,4-12.42,3.32-27.74,7.43s-26.66,11.43-27.74,7.43,10.48-10.58,25.8-14.69S245.06,228.29,246.13,232.3Z"/><path class="cls-45" d="M324.35,205c1.92,14.9-44-4.34-73.58-5.25-28.43-.88-68,17.76-69.82,9.1-2.18-10.14,38.58-22.77,69.07-22.62C278.33,186.39,322.9,193.72,324.35,205Z"/></g><g id="søns_hoved" data-name="søns hoved"><path class="cls-46" d="M488.21,550.66c.66,10.34-4,17.56,6.35,16.9s18.37-18.63,17.7-29-4-13.29-14.35-12.63S487.55,540.31,488.21,550.66Z"/><path class="cls-46" d="M378.92,547.65c-.66,10.35,4,17.56-6.35,16.9s-18.37-18.62-17.7-29,4-13.28,14.35-12.62S379.58,537.31,378.92,547.65Z"/><path class="cls-47" d="M468.51,592H400.18c-4.95,0-23.27-13.52-25.52-18l-3-69.08c0-4.95,12-17.26,17.27-19.52,6.57-3.92,20.14-9.79,39.79-10.51a85.52,85.52,0,0,1,39.8,8.26,58.64,58.64,0,0,1,15,9.41c4.9,4.23,9.77,8.61,10.58,14.29.11.82.68,1.51.64,2.34-1,24.28-2.71,44.21-3.7,68.56C491,582.65,473.46,592,468.51,592Z"/><g id="øje1"><path class="cls-48" d="M418.58,541.28c0,7.05-6.9,12.76-17.27,12.76S384,547.58,384,540.53,390.94,527,401.31,527,418.58,534.23,418.58,541.28Z"/><ellipse cx="398.68" cy="538.28" rx="9.76" ry="8.63"/><circle class="cls-22" cx="402.81" cy="534.52" r="2.63"/><path class="cls-49" d="M418.58,541.28c-2.63-8.63-28.16-13.89-34.54-.75,0-7,6.9-13.52,17.27-13.52S418.58,534.23,418.58,541.28Z"/></g><g id="øje2"><path class="cls-48" d="M480.9,542c0,7.05-6.91,12.76-17.27,12.76s-17.27-6.46-17.27-13.51,6.9-13.52,17.27-13.52S480.9,535,480.9,542Z"/><ellipse cx="461" cy="539.03" rx="9.76" ry="8.63"/><circle class="cls-22" cx="465.13" cy="535.27" r="2.63"/><path class="cls-49" d="M480.9,542c-2.63-8.63-28.16-13.89-34.54-.75,0-7,6.9-13.52,17.27-13.52S480.9,535,480.9,542Z"/></g><path class="cls-33" d="M416.7,561.93c4.51-3,8.24,1,7.83,3.27s-3.89,3.48-7.76,2.77"/><path class="cls-33" d="M438.48,551.42l-4.57-3.56a3.75,3.75,0,0,0-4.46-.11l-5.24,3.67"/><path class="cls-50" d="M494.41,506.74c-22.52-24-25.74,17.27-61.19,17.27S372,521.18,372,507.49s25.74-33,61.19-33S494.41,493.06,494.41,506.74Z"/></g><g id="sweater"><rect class="cls-51" x="228.25" y="358.46" width="48.8" height="23.28" rx="11.64"/><path class="cls-51" d="M230.33,378.46l-41.88,19.79-3,4.5-14.26,45.8-3.76.75-2.25,1.51v4.5l2.25,2.25-3.75.75-2.26,3.76,2.26,3.75-6.76,2.26-1.5,2.25v4.5l3.75,2.25a29.41,29.41,0,0,1,7.51,0c12,1.6,19.4,10.43,21.77,13.52l4.51-1.5v-7.51l4.5-3,.75-5.26-2.25-1.5.75-3.75,1.5-1.51v-2.25l-2.25-.75,3-1.5,1.5-3-1.5-3.76,8.25-22.52,2.26-.75v5.25L207.22,540.9l5.26,5.26.75,3,10.51,1.5,28.53,3,15-4.51,9.76-.75,1.5-2.25,4.51-3,3.75-3V432.79l1.5-2.26,3.76.76,3,3.75,4.5,9,1.51,2.25,1.5,5.26,3.75,3-.75,2.25.75,2.26,3.76,2.25,3.75-.75-2.25,3.75.75,3,3.75,1.51,4.51-3,10.51-3.75,3.75-2.25,8.26-3.76-1.5-4.5,1.5-4.51-3-3-3.76.75.76-2.25-1.51-3.76h-3l-18.77-39s.43-3.69-7.51-8.26L275.55,378"/></g><g id="fisker_bukser" data-name="fisker bukser"><path class="cls-52" d="M215.86,547.66a168.61,168.61,0,0,0,29.28,2.25,173.1,173.1,0,0,0,34.16-3.75l3,22.9v21.77l-1.51,22.53-3,60.81,2.25,42.8.75,19.52-.75,25.9,2.26,6.39-23.28.75.75-21V723l-1.5-40.55-3-29.28-3.76-57.06-2.25-1.5-2.25,1.5-5.26,60.44-2.25,26.28L241,729l1.5,28.53v11.27c-.24.42-21.87,1.38-23.27.37V729l-1.5-54.81-3-86.34-1.5-22.52Z"/><path class="cls-52" d="M277.43,783h-15a7.53,7.53,0,0,1-7.51-7.51h0c0-4.13-.37-7.5,3.76-7.5l23.27.75c4.13,0,3,2.62,3,6.75h0A7.52,7.52,0,0,1,277.43,783Z"/><rect class="cls-52" x="216.61" y="765.77" width="27.03" height="14.27" rx="7.13"/><path class="cls-53" d="M252.65,588.58a3.76,3.76,0,0,1-3.76,3.75h0a3.76,3.76,0,0,1-3.75-3.75V562.3"/><path class="cls-53" d="M226.75,558.92a9.5,9.5,0,0,1-1.51,7.51,9.65,9.65,0,0,1-7.5,3.76"/><path class="cls-53" d="M263.76,558.17a9.48,9.48,0,0,0,1.5,7.51,9.6,9.6,0,0,0,7.51,3.75"/><rect class="cls-52" x="256.78" y="768.4" width="15.02" height="6.01" rx="3"/><rect class="cls-52" x="217.74" y="766.15" width="15.02" height="6.01" rx="3"/><rect class="cls-52" x="219.99" y="766.9" width="5.26" height="1.5" rx="0.75"/><rect class="cls-52" x="258.28" y="769.15" width="5.26" height="1.5" rx="0.75"/></g><g id="fisker_arm2" data-name="fisker arm2"><polyline class="cls-28" points="95.27 459.93 76.96 457.94 74.33 461.32 74.33 465.07 76.96 466.95 74.33 468.83 73.2 472.95 75.65 474.59 77.71 475.96 75.83 477.84 75.46 481.96 77.6 483.04 79.96 484.22 78.83 486.85 79.96 489.47 82.97 489.47 97.98 487.97 100.98 486.47 100.98 483.47 103.24 483.47 105.11 482.34 106.24 480.46 105.86 477.84 103.99 476.71 105.49 475.96 106.99 474.46 106.99 472.95 106.24 471.45 106.99 470.7 107.74 469.2 107.74 467.7 106.99 466.2 105.49 464.7 102.51 463.56"/><polygon class="cls-28" points="165.93 476.33 162.55 484.22 155.04 484.22 137.77 478.21 127.26 472.95 127.26 464.7 121.63 459.82 103.24 454.94 98.73 454.94 91.97 464.7 91.6 469.58 94.6 471.08 97.98 469.95 103.24 461.69 109.99 466.2 119 469.95 119.38 477.08 119.38 493.6 124.26 483.47 165.55 503.74 172.31 508.99 175.69 509.37 177.19 505.62 173.44 499.61 179.44 480.84 165.93 476.33"/><path class="cls-38" d="M98.17,455.49c-2,2.95-10,11.67-6.11,15.59,1.36,1.36,3.37.95,4.71-.22,2.57-2.25,4.57-5.75,6.66-8.44,1.18-1.51-.93-3.65-2.12-2.13l-3.84,4.95c-.58.74-2.73,4.21-3.11,2.36-.3-1.53,1.89-4,2.7-5.19l3.7-5.41c1.09-1.59-1.51-3.1-2.59-1.51Z"/><path class="cls-38" d="M95.17,471.85a7.09,7.09,0,0,0,4.37-3.08c1.32-1.83,2.39-4.29,4.11-5.76,1.47-1.25-.66-3.37-2.12-2.12-2.69,2.29-3.46,7.15-7.16,8.07-1.87.46-1.08,3.35.8,2.89Z"/><path class="cls-28" d="M101.61,455.22A5,5,0,0,0,99,455c-.93.37-1.59,1.66-2.15,2.41A43.36,43.36,0,0,0,93,464.1c-.86,1.71,1.64,3.21,2.59,1.51a14.09,14.09,0,0,1,3.07-4.14,11,11,0,0,0,2.85-3.71c.88-1.71-1.71-3.23-2.59-1.51a10.86,10.86,0,0,1-1.25,2.07c-.54.65-1.27,1.07-1.85,1.68A21,21,0,0,0,93,464.1l2.59,1.51c1.36-2.71,2.66-6.07,5-8.16l-1.06.44a7.23,7.23,0,0,1,1.3.23c1.88.37,2.69-2.52.79-2.9Z"/><path class="cls-28" d="M102.72,458.41a8.59,8.59,0,0,0-4.3,3.5c-.71,1-1.37,2-2.13,2.89-.59.71-2.05,2.72-3,2.78l1.07.44c-.24-.31.75-2.51.89-2.81a12.48,12.48,0,0,1,.92-1.68,13.69,13.69,0,0,1,3.22-3.4c1.52-1.18-.61-3.29-2.12-2.12a15.77,15.77,0,0,0-4.87,6.27c-.69,1.62-1.91,4.89.14,6.09,1.88,1.11,4.42-1.76,5.46-2.93,1.65-1.87,3.07-5.35,5.55-6.14,1.83-.58,1-3.48-.8-2.89Z"/><path class="cls-28" d="M105.36,459.91c-1.37-2.57-4-.24-5.33,1.07-1,1-1.75,2.17-2.66,3.24a14.23,14.23,0,0,1-3.27,2.61l1.15-.15-.15,0c-1.89-.31-2.7,2.58-.8,2.89,1.69.28,3.76-1.61,4.83-2.79.76-.83,1.38-1.76,2.09-2.63a20,20,0,0,1,2.26-2.36l-.9-.69.18.34c.91,1.71,3.5.19,2.6-1.51Z"/></g><rect id="søns_hals" data-name="søns hals" class="cls-47" x="423.46" y="582.2" width="18.02" height="36.79" rx="9.01"/><path id="søns_overkrop" data-name="søns overkrop" class="cls-47" d="M444.11,673.8H420.83c-1.5-21.78-14.26-39-16.52-59.32,5.44,0,19.8-2.58,23.28-6.75,3.75-4.51,8.68-3.26,12,.75,3.76,4.5,15.15,6,21,6C460.62,634.76,444.11,653.53,444.11,673.8Z"/><g id="søns_arm1" data-name="søns arm1"><path class="cls-47" d="M380.46,650.42h0c1.92,1.55,4.59,1.47,5.91-.18L398,635.81l12-14.94c1.32-1.65.83-4.27-1.09-5.82h0c-1.93-1.55-4.59-1.47-5.91.18l-12.11,15L379.37,644.6C378.05,646.25,378.53,648.87,380.46,650.42Z"/><rect class="cls-47" x="357.16" y="640.01" width="30.69" height="6.32" rx="3.16" transform="translate(371.49 -100.08) rotate(30)"/><path class="cls-49" d="M358.14,624.24c0,.21,4.61,9.63,4.5,9.76-.34.42-1.1,6.5-3,5.26-.56-.36-6.76,1.5-9,1.5-4.92,0,.93-15.76-.75-15.76h-7.51c-.74,0-1.24-2.48,0-3,1.52-.64,5-.75,7.51-.75C354.44,621.24,358.14,622.59,358.14,624.24Z"/></g><g id="net"><path class="cls-54" d="M285,544.82c-4.3,2.94-5.51,12.67-6.35,19.41-.61,4.92-.91,7.39-.18,10.51,2.16,9.17,9.11,8.5,12.46,18.24,2.21,6.43,2,14.94,2,15.8-.1,3.49-.49,4-.1,6,1.18,6.28,5.76,6.87,7.28,12.89.54,2.11.3,4.66-.16,9.76-.55,6-1.35,6.27-.9,8.24,1.17,5.07,7.94,9.82,14.86,9.27a14.18,14.18,0,0,0,11.39-7.32c1.81-3.57,1.3-7.12.92-9.74-1-6.8-4.1-7.47-4.28-12.84-.21-5.82,3.27-10.33,3.94-11.2,3-3.93,5.44-3.64,9.14-7.35a28.74,28.74,0,0,0,6.2-11.16C346.48,577.66,297.44,536.26,285,544.82Z"/><line class="cls-55" x1="334.45" y1="581.51" x2="405.06" y2="814.58"/><path class="cls-56" d="M345.78,589.68c-8,10-27.81,7.32-44.16-5.89-11.8-9.52-22.2-27.28-16.94-38.91a11,11,0,0,1,1.88-3c7.9-9,30.73-5,44.17,5.88C347.08,561,353.82,579.72,345.78,589.68Z"/></g><path id="overhånd" class="cls-47" d="M349.88,640.76c-5.39,0-9.76-3.7-9.76-8.26s4.37-8.26,9.76-8.26S355.27,640.76,349.88,640.76Z"/><g id="badebukser"><polygon class="cls-57" points="467.76 722.6 433.22 725.6 430.97 718.85 427.96 725.6 394.93 720.35 419.7 673.8 443.73 673.8 467.76 722.6"/><circle cx="426.46" cy="680.56" r="1.5"/><circle cx="437.72" cy="680.56" r="1.5"/><path class="cls-33" d="M426.09,682.43s.2,1.2.39,2.36a3.52,3.52,0,0,1-1.33,3.54,6.52,6.52,0,0,0-2.07,2.36c-.75,3,1.81,4.84,1.51,6.76-.21,1.31-1.3,2.45-1.51,3.75"/><path class="cls-33" d="M438.07,682.38l.95,2.2a3.51,3.51,0,0,1-.45,3.75,6.51,6.51,0,0,0-1.44,2.79c0,3.1,2.91,4.26,3.07,6.2.11,1.32-.67,2.69-.56,4"/></g><g id="sønsben"><path class="cls-47" d="M423.62,796.18h0a3.76,3.76,0,0,0,3.59-3.91l-2.76-68.17a28.17,28.17,0,0,1-7.51-.75l2.77,69.24A3.76,3.76,0,0,0,423.62,796.18Z"/><g id="sønsben-2" data-name="sønsben"><path class="cls-47" d="M437.8,796.93h0a3.75,3.75,0,0,1-3.59-3.9L437,724.85a28.17,28.17,0,0,0,7.51-.75l-2.77,69.24A3.75,3.75,0,0,1,437.8,796.93Z"/></g></g><g id="søns_sko" data-name="søns sko"><path class="cls-17" d="M410.15,791.07q.14,10.95.26,21.89L405.79,814l-8.57,3c-4.94-.45-12.74-.87-13.19,4.07l-.82,9c-.45,4.94-.53,9,4.41,9.45l19.44,1.78c.47.05,5.25-4.79,5.71-4.75l3.74.34c1,.07,1,5.37,3,5.47.5,0,4.87.57,6.34-.09a3.05,3.05,0,0,0,1.7-2.11c.27-3,.48-5.31.55-6l1.8-44.32c.53-4-.72-8-3.6-10.13,8.69,12.11-14.35,16.78-15.5,4.61A10.3,10.3,0,0,0,410.15,791.07Z"/><rect class="cls-18" x="386.35" y="818" width="9.76" height="5.26" rx="2.63" transform="translate(-65.32 34.46) rotate(-4.66)"/><rect class="cls-58" x="387.22" y="818.55" width="3.75" height="1.5" rx="0.75" transform="translate(-97.7 54) rotate(-7.06)"/><path class="cls-17" d="M450.47,790.4q.19,11,.41,21.89l4.65.94,8.65,2.73c4.92-.6,12.71-1.25,13.31,3.67l1.09,8.94c.6,4.92.8,9-4.12,9.58l-19.38,2.37c-.46.06-5.39-4.64-5.85-4.58l-3.73.46c-1,.1-.85,5.39-2.8,5.55-.5,0-4.85.72-6.34.1a3.08,3.08,0,0,1-1.76-2c-.37-3-.64-5.3-.73-6l-3.14-44.25c-.66-4,.47-8,3.28-10.23-8.32,12.36,14.86,16.33,15.64,4.14A10.35,10.35,0,0,1,450.47,790.4Z"/><line class="cls-47" x1="441.48" y1="828.38" x2="441.48" y2="831.2"/><rect class="cls-18" x="465.39" y="816.75" width="9.76" height="5.26" rx="2.63" transform="translate(898.24 1661.62) rotate(-177.08)"/><rect class="cls-58" x="470.5" y="817.23" width="3.75" height="1.5" rx="0.75" transform="translate(866.9 1676.22) rotate(-174.68)"/></g><g id="søns_arm1-2" data-name="søns arm1"><path class="cls-47" d="M485.31,650.42h0c-1.93,1.55-4.59,1.47-5.92-.18l-11.61-14.43-12-14.94c-1.33-1.65-.84-4.27,1.09-5.82h0c1.92-1.55,4.58-1.47,5.91.18l12.11,15,11.54,14.34C487.72,646.25,487.23,648.87,485.31,650.42Z"/><rect class="cls-47" x="480.17" y="648.27" width="30.69" height="6.32" rx="3.16" transform="translate(849.05 1389.6) rotate(-168.33)"/><path class="cls-49" d="M512.53,643.05c-.06.2-6.87,8.17-6.8,8.33.23.49-.54,6.57,1.61,5.84.63-.22,6.17,3.13,8.35,3.69,4.77,1.23,3-15.5,4.65-15.08l7.27,1.87c.72.18,1.81-2.09.75-2.91-1.31-1-4.66-2-7.09-2.6C516.85,641.06,512.94,641.44,512.53,643.05Z"/></g><g id="dykkerbriller"><polyline class="cls-58" points="500.44 605.75 516.33 687.21 545.95 683.23 549.2 677.96 551.67 667.71 527.05 673.28 515.47 610.52"/><ellipse cx="507.85" cy="608.49" rx="3.38" ry="7.88" transform="translate(-225.83 908.31) rotate(-72.38)"/><path class="cls-58" d="M546.79,675.62c-3.76,11.85,3,23,8,24.58s1.17-8.64,4.93-20.49,12.48-19.67,7.54-21.24S550.56,663.76,546.79,675.62Z"/><path d="M549.17,675.55c-2.83,8.91,2.26,17.3,6,18.47s.87-6.48,3.7-15.39,9.38-14.78,5.66-16S552,666.64,549.17,675.55Z"/><path class="cls-59" d="M523.09,669.87c15.28,12.66,22.5,29.15,16.13,36.84-6,7.28-18.39,6.57-33.13-4.63-.83-.63,1.36-11,.55-11.65s-3.56-3-4.33-3.73-10.82,2.62-11.61,1.82c-11.68-11.66-12.45-20.84-6.81-27.65C490.26,653.18,507.81,657.21,523.09,669.87Z"/></g><path class="cls-47" d="M514.77,662.35c5.22,1.34,10.37-1.15,11.51-5.57s-2.18-9.09-7.4-10.43S509.55,661,514.77,662.35Z"/><path class="cls-60" d="M94.42,619.63c-2.87,10.71-7.18,18.29-2.87,19.44s13.25-6,16.12-16.67-2.39-23.18-6.7-24.33S97.29,608.91,94.42,619.63Z"/><g id="flaske-2" data-name="flaske"><rect class="cls-26" x="58.72" y="626.45" width="79.47" height="31.64" rx="12" transform="translate(269.45 15.4) rotate(23.97)"/><rect class="cls-16" x="136.41" y="654.73" width="12.07" height="13.46" transform="translate(281.05 -0.82) rotate(23.97)"/><rect class="cls-22" x="134.66" y="650.45" width="2.23" height="16.83" transform="translate(279.42 1.67) rotate(23.97)"/></g><path class="cls-61" d="M109.8,682.32c3.52,10.52,8.28,17.81,4.06,19.22s-13.6-5.13-17.12-15.65,1-23.28,5.2-24.69S106.28,671.8,109.8,682.32Z"/><line class="cls-33" x1="90.75" y1="532.84" x2="110.63" y2="535.81"/><line class="cls-33" x1="91.08" y1="536.18" x2="110.53" y2="538.18"/><line class="cls-33" x1="90.73" y1="539.25" x2="111.12" y2="540.82"/><g id="snor"><line class="cls-33" x1="100.23" y1="540.15" x2="101.74" y2="661.03"/><line class="cls-33" x1="101.74" y1="626.87" x2="91.22" y2="656.99"/><line class="cls-33" x1="99.68" y1="625.75" x2="89.9" y2="656.15"/></g><path class="cls-61" d="M111.36,638.58c2.56,10.79,6.65,18.49,2.31,19.51S100.59,651.76,98,641s3.06-23.11,7.4-24.13S108.8,627.79,111.36,638.58Z"/><path class="cls-62" d="M112.84,663.5c3.59,10.5,8.41,17.76,4.19,19.2s-13.63-5-17.22-15.53.8-23.29,5-24.73S109.25,653,112.84,663.5Z"/><path class="cls-60" d="M93.67,657.4c-2.46,10.82-6.49,18.55-2.14,19.54s13-6.45,15.48-17.27-3.26-23.07-7.61-24.06S96.13,646.59,93.67,657.4Z"/><path class="cls-51" d="M459,516.7c-.05-.49,4.44-2.24,9.45-1.72,7.66.8,17.48,8.78,16.76,10.75-.31.85-3-.54-4.29-.86-2.46-.6-3.26-3.22-6-5.16-1.28-.9-6.88-1.72-11.17-.86C458.68,519.86,459,517.08,459,516.7Z"/></g><g id="Layer_1" data-name="Layer 1"><g id="brændmand" class="cls-63"><g id="brændmandhoved"><path class="cls-64" d="M1100.25,252.42c-11.54,12.06-9.21,37.34.53,46.65s25.16,1.35,36.7-10.71,20.73-29.81,11-39.12S1111.78,240.36,1100.25,252.42Z"/><ellipse class="cls-65" cx="1127.16" cy="277.49" rx="29.42" ry="14.36" transform="translate(101.1 820.34) rotate(-41.71)"/></g><path class="cls-66" d="M1122.84,286.26c14.8,34.93,18.56,49,18.65,54.75,0,.87,0,6.2.81,6.29.51.06,1.33-2,1.66-3.89.8-4.58-1.08-8.77-1.69-14.48-.07-.64-.2-2,.51-2.56a2,2,0,0,1,1.79-.1c4.33,1.59,4.28,22.75,3.3,26.43a3.94,3.94,0,0,0,.09,2.53c.23.52.74,1.24,1.24,1.2.91-.06,1.43-2.69,1.66-3.89a39.35,39.35,0,0,0,.14-13.31c-.09,0,.61,5.2,3.17,22.64a2.23,2.23,0,0,0,.62.6,2,2,0,0,0,2.39-.13,2.28,2.28,0,0,0,.53-1.93l-2.64-16c-.15-1.68.41-3,1.08-3.23s2.07.91,2.5,3a42.18,42.18,0,0,0,3,16.95,39.55,39.55,0,0,0,5.73,9.83l1.21.57a1.44,1.44,0,0,0,1.2-.07c.88-.51,1-2.17.48-3.19a2.75,2.75,0,0,0-1.23-1.2c-3.26-1.72-5.71-12.42-5.84-13a47.78,47.78,0,0,1-1-12.62c.11-3.11.38-2.82.42-5.09.15-7.7-2.75-16.25-6.56-16.75-1.37-.18-2.16.77-3,.16-1.31-1-.16-4-.26-7.59-.08-2.8-.88-4.73-2.7-8.72-2.29-5-7-15.2-13.54-28.42Z"/><path class="cls-67" d="M1135.47,275.17c7.07,14.16,16.16,19,22.23,21.73a119.77,119.77,0,0,1,12.86,6.5c4.61,2.61,12.61,7.14,16.77,16.28,4,8.82,4.27,17.95,3.25,29.79-.06.77-1.24,10.12-1.28,10.56.24,1.77.57,2.93,2.72,3,4.11.19,5.86-22.36,4.85-30-.58-4.34-1.8-12.83-7.59-20.95-6.07-8.51-13.75-14-24.66-17.7-9.87-3.37-15.4-6.15-20.71-13.82a49.17,49.17,0,0,1-4.29-8.64Z"/><path class="cls-68" d="M1123.27,287.42c6.3,14.46,4.39,25.11,2.77,31.94a145.08,145.08,0,0,0-2.93,14.87c-.84,5.5-2.3,15,2,24,4.16,8.68,10.83,14.32,20.3,20.5.62.4,1.42,1,1.78,1.26,1.17,1.26,1.15,2.52-.08,4.42-2.34,3.64-12.67-4.65-17.78-10.07a42.74,42.74,0,0,1-11.06-18.94c-2.68-10.26-2.12-20.08,1.71-31.64,3.46-10.44,4.73-16.83,2.21-25.94a30.39,30.39,0,0,0-2.87-6.95Z"/><path class="cls-69" d="M1128.66,281.51c4.13,15.62,12.68,36.63,17.46,41.41a124.33,124.33,0,0,1,9.93,10.75c3.47,4.11,8.91,11.18,10.45,21.2s-1.86,18.63-6.67,29.44c-.31.7-.66,1.71-.85,2.11-.34,1.75-9,15.87-7,16.74,3.79,1.66,17.51-24.5,19-32.08.87-4.3,2.48-12.74-.3-22.47-2.92-10.21-8.33-18.12-17.35-25.55-8.14-6.73-8.77-12-13.28-21.26-1.38-2.84-7.93-21.22-8-23Z"/><ellipse class="cls-70" cx="1117.34" cy="276.51" rx="6.64" ry="5.05" transform="translate(131.74 871.07) rotate(-45)"/><ellipse class="cls-71" cx="1130.6" cy="266.44" rx="6.64" ry="5.05" transform="translate(-15.11 457.7) rotate(-22.74)"/><path class="cls-72" d="M1126.22,290.15c-2.6,2.6-6.3,3.1-8.27,1.13s-1.47-5.68,1.12-8.27,6.3-3.1,8.27-1.13S1128.81,287.56,1126.22,290.15Z"/><path class="cls-73" d="M1114.08,284.87c5.07,19,1.74,28.75-2.42,34.11-3.92,5.06-7.83,5.27-11.58,11.76-.3.52-7.07,12.71-1.84,25.05,2.48,5.84,8.82,14.48,17.35,16.59,2,.51,5.51,1,6.55,3.37.79,1.84-.24,3.9-1.28,5.9-5.77,11.12-8,13.16-8.9,17.2a18.22,18.22,0,0,0,1.43,11.87c4,7.85,16.1,11.68,29.68,9"/><path class="cls-73" d="M1136.56,275c13.91,2.1,19.65,7.18,22.26,11.66,4,6.95,1,13.2,7.42,22.8,3.6,5.37,7.29,7.5,9.54,8.48,2.47,1.07,3.88,1,6.89,1.59,7.1,1.29,14.47,2.63,18,7.42,2.25,3,2.21,7.85,2.12,17.49,0,2.23-1.36,5.37-.53,9.54.41,2.08.75,3.82,2.12,5.3,2.53,2.75,5.94,1.72,12.19,3.18,5,1.18,6.45,2.22,7.42,3.71,2,3.1-.49,6-1.59,16.44-.56,5.3.08,7,.53,7.95,2.14,4.4,7.37,5.88,9.54,6.36"/><ellipse class="cls-74" cx="1136.96" cy="276.51" rx="6.64" ry="5.05" transform="translate(-33.14 277.39) rotate(-13.71)"/><rect class="cls-68" x="1149.88" y="381.23" width="5.68" height="10.6" rx="2.84" transform="translate(281.28 1234.34) rotate(-62.75)"/><rect class="cls-67" x="1187.34" y="364.16" width="5.15" height="8.55" rx="2.57" transform="translate(96.09 -227.54) rotate(11.38)"/><rect class="cls-67" x="1184.53" y="373.81" width="5.3" height="13.25" rx="2.65" transform="translate(120.27 -264.42) rotate(13.38)"/></g><g id="brændmandhoved-2" data-name="brændmandhoved"><path class="cls-64" d="M1212.16,218.51c-26.05,33.8-13.25,97.44,14,118.47s64.36-3.41,90.41-37.2,44.63-81.43,17.36-102.46S1238.21,184.72,1212.16,218.51Z"/><ellipse class="cls-65" cx="1287.39" cy="274.94" rx="75.23" ry="36.72" transform="translate(219.09 1044.15) rotate(-47.81)"/></g><path class="cls-66" d="M1278.8,298.41c47.13,84.79,60.51,119.52,62.28,134.14.27,2.23,1.7,15.76,3.78,15.77,1.31,0,2.84-5.33,3.17-10.34.79-11.87-5.14-22-8.25-36.35-.34-1.61-1-5,.61-6.66,1.49-1.49,4.19-.81,4.53-.73,11.44,2.88,17.06,56.69,15.58,66.31a10.1,10.1,0,0,0,.91,6.41c.72,1.25,2.21,2.94,3.48,2.71,2.3-.41,2.9-7.23,3.16-10.34,1.43-17.21-3-34-3.26-33.88s3,13.05,14.22,56.69a5.44,5.44,0,0,0,1.74,1.36c1.66.8,4.42,1,6-1s.88-4.87.83-5l-11.08-40c-.82-4.23.21-7.84,1.88-8.5,1.85-.73,5.49,1.75,7.18,7a107.54,107.54,0,0,0,12.18,42.27A100.86,100.86,0,0,0,1415,501.73l3.25,1.11a3.7,3.7,0,0,0,3-.48c2.12-1.54,1.92-5.8.37-8.26a6.92,6.92,0,0,0-3.47-2.71c-8.76-3.48-17.88-30-18.36-31.45a121.64,121.64,0,0,1-6.06-31.79c-.55-7.95.19-7.28-.31-13.06-1.7-19.64-11.41-40.58-21.24-40.82-3.53-.08-5.27,2.56-7.55,1.22-3.6-2.12-1.49-10.08-2.72-19.22-1-7.11-3.53-11.79-9.23-21.45-7.19-12.2-22-36.73-42.16-68.57Z"/><path class="cls-67" d="M1307.91,266.79c21.8,34.07,46.24,43.83,62.41,49.2a311,311,0,0,1,34.47,13c12.43,5.38,34,14.72,47.07,36.83,12.62,21.34,15.74,44.48,16.36,74.88,0,2-.4,26.07-.4,27.19,1.1,4.43,2.25,7.31,7.74,7,10.52-.62,8.84-58.44,4.18-77.62-2.64-10.88-8-32.12-25-51.19-17.75-20-38.75-31.8-67.51-38.32-26-5.88-40.83-11.45-56.41-29.52-5.25-6.08-11.21-16.74-13.25-20.78Z"/><path class="cls-68" d="M1280.21,301.24c20,35.06,18,62.65,15.73,80.46a364.06,364.06,0,0,0-3.42,38.61c-.65,14.21-1.77,38.87,11.63,60.57,12.94,21,31.43,33.49,57.2,46.61,1.67.85,3.89,2.26,4.85,2.72,3.33,2.89,3.62,6.11,1,11.28-5,9.89-33.5-8.39-48-20.77-8.2-7-24.1-21-33.27-45.17-9.61-25.36-10.84-50.48-4.25-80.9,6-27.51,7.46-44.1-1.41-66.57a78.59,78.59,0,0,0-9.21-16.89Z"/><path class="cls-69" d="M1292.31,284.75c14.74,38.59,42.19,89.69,55.65,100.54a327.39,327.39,0,0,1,28.17,24.64c9.94,9.52,25.69,26,32.32,51.07s.33,47.88-9,76.66c-.6,1.87-1.22,4.55-1.58,5.6-.4,4.56-18.46,42.8-13.19,44.47,10.09,3.19,37.87-67.06,39.72-86.74,1-11.18,2.87-33.07-6.86-57.07-10.2-25.16-26.11-43.8-51-60.26C1344,368.79,1341,355.55,1327,333.23c-4.29-6.85-25.92-51.81-26.53-56.34Z"/><ellipse class="cls-75" cx="1262.18" cy="275.11" rx="16.99" ry="12.92" transform="translate(255.45 1084.6) rotate(-51.1)"/><ellipse class="cls-76" cx="1293.14" cy="245.9" rx="16.99" ry="12.92" transform="translate(41.75 654.18) rotate(-28.84)"/><path class="cls-77" d="M1288.45,307.39c-5.89,7.3-15.17,9.58-20.72,5.1s-5.28-14,.61-21.33,15.17-9.58,20.72-5.1S1294.34,300.09,1288.45,307.39Z"/><path class="cls-73" d="M1256.16,297.26c18,47,12.22,72.61,3.11,87.37-8.61,14-18.48,15.55-26.24,33.07-.63,1.41-14.55,34.23,2.11,64.19,7.89,14.17,26.36,34.42,48.61,37.47,5.34.73,14.27.93,17.57,6.77,2.52,4.48.46,10-1.64,15.37-11.66,29.84-16.66,35.62-18,46.15a46.34,46.34,0,0,0,6.87,29.78c12.41,18.86,44.1,25.34,77.91,14.9"/><path class="cls-73" d="M1310.61,265.93c35.94,1.57,51.92,12.92,59.77,23.61,12.18,16.57,6.11,33.28,25.06,55.94,10.61,12.67,20.59,17.1,26.57,19,6.56,2.05,10.13,1.59,18,2.17,18.41,1.36,37.49,2.77,47.84,14,6.56,7.11,7.76,19.37,10.15,43.91.55,5.66-2,14,1.24,24.4,1.6,5.16,3,9.51,6.83,12.9,7.19,6.29,15.59,2.75,31.86,4.78,13,1.62,17,3.88,19.88,7.42,5.93,7.31.38,15.32.42,42.21,0,13.64,2.12,17.85,3.51,20.07,6.63,10.61,20.34,13,26,13.59"/><ellipse class="cls-78" cx="1312.05" cy="269.78" rx="16.99" ry="12.92" transform="translate(-13.78 460.63) rotate(-19.81)"/><rect class="cls-68" x="1374.76" y="531.7" width="14.53" height="27.11" rx="4.13" transform="translate(374.81 1637.41) rotate(-68.85)"/><rect class="cls-67" x="1465.1" y="478.21" width="13.16" height="21.87" rx="3.74" transform="translate(51.28 -133.4) rotate(5.28)"/><rect class="cls-67" x="1461.2" y="503.45" width="13.55" height="33.89" rx="3.85" transform="translate(77.82 -181.91) rotate(7.28)"/><g id="fisk_i_vandet" data-name="fisk i vandet"><path id="fiske_krop" class="cls-48" d="M663.4,313.75c-6.1-1.49-33.66-7.53-60.38,8.49a81.14,81.14,0,0,0-26.76,26.23c-3.25,5.26-10.34,17.06-11,33.21-.07,1.94,0,3.57,0,4.71l-.47,2.36L545,393.47l.94,5.66,21.7,1.89a46.17,46.17,0,0,0,14.15,16c12.65,8.76,30.68,11,38.68,9.44a11.13,11.13,0,0,1,5.66,0c4.18,1.22,4.66,4.53,8.49,6.6,3.43,1.85,8.54,2.16,11.32,0,3.75-2.92,4.17-11-.94-18.87a22.71,22.71,0,0,0,1.89-1.88c7-7.84,4-15.78,7.54-19.82,6.79-7.64,31.7,4.8,33,1.89.84-1.84-9.69-5.77-10.38-13.21-.7-7.64,9.56-13.29,8.5-15.09-.79-1.32-7.28.11-31.14,11.32h-1.88c1.58-6.92.39-11.38-.95-14.15-3-6.2-10.52-10.51-25.47-18.87-5.8-3.24-8.39-4.45-9.43-7.55-2.32-6.89,6.45-14.48,7.54-15.09C641.23,312.34,659.57,312.86,663.4,313.75Z"/><path class="cls-79" d="M601.3,323.41a.3.3,0,0,1,.49.31c-4.28,15.21-7.27,25.78-9.15,47.11-1.27,14.44.47,40,.94,51.88l-16-9.43c-1.94-9.14-.76-21.42,0-35.85.6-11.54,3.52-29.93,5.66-37.74Z"/><path d="M612.92,317.52c-6.15,17.26-5.18,31-5.18,40.1a50.63,50.63,0,0,0,2.83,17,157.31,157.31,0,0,0,5.66,16c3.55,8.3,8.3,18.63,4.71,31.13-.34,1.2-.69,2.18-.94,2.83l-.63,1.25a.36.36,0,0,0,.36.52c1.61-.1,4.81-.71,6.87.12s2.55,1.6,4.72,3.77c2.83,2.83,7.55,4.72,10.38,3.77.89-.29-.1-3.2,0-3.77l-1-4.72-1.88-9.43V393.47l-1-10.38a74.11,74.11,0,0,1-5.18-9c-5.42-11.08-6.16-21.58-6.61-29.25a25.24,25.24,0,0,1-9-7.07c-3.54-4.43,1.89-12.27,6.6-16l-1.88-7.55Z"/><g id="fiskeøje"><rect class="cls-48" x="580.85" y="378.85" width="9.43" height="9.43" rx="4.72"/><circle cx="583.68" cy="383.56" r="2.36"/><path class="cls-80" d="M580.85,383.56a4.72,4.72,0,0,1,9.43,0C588.87,381.2,584.15,378.37,580.85,383.56Z"/><circle class="cls-48" cx="583.68" cy="381.68" r="0.47"/></g><path class="cls-81" d="M598,399.67c4.24,6.33,11.09,9.9,17.79,9.09,4.78-.59-13.7-17.11-12.22-18.48Z"/></g></g><g id="UI-elementer"><rect class="cls-82" x="757.6" y="689.86" width="37.63" height="8.58" rx="4.23"/><rect class="cls-22" x="751.01" y="688.9" width="88.43" height="21.92" rx="10.82"/><rect class="cls-83" x="706.32" y="676.99" width="277.53" height="158.2" rx="78.08"/><ellipse class="cls-84" cx="844.62" cy="826.14" rx="134.06" ry="37.17"/><polygon class="cls-85" points="819.28 716.46 819.28 801.27 892.73 758.87 819.28 716.46"/></g><g id="TITEL"><path class="cls-32" d="M1125.67,183.41c-2.28,2.28,80.43,21.81,83.41,21.42,21.44-2.78-23.84-30.31-24.13-39.1-.26-7.63,39.9-39.74,20-42-2.8-.32-79.61,24.74-77.5,26.85C1139.86,163,1137,172,1125.67,183.41Z"/><path class="cls-85" d="M565,91.68v32.93q-14.28,4.9-28,10.5v8.35q6.85-2.1,13.87-4.07v29.12H537V227q-11.44-8.16-22.47-17.15V127.2A433,433,0,0,1,565,91.68Z"/><path class="cls-85" d="M595.38,75V262q-12.3-6.13-24.3-13.08V88.07Q583.07,81.13,595.38,75Z"/><path class="cls-85" d="M626.77,168.51c-16.87-.43-25-16.74-25.06-48.85,0-31.32,8.19-51.48,25.06-58.77Q642,54.76,657.53,49.78v50.89Q642,103.51,626.77,107c-3.38.79-5.06,3.51-5.06,8.12,0,5.42,1.68,7.83,5.06,7.26q7.61-1.32,15.29-2.51c17.12-3.06,25.89,25,25.87,83.46s-8.76,85.19-25.87,78.64q-20.5-7.41-40.35-16.87v-82.8q19.81,1.35,40.35,2.41,5.13.28,5.14-8.63,0-7.59-5.14-7.58Z"/><path class="cls-85" d="M674.62,44.69Q687.7,41.06,701,38.23v74.44q8-.72,16-1.33V35.1q13.35-2.35,26.82-4V305.87q-13.46-1.59-26.82-3.95V168.51H701V298.8q-13.26-2.83-26.35-6.46Z"/><path class="cls-85" d="M810.28,28V88.19Q794,88,777.71,88.43v20q8.13-.17,16.27-.21v60.27H777.71v20q16.26.1,32.57.06V309.07a484.15,484.15,0,0,1-59.62-2.43V30.38A482.19,482.19,0,0,1,810.28,28Z"/><path class="cls-85" d="M844.39,208.13v99q-13.56,1.23-27.15,1.7V28.15q21.74.77,43.4,3.44c18,2.49,27,33.09,27,90.24,0,56.23-7.16,84.87-21.57,85.6,7.21,32.16,14.4,63.58,21.57,93.93q-10.75,1.92-21.57,3.38C858.84,273.27,851.62,241,844.39,208.13ZM855.23,70.25c-3-.24-5.55,3.41-7.67,11s-3.17,16.89-3.17,27.85,1.06,20.34,3.17,28.09,4.67,11.63,7.67,11.68,5.55-3.74,7.66-11.29,3.16-16.67,3.16-27.44-1.06-20-3.16-27.8S858.23,70.49,855.23,70.25Z"/><path class="cls-85" d="M968.47,57.12V279.9q-7.77,2.76-15.62,5.27v-100q-5.24,50.23-10.49,103.22-5.26,1.56-10.55,3-5.29-51.22-10.61-104.94V294.17q-13.28,3.31-26.7,5.91V36.94q16.1,3.12,32,7.27,5.29,63.54,10.58,124.3,5.26-60.7,10.52-118.3Q958.11,53.44,968.47,57.12Z"/><path class="cls-85" d="M999.13,239.49q-1.77,14.73-3.55,29.9-10.17,4.28-20.49,8.11C982,202.29,988.8,132,995.58,67.64q15.24,6.4,30.1,13.84c6.6,61.32,13.13,116.19,19.6,163.73q-9.71,5.39-19.6,10.34-1.76-11.56-3.52-23.63Q1010.76,235.91,999.13,239.49Zm11.6-124.81c-2.78-.73-5.15,1.3-7.12,6.31s-3,11.51-3,19.32,1,14.56,3,20.06,4.34,8.14,7.12,8.14,5.13-2.61,7.08-7.59a49.32,49.32,0,0,0,2.91-18,56.15,56.15,0,0,0-2.91-18.78C1015.86,118.66,1013.5,115.41,1010.73,114.68Z"/><path class="cls-85" d="M1075.17,168.51v58.71q-11.67,7.59-23.71,14.5V95.3q12,6.92,23.71,14.5c6.23,23.62,12.37,43.33,18.43,58.71V122.38q9.09,6.5,17.91,13.43v65.41q-8.82,6.93-17.91,13.43C1087.54,203.6,1081.4,188.08,1075.17,168.51Z"/><g id="TITEL_fiskehoved"><path class="cls-32" d="M482,193.5c-24.85,0-62-11.9-55.48-25s28.48-26,53.48-29C504.67,136.54,506.85,193.5,482,193.5Z"/><circle class="cls-22" cx="473" cy="163.5" r="10.5"/><line class="cls-33" x1="480.21" y1="156.94" x2="465.32" y2="168.35"/><line class="cls-33" x1="479.77" y1="168.88" x2="465.75" y2="156.41"/><line class="cls-33" x1="443.6" y1="178.78" x2="425.92" y2="172.51"/></g></g><g id="Titelskærm_bobler"><g id="bubble"><circle class="cls-86" cx="896.09" cy="280.25" r="11.41"/><path class="cls-87" d="M898.74,271.07c.08.51-2.29-.13-4.74.26s-5,1.78-5.07,1.26c-.16-1,1.9-2.21,4.62-2.63S898.58,270,898.74,271.07Z"/></g><g id="bubble-2" data-name="bubble"><circle class="cls-86" cx="540.5" cy="365" r="7"/><path class="cls-87" d="M542.13,359.36c0,.32-1.41-.07-2.92.16s-3.06,1.1-3.11.78c-.1-.63,1.17-1.36,2.84-1.62S542,358.73,542.13,359.36Z"/></g><g id="bubble-3" data-name="bubble"><circle class="cls-86" cx="528" cy="357.5" r="4.5"/><path class="cls-87" d="M529.05,353.88c0,.2-.91-.05-1.88.1s-2,.7-2,.5c-.06-.41.76-.87,1.82-1S529,353.47,529.05,353.88Z"/></g><g id="bubble-4" data-name="bubble"><circle class="cls-86" cx="810.31" cy="182.06" r="7.42"/><path class="cls-87" d="M812,176.08c.05.34-1.49-.08-3.09.17s-3.24,1.16-3.3.83c-.1-.68,1.24-1.44,3-1.72S811.93,175.41,812,176.08Z"/></g><g id="bubble-5" data-name="bubble"><circle class="cls-86" cx="530.5" cy="344" r="3"/><path class="cls-87" d="M531.2,341.58c0,.14-.61,0-1.25.07s-1.31.47-1.33.34c0-.28.5-.59,1.21-.7S531.15,341.31,531.2,341.58Z"/></g><g id="bubble-6" data-name="bubble"><circle class="cls-86" cx="862.94" cy="292.14" r="26.56"/><path class="cls-87" d="M869.11,270.76c.19,1.2-5.34-.29-11.05.6s-11.61,4.16-11.8,2.95c-.38-2.4,4.44-5.14,10.75-6.13S868.74,268.35,869.11,270.76Z"/></g><g id="bubble-7" data-name="bubble"><circle class="cls-86" cx="819.06" cy="161.4" r="13.25"/><path class="cls-87" d="M822.14,150.73c.09.6-2.66-.14-5.51.3s-5.8,2.07-5.89,1.47c-.19-1.19,2.22-2.56,5.36-3.05S822,149.53,822.14,150.73Z"/></g><g id="bubble-8" data-name="bubble"><circle class="cls-86" cx="437.53" cy="131.77" r="11.13"/><path class="cls-87" d="M440.11,122.81c.08.51-2.23-.12-4.63.26s-4.86,1.74-4.94,1.23c-.16-1,1.86-2.16,4.5-2.57S440,121.8,440.11,122.81Z"/></g><g id="bubble-9" data-name="bubble"><circle class="cls-86" cx="613.76" cy="260.91" r="31.26"/><path class="cls-87" d="M621,235.73c.22,1.42-6.29-.33-13,.72s-13.68,4.89-13.9,3.47c-.44-2.83,5.23-6.06,12.66-7.22S620.59,232.9,621,235.73Z"/></g><g id="bubble-10" data-name="bubble"><circle class="cls-86" cx="547.44" cy="312.55" r="7.42"/><path class="cls-87" d="M549.17,306.58c.05.33-1.49-.08-3.09.17s-3.24,1.16-3.3.82c-.1-.67,1.24-1.44,3-1.71S549.06,305.9,549.17,306.58Z"/></g><g id="bubble-11" data-name="bubble"><circle class="cls-86" cx="420.5" cy="166" r="3"/><path class="cls-87" d="M421.2,163.58c0,.14-.61,0-1.25.07s-1.31.47-1.33.34c-.05-.28.5-.59,1.21-.7S421.15,163.31,421.2,163.58Z"/></g><g id="bubble-12" data-name="bubble"><circle class="cls-86" cx="416.5" cy="147" r="7"/><path class="cls-87" d="M418.13,141.36c.05.32-1.41-.07-2.92.16s-3.06,1.1-3.11.78c-.1-.63,1.17-1.36,2.84-1.62S418,140.73,418.13,141.36Z"/></g><g id="bubble-13" data-name="bubble"><circle class="cls-86" cx="795.74" cy="232.76" r="3.24"/><path class="cls-87" d="M796.49,230.16c0,.15-.65,0-1.35.07s-1.41.51-1.44.36.54-.62,1.31-.74S796.44,229.87,796.49,230.16Z"/></g><g id="bubble-14" data-name="bubble"><circle class="cls-86" cx="788.5" cy="240" r="5"/><path class="cls-87" d="M789.66,236c0,.23-1-.05-2.08.12s-2.19.78-2.22.55c-.07-.45.83-1,2-1.15S789.59,235.52,789.66,236Z"/></g><g id="bubble-15" data-name="bubble"><circle class="cls-86" cx="948.75" cy="165.69" r="13.25"/><path class="cls-87" d="M951.83,155c.09.6-2.66-.14-5.51.3s-5.8,2.07-5.89,1.47c-.19-1.2,2.21-2.57,5.36-3.06S951.64,153.83,951.83,155Z"/></g><g id="bubble-16" data-name="bubble"><circle class="cls-86" cx="681.5" cy="301" r="9"/><path class="cls-87" d="M683.59,293.75c.06.41-1.81-.09-3.74.21s-3.94,1.41-4,1c-.13-.82,1.5-1.75,3.64-2.08S683.46,292.94,683.59,293.75Z"/></g><g id="bubble-17" data-name="bubble"><circle class="cls-86" cx="536.5" cy="300" r="5"/><path class="cls-87" d="M537.66,296c0,.23-1-.05-2.08.12s-2.19.78-2.22.55c-.07-.45.83-1,2-1.15S537.59,295.52,537.66,296Z"/></g></g></svg>
