<svg id="baggrund" xmlns="http://www.w3.org/2000/svg" xmlns:xlink="http://www.w3.org/1999/xlink" width="1600" height="900" viewBox="0 0 1600 900"><defs><style>.cls-1{fill:url(#linear-gradient);}.cls-2{fill:#009245;}.cls-2,.cls-5{stroke:#006837;}.cls-13,.cls-14,.cls-2,.cls-22,.cls-4,.cls-5,.cls-8{stroke-miterlimit:10;}.cls-3,.cls-5{fill:#006837;}.cls-4{fill:#39b54a;stroke:#39b54a;}.cls-6{fill:#fbcb88;}.cls-18,.cls-7{fill:#f2f2f2;}.cls-13,.cls-14,.cls-8{fill:none;}.cls-8{stroke:#b3b3b3;}.cls-9{fill:#b3b3b3;}.cls-10{fill:#333;}.cls-11{fill:#4d4d4d;}.cls-12{fill:#666;}.cls-13{stroke:#666;stroke-width:8px;}.cls-14{stroke:#4d4d4d;stroke-width:16px;}.cls-15{fill:#2b2a2a;}.cls-16,.cls-19{fill:#e6e6e6;}.cls-17{fill:#ccc;}.cls-18{opacity:0.6;}.cls-19{opacity:0.82;}.cls-20{font-size:48px;}.cls-20,.cls-24{font-family:GorgeousGirls, Gorgeous Girls;}.cls-21{letter-spacing:-0.08em;}.cls-22{stroke:#fff;stroke-width:7px;opacity:0.38;}.cls-23{opacity:0.15;}.cls-24{font-size:33.8px;}.cls-25{font-size:36px;font-family:OpenSans, Open Sans;}</style><linearGradient id="linear-gradient" x1="798.52" y1="-287.77" x2="799.45" y2="1147.33" gradientUnits="userSpaceOnUse"><stop offset="0.4" stop-color="#69b3c4"/><stop offset="0.77" stop-color="#313131"/></linearGradient></defs><title>game_over</title><rect id="vand" class="cls-1" x="-1" y="-1" width="1600" height="901"/><g id="plante"><path class="cls-2" d="M779.54,790.16c-10.46-2.23-19.35-45-1.8-63.7,8.88-9.44,17.37-5.11,33.41-18.2,6.33-5.16,15.93-13,19.42-25.94,4.7-17.38-4.43-33.65-9-41.86-6.84-12.21-10.07-10.49-19-25.48-7.1-12-14.19-24.3-9.93-35.49.45-1.18,4.4-11.17,12.64-12.74,1.66-.32,2.29.36,4.52,0,4.08-.66,8.67-3.43,9.93-7.28,1.16-3.51-.76-6.9-1.8-9.1a45,45,0,0,1-1.81-28.22c1.79-6.8,4.63-5.58,24.39-29.12,4-4.72,7.46-9.07,8.12-15.47.73-6.92-2-14.51-4.51-14.56-2.76-.06-6.32,9.35-6.32,18.2,0,5.77,1.5,7.17,5.42,22.75,1.95,7.79,2.92,11.74,2.71,14.56-.65,8.42-5.38,14.45-9,19.11-2.81,3.6-6.73,8.6-13.54,11.84-4.84,2.29-6.28,1.39-9,3.64-5.07,4.12-6.48,12.25-5.42,18.2,1.68,9.42,9.46,12.61,18.06,20.93,4.34,4.2,20.58,21,21.67,40.95,1.24,22.54-17.21,43.47-21.67,48.23-5,5.38-8,6.93-10.84,12.74-4.86,10-1.26,16.07-2.71,33.68A107.11,107.11,0,0,1,808,754.22c-5.4,15.38-12.68,23.57-15.35,26.39C786.21,787.39,782.9,790.88,779.54,790.16Z"/><path class="cls-3" d="M791.28,806.54c12.67.89,40.59-51.87,24.39-87.36-11.12-24.36-44.22-43.24-40.64-63.7.44-2.52,2.16-9.18,0-17.29-1.89-7.12-5.84-11.85-9-15.48-15.06-17.09-21.25-18.61-28.9-28.21-2.58-3.22-13.18-16.87-13.55-35.49-.39-19.1,10.18-34.29,13.55-39.13,8.21-11.81,12.69-11,15.35-20,3.09-10.5.8-24.48-7.23-33.67-.62-.72-2-3-2.71-2.73s-.15,3.59,0,4.55c.08.45,1.36,11.39-3.61,20.93a30.52,30.52,0,0,1-4.51,6.37,35,35,0,0,1-9.94,7.28c-6.41,3.6-10,8.84-14.45,15.47-6.37,9.4-12.35,27.57-4.51,44.59,6,13.15,18.32,19.41,22.12,21.39,4.14,2.14,4.16,1.42,11.74,4.55,15.88,6.54,24.47,10.07,28,17.29,1.85,3.76.91,5.66-2.71,26.39-2.73,15.66-4.1,23.49-4.51,30-.93,14.68,1.76,25.77,3.61,33.67C780.74,768.65,780.85,805.82,791.28,806.54Z"/><path class="cls-4" d="M787.22,807a108.73,108.73,0,0,0,15.35-34.58c5.42-22.33.31-34.17,7.23-57.34a85.07,85.07,0,0,1,13.55-27.3c2-2.68,3.15-3.83,4.51-5.46,14.52-17.42,7.18-32.71,19-50.05,8.72-12.83,24.15-21.25,28.9-23.66,7.16-3.64,8.91-3.19,11.74-6.37,12-13.46-.06-43-1.81-47.32-2.45-6-3.45-6.61-6.32-12.75-10-21.36-10.14-41.82-9.93-41.86s7.17,18.05.9,35.49c-2.63,7.32-7.29,13.68-9.93,17.3-8.5,11.59-11.46,10-14.45,16.38-6.5,13.78,2.38,32,6.32,40,5.5,11.27,8.07,10,9.93,17.29,4,15.56-3.95,36.13-17.16,41.86-7.1,3.09-10.39-.45-18.06,3.64-9,4.79-12.83,14.11-14.45,18.2-6.38,16.08,1.46,22-1.81,37.32-4.39,20.58-21.1,21.43-27.09,41.86C781.3,777.55,780.18,789.68,787.22,807Z"/><path class="cls-5" d="M798.06,799.72c-5.77-1.32-8.71-34.14,6.32-61,4.28-7.65,13-23.16,29.8-29.13,19.69-7,36,4.26,41.55-3.64s-8.28-21.85-.9-34.58c.77-1.33,3.89-6.3,9-7.28,11-2.1,26.89,14.94,27.09,29.12,0,2.32-.36,4.21.91,6.37,3.51,6,14.89,5.66,20.77,5.46,4.2-.13,8.64-.28,12.64-1.82,17.15-6.58,22.88-37.37,20.77-38.22s-20,23.41-23.48,45.5A27.42,27.42,0,0,1,939,721.46c-1,1.66-7.94,13.08-20.77,13.65-1.08,0-10.39.31-17.16-6.37-7.55-7.45-9-20.67-7.23-30,1-5.38,3.23-9.77.91-14.56-1.2-2.46-4-5.91-6.33-5.46-5.92,1.17,1.73,26.14-9.93,42.78-9.28,13.23-21.71,8.25-39.74,19.11C806.36,760,804.62,801.22,798.06,799.72Z"/><path class="cls-2" d="M782.71,797.9c-.3,3.53,14.1,10.09,28.9,8.19,4.75-.61,8.92-2,22.57-10,27.94-16.36,42-24.77,44.26-36.4,1.24-6.26-.46-11.12,3.61-15.47,3.87-4.14,10.88-5.61,16.26-3.64,4.54,1.65,5.73,5,10.84,10.92,7.2,8.4,11,12.51,15.35,13.65,7.12,1.86,13.73-2.27,14.45-2.73,4.45-2.87,7.54-8.93,13.55-20.93,2.71-5.43,2.87-6.29,4.51-8.19.53-.62,6.74-7.6,16.26-8.19,9.8-.62,16.07,6,17.16,4.55s-3.44-8.73-10.84-11.84c-8.28-3.46-17-.24-22.58,1.82-5,1.86-4.63,2.63-18.06,9.11-7.92,3.81-9.66,4.31-11.74,4.55-7.66.85-13.91-2.67-17.16-4.55-7.16-4.16-6.82-7-17.16-15.48-5.17-4.21-8-6.46-12.64-8.19-2.68-1-11.55-4.28-18.07,0a13.44,13.44,0,0,0-3.61,3.64c-8.79,12.19-13.18,18.29-16.26,28.22-4,12.91,0,13.19-3.61,23.66a54.09,54.09,0,0,1-18.06,24.57C802.84,798.47,783.05,793.79,782.71,797.9Z"/></g><path id="sand" class="cls-6" d="M1599,830.69h-234l-77.81-4a213.86,213.86,0,0,1-38.66-3.65c-18-3.43-20.49-6.55-38.65-9.75-6.06-1.06-10.5-1.55-43.74-3.65-39.89-2.53-37.61-2.09-39.67-2.44-31.86-5.36-33.64-18-63.07-21.31-15.32-1.74-16.43,1.51-35.6-.61-21.33-2.36-24.42-6.88-41.7-9.75-7.55-1.25-13.85-1.53-68.16,3.66-44.89,4.29-46.69,5.06-55.94,4.26-29.08-2.53-27.55-11.64-56-14-24.36-2-48.41,2.77-68.15,6.7-13.54,2.7-12.82,3.4-24.41,5.48-26.48,4.77-41.84,3.23-60,4.27-37.52,2.13-38.65,12.49-86.46,20.7-14.77,2.54-13.15,1.29-66.11,5.48-77,6.1-79.4,8.66-112.91,9.45-37.47.88-42.79-2.13-89.52-3-46.51-.92-84.09,1.21-107.82,3L-.5,824.6,0,899.5H1599.5Z"/><g id="musling"><path class="cls-7" d="M794.32,717.59c-2.74.61-1.61,10-6.71,11.69-5.61,1.86-11.14-8.16-16.42-6.19-4.6,1.73-2.55,10.18-8.09,13.4s-11.16-3.16-15.91.12-1.51,11.59-6.45,14.84c-4.45,2.93-9.59-2.16-13.09.83-3.84,3.27.49,11-3.41,14.58s-10.65-1.39-13.32,1.79c-2.93,3.51,4.13,10.88,1.05,16.73-2.65,5-10.22,4.06-10.71,7.6s8.59,9.56,5.94,12.81c-2.79,3.42-9.55,1.59-10.26,5.65-.73,4.23,7.24,11.23,9,12.55,21.63,16.4,30.05,15.78,64.28,26.45,2.12.66,16.46,4.45,27.15,2.71,7.36-1.2,11.42-6.4,14-8.84,4.94-4.72,6.54-13.61,6.65-19.94.47-28.53-.77-70.56-8.13-92.59C806.5,721.74,796.63,717.07,794.32,717.59Z"/><line class="cls-8" x1="696.2" y1="874.02" x2="696.2" y2="874.02"/><polyline class="cls-9" points="806.56 846.07 707.58 799.45 709.23 802.54 708.7 804.46 707.24 806.11 706.05 806.79 702.78 807.41"/><polyline class="cls-9" points="801.91 845.09 726.77 760.29 726.8 764.41 726.12 767.33 723.79 768.8 721.68 769.3 718.87 768.59"/><path class="cls-9" d="M813,841.63c-5.09,9-20,13.49-27.53,11.6-6.21-1.56,10.27-15.5,15.51-23.88s14.7-25.89,16.48-19.53C819.57,817.57,817.48,833.6,813,841.63Z"/><polyline class="cls-9" points="801.32 841.78 767.73 729.42 766.59 734.28 765.2 735.99 762.87 737.47 759.83 737.73 757.96 737.26"/><polyline class="cls-9" points="808.12 839.63 792.68 723.1 790.79 727.7 789.15 729.15 786.62 730.21 783.58 729.95 781.81 729.17"/><polyline class="cls-9" points="804.35 844.04 745.54 746.36 744.84 750.41 743.65 753.15 741.1 754.15 738.95 754.25 736.31 753.01"/><polyline class="cls-9" points="803.77 845.79 712.13 780.72 713.05 784.73 713.02 787.73 711.07 789.71 709.13 790.69 706.24 790.66"/></g><g id="anker"><polygon class="cls-10" points="779.89 781.08 786.15 815.46 821.19 798.59 887.74 654.81 868.45 643.38 779.89 781.08"/><polygon class="cls-10" points="898.28 687 890.77 700.49 828.86 663.43 836.37 649.95 898.28 687"/><ellipse class="cls-11" cx="827.45" cy="651.99" rx="11.26" ry="11.68"/><ellipse class="cls-11" cx="901.28" cy="698.04" rx="11.26" ry="11.68"/><ellipse class="cls-12" cx="827.13" cy="651.66" rx="8.45" ry="8.76"/><ellipse class="cls-12" cx="901.59" cy="697.72" rx="8.45" ry="8.76"/><g id="lænke"><path class="cls-13" d="M890.64,636.13h0c-3.15-2.18-4.62-6.62-2.52-9.88l5.31-8.24a6.75,6.75,0,0,1,9.54-2h0a7.3,7.3,0,0,1,1.89,9.88l-4.69,8.24A6.74,6.74,0,0,1,890.64,636.13Z"/><ellipse id="top_anker" data-name="top anker" class="cls-14" cx="889.7" cy="630.25" rx="20.96" ry="21.73"/><path class="cls-11" d="M898.2,623.5h0a2.14,2.14,0,0,1-.58-2.88l6.3-9.93a2,2,0,0,1,2.78-.59h0a2.13,2.13,0,0,1,.57,2.88L901,622.9A2,2,0,0,1,898.2,623.5Z"/><path class="cls-13" d="M890.37,662.26h0a7.08,7.08,0,0,1-6.13-7.82l1-9.86a7,7,0,0,1,7.54-6.36h0A7.09,7.09,0,0,1,898.9,646l-1,9.86A7,7,0,0,1,890.37,662.26Z"/><path class="cls-13" d="M887.85,687.67h0a7.1,7.1,0,0,1-6.14-7.82l1-9.86a7,7,0,0,1,7.55-6.36h0a7.08,7.08,0,0,1,6.13,7.82l-1,9.86A7,7,0,0,1,887.85,687.67Z"/><path class="cls-11" d="M889.76,671.34h0a2.06,2.06,0,0,1-1.79-2.28l1.23-12.41a2,2,0,0,1,2.2-1.85h0a2.06,2.06,0,0,1,1.79,2.28L892,669.49A2,2,0,0,1,889.76,671.34Z"/><path class="cls-13" d="M884.48,710h0a7.08,7.08,0,0,1-6.14-7.82l1-9.86a7,7,0,0,1,7.55-6.36h0a7.08,7.08,0,0,1,6.13,7.82l-1,9.86A7,7,0,0,1,884.48,710Z"/><path class="cls-13" d="M867.43,727.52h0a7.32,7.32,0,0,1-.75-10l6.21-7.54a6.72,6.72,0,0,1,9.69-.78h0a7.32,7.32,0,0,1,.76,10.05l-6.21,7.53A6.73,6.73,0,0,1,867.43,727.52Z"/><path class="cls-11" d="M877.19,716.65h0a2.14,2.14,0,0,1-.45-2.9l7-10.11a2,2,0,0,1,2.8-.46h0a2.12,2.12,0,0,1,.45,2.9l-7,10.11A2,2,0,0,1,877.19,716.65Z"/><path class="cls-11" d="M887.35,695.57h0a2.07,2.07,0,0,1-1.79-2.28l1.18-11.82a2,2,0,0,1,2.2-1.86h0a2.08,2.08,0,0,1,1.79,2.29l-1.18,11.81A2,2,0,0,1,887.35,695.57Z"/><path class="cls-13" d="M760.64,773.91h0a7.49,7.49,0,0,0,10.19-1.8l5.44-8.15a7.31,7.31,0,0,0-1.74-9.92h0a6.74,6.74,0,0,0-9.56,1.8L758.9,764A7.32,7.32,0,0,0,760.64,773.91Z"/><path id="spidsen_af_skaftet" data-name="spidsen af skaftet" class="cls-15" d="M963,793c13.3-23.53,14.51-46.43,14.31-57.86a64.12,64.12,0,0,1-34.38,29.52"/><path class="cls-11" d="M755.53,789.11h0a2,2,0,0,0,2.76-.65L766,770.12a2.13,2.13,0,0,0-.63-2.86h0a2.76,2.76,0,0,0-3.39.65l-7,18.34A2.12,2.12,0,0,0,755.53,789.11Z"/><path id="skaftet" class="cls-15" d="M943,764.6c-5.56,3.38-10.57,11.15-8.93,19a16.49,16.49,0,0,0,5,8.62,6.83,6.83,0,0,0-3.52,1c-4.18,2.61-.25,10-1.77,14.47-3.18,9.28-21.27,16.22-32.53,18.17-25.43,4.39-25.66,2.59-41.3,0,0,0-26.33-4-31.91-13-1.21-2-6.44-18.49-8.76-22.05-4.62-7.11-13.44-10.28-13.44-10.28-9.28-4.75-18.28-2.91-21.16-2.28-6.3,1.39-6.53,3.39-10.41,3.45-8,.11-14.08-8.32-20.29-17.19-7.15-10.19-19.52-27.85-13.81-38,2.29-4.07,8.18-8.16,6.9-12.3-.51-1.65-1.89-2.45-1.55-3.43.63-1.75,5.28.26,9.6-1.57,6.16-2.62,9.41-12.14,8.23-19.33a20.59,20.59,0,0,0-.93-3.36c-.87-2.72-5.49-17.53-3.74-31.71,1.1-8.94,4.13-12.77,3.23-13.35-2.2-1.41-24.2,18.46-33.05,47.31,0,0-13,42.43,10.6,95.06.77,1.7,3.58,7.75,6.54,16.36,4.77,13.83,4.24,17.74,6.45,23.52,6.75,17.65,30.43,30.29,49.89,29.5,9.71-.39,12-3.87,28.78-4.73,5.86-.29,11.1-.08,21.35.35,18,.76,22.22.19,28.75-.28a102.44,102.44,0,0,0,36.29-9.08c31.18-14.46,45.12-44.29,48.81-53.38"/><path class="cls-11" d="M892.26,645.12h0a2.07,2.07,0,0,1-1.79-2.28L891.64,631a2,2,0,0,1,2.2-1.86h0a2.07,2.07,0,0,1,1.79,2.28l-1.17,11.82A2,2,0,0,1,892.26,645.12Z"/><rect class="cls-13" x="826.58" y="728.02" width="14.26" height="23.31" rx="7.13" transform="translate(1575.43 -92.22) rotate(90.14)"/><path class="cls-13" d="M845.32,740.77h0a7.32,7.32,0,0,1,1.77-9.91l7.88-5.62a6.74,6.74,0,0,1,9.56,1.84h0a7.3,7.3,0,0,1-1.77,9.91l-7.88,5.62A6.75,6.75,0,0,1,845.32,740.77Z"/><path class="cls-11" d="M835.72,739.32h0a2.05,2.05,0,0,1,1.84-2.23l12-1a2,2,0,0,1,2.16,1.91h0a2.05,2.05,0,0,1-1.84,2.23l-12,1A2,2,0,0,1,835.72,739.32Z"/><path class="cls-11" d="M859,732.47h0a2.13,2.13,0,0,1,.57-2.88l10-6.87a2,2,0,0,1,2.78.59h0a2.13,2.13,0,0,1-.57,2.88l-10,6.87A2,2,0,0,1,859,732.47Z"/><path class="cls-13" d="M797.34,741.18h0a7,7,0,0,0,7.52,6.39l9.51-1a7.08,7.08,0,0,0,6.16-7.8h0A7,7,0,0,0,813,732.4l-9.51,1A7.08,7.08,0,0,0,797.34,741.18Z"/><path class="cls-11" d="M812.73,739.72h0a2,2,0,0,0,2,2l12-.22a2.05,2.05,0,0,0,2-2.12h0a2,2,0,0,0-2-2l-12,.23A2.05,2.05,0,0,0,812.73,739.72Z"/><path class="cls-13" d="M773.26,752.36h0a6.82,6.82,0,0,0,8.86,4.15l9-3.49a7.24,7.24,0,0,0,4-9.19h0a6.81,6.81,0,0,0-8.85-4.15l-9,3.49A7.24,7.24,0,0,0,773.26,752.36Z"/><path class="cls-11" d="M788.06,746.56h0a2,2,0,0,0,2.6,1.16l11.18-4.62a2.11,2.11,0,0,0,1.12-2.7h0a2,2,0,0,0-2.61-1.16l-11.17,4.62A2.1,2.1,0,0,0,788.06,746.56Z"/><path class="cls-11" d="M769.32,762.47h0a2,2,0,0,0,2.82-.29l7.63-9.65a2.14,2.14,0,0,0-.28-2.93h0a2,2,0,0,0-2.82.29L769,759.54A2.15,2.15,0,0,0,769.32,762.47Z"/></g></g><g id="musling2"><path class="cls-7" d="M893.5,837c0,12.7-12.31,23-27.5,23s-27.5-10.3-27.5-23,13.4-28.64,27.5-23c7.5,3,15.4,7.73,21,11C893,828.5,893.5,830.65,893.5,837Z"/><path class="cls-16" d="M891.19,831.1l-1.07,1.71a2.73,2.73,0,0,1-3.76.86l-9.86-2.17-10.5-6-4.5-4.5c-1.32-.83-.32-4.58.5-5.9h0a10.82,10.82,0,0,1,14.86-3.43l11.51,7.21A8.89,8.89,0,0,1,891.19,831.1Z"/><path class="cls-17" d="M888.69,821.57l-.28.4c-1.17,1.7-3.71,3.2-5.41,2l-5-1.5-5-4-2-3c-1.7-1.17-.64-3.47.53-5.17l.28-.4a3.77,3.77,0,0,1,5.22-1l10.7,7.38A3.76,3.76,0,0,1,888.69,821.57Z"/><rect class="cls-16" x="878.46" y="807.79" width="8.19" height="9" rx="4.1" transform="translate(-287.1 1078.04) rotate(-55.43)"/><rect class="cls-7" x="883.35" y="807.4" width="2.23" height="4.32" rx="1.11" transform="translate(563.86 -345.81) rotate(32.02)"/></g><path class="cls-6" d="M684.17,831.16c.43-7.83,23.56-11.74,66.82-19,29.8-5,41.08-3.72,50.12,2.73,7.82,5.57,9.25,11.63,19.06,17.27,10.94,6.3,17,3.14,31.76,5.47,25.27,4,26.85,15.77,54.68,21.79,18.5,4,30.8,1.61,30.84,2.45.09,1.85-58.86,12.94-128.38,6.14C753.68,862.55,683.42,845,684.17,831.16Z"/><circle class="cls-18" cx="819" cy="385" r="315"/><path class="cls-19" d="M834,134.87c5.44,13.3-62.12,11.35-125.33,37.19s-122.08,79.49-127.52,66.2c-10.87-26.6,36.91-71.31,106.73-99.86S823.12,108.28,834,134.87Z"/><text class="cls-20" transform="translate(681.13 430.63)">try <tspan class="cls-21" x="112.31" y="0">a</tspan><tspan x="144.12" y="0">gian?</tspan></text><circle class="cls-22" cx="912.58" cy="524.06" r="69.42"/><ellipse class="cls-23" cx="912.92" cy="592.8" rx="72.84" ry="12.65"/><polygon points="918.17 496.44 882.83 489.52 902.8 514.11 918.17 496.44"/><path d="M888.59,557.69c.22-.23,3,3.42,7.65,5.95,7.66,4.18,21,5.67,28.9-1.7s8.68-20.38,6.8-25.5c-6-16.15-20.4-24.65-24.65-28.9l6-7.65c1.24,1,3,2.43,5.1,4.25,12.83,11.28,22.74,20,24.65,32.3,1.37,8.89-1.33,20.27-9.35,27.2-7,6-15.5,6.59-18.7,6.8a28.57,28.57,0,0,1-15.3-2.55C892.32,564.27,888.31,558,888.59,557.69Z"/><circle class="cls-22" cx="740.02" cy="524.9" r="69.42"/><ellipse class="cls-23" cx="740.37" cy="593.64" rx="72.84" ry="12.65"/><text class="cls-24" transform="translate(700.7 536.87)">exit</text><path class="cls-12" d="M614.06,305.16a10.31,10.31,0,0,1-6.91,2.46c-4.55,0-8.52-2.36-11.73-6a17.52,17.52,0,0,1-4.72-12.5c0-5.05,1.47-10.06,4.25-16s6.08-11,10.11-14.12c3-2.34,5.78-3,8.36-1.64q-2.31,6.56-4.69,12.48a.26.26,0,0,1-.07-.11,2.32,2.32,0,0,0-3.15-.32,8,8,0,0,0-3,3.74,11.88,11.88,0,0,0-1.09,5.29,5.88,5.88,0,0,0,1.44,4.06,2.82,2.82,0,0,0,3.2.79,5.67,5.67,0,0,0,3-3.28,10.21,10.21,0,0,0,.6-1.65l-3.8,1.46q-.15-3.48-.29-6.94,7.56-4,15.27-7.74,1.34,21.24,2.66,42.46h-9.4C614.15,306.81,614.11,306,614.06,305.16Z"/><path class="cls-12" d="M637,297.92c-.31,3.29-.63,6.52-1,9.72H626.6c1.81-20.44,3.36-42.83,4.71-67q6.57-4.16,13.28-8c4.81,23.29,9.79,48.32,14.89,74.93l-9.39,0q-1.23-5.36-2.44-10.58ZM639,251.78c-1.24.58-2.22,2.06-3,4.38a20.09,20.09,0,0,0-.82,7.51,14,14,0,0,0,1.82,6.48c1,1.64,2.17,2.3,3.43,1.93s2.26-1.67,3-4a20.84,20.84,0,0,0,.79-7.86,15.11,15.11,0,0,0-1.87-6.88C641.39,251.7,640.26,251.19,639,251.78Z"/><path class="cls-12" d="M672.62,295.09q-.36,6.26-.74,12.4l-9.39.05c1.13-27.14,2.15-55.85,3.13-86q6.9-3.32,13.9-6.3,7.89,44.06,15.83,92l-9.39.08q-1.29-6.57-2.58-13C679.79,294.58,676.21,294.83,672.62,295.09Zm1.29-57.65c-1.28.46-2.29,2.09-3,4.85a28.3,28.3,0,0,0-.72,9.26,23.07,23.07,0,0,0,2,8.45c1.08,2.2,2.28,3.19,3.56,2.89s2.31-1.78,3-4.53a29.34,29.34,0,0,0,.72-9.54,24.07,24.07,0,0,0-2-8.76C676.38,237.84,675.2,237,673.91,237.44Z"/><path class="cls-12" d="M708.49,292.74q-.37,7.26-.74,14.44l-9.39.09q1.47-48.54,3.06-100.46,7.16-2.48,14.39-4.64,7.83,51,15.4,104.73l-9.38.12q-1.27-7.49-2.54-14.89Zm1.43-66.32c-1.32.34-2.36,2.06-3.11,5.12a35.68,35.68,0,0,0-.76,10.58,31.52,31.52,0,0,0,2,10c1.1,2.66,2.31,3.9,3.62,3.68s2.35-1.84,3.1-4.9a36.16,36.16,0,0,0,.78-10.76,32,32,0,0,0-2-10.2Q711.9,225.9,709.92,226.42Z"/><path class="cls-12" d="M763,191.65l4.08,114.76-7,.11q-1-24.36-1.91-48.72-1.44,24.56-2.78,48.78l-4.69.07q-3.4-24-6.9-47.5,1.11,23.78,2.2,47.56l-11.73.16L728.6,198.63q7.29-1.87,14.65-3.43,3.72,27.36,7.32,55.21,1.2-28.35,2.52-57.13C756.38,192.69,759.67,192.14,763,191.65Z"/><path class="cls-12" d="M793.51,188.4q.25,12.6.5,25.2c-4.92.26-9.85.6-14.76,1,.08,2.77.15,5.54.23,8.32,2.45-.2,4.89-.38,7.35-.53q.28,12.54.59,25.1c-2.42.12-4.83.25-7.25.4.08,2.78.15,5.55.23,8.33q7.22-.41,14.45-.66.49,25.18,1,50.38l-25.79.4q-2-57.6-3.92-115.19Q779.78,189.26,793.51,188.4Z"/><path class="cls-12" d="M827.17,305.48c-4.53.07-8.42-5.62-11.76-17.09s-5.14-25.34-5.33-41.63,1.32-30.23,4.61-41.77,7.4-17.24,12.24-17.08,9,6.12,12.31,17.71S844.13,231,844,247.06s-1.88,29.72-5.16,41.14S831.69,305.41,827.17,305.48ZM827,213.1q-2,0-3.47,4.86a42.34,42.34,0,0,0-1.39,11.88,43.86,43.86,0,0,0,1.48,11.91c1,3.29,2.1,4.93,3.45,4.94s2.48-1.61,3.43-4.86A43.45,43.45,0,0,0,831.91,230a43,43,0,0,0-1.43-11.9C829.51,214.8,828.35,213.13,827,213.1Z"/><path class="cls-12" d="M852.66,305.08q-3.95-57.56-8.52-116.2,6.25.5,12.49,1.22,2.08,29,4,57.74,2.9-28.43,5.94-56.45,5,.72,9.94,1.58-6.36,55-12.16,111.93Z"/><path class="cls-12" d="M906.79,199.52q-.46,11.23-.92,22.47-7.27-1.5-14.59-2.74c-.08,2.59-.17,5.17-.25,7.76,2.43.37,4.85.76,7.28,1.18q-.43,11.43-.85,22.87c-2.4-.27-4.8-.54-7.21-.79-.08,2.58-.17,5.17-.25,7.75,4.78.42,9.57.89,14.34,1.41q-.92,22.45-1.84,44.92l-25.76.36q1.49-55.59,3-111.18Q893.32,196,906.79,199.52Z"/><path class="cls-12" d="M936.54,208.68q-.56,10.22-1.13,20.42-7.15-2-14.37-3.73-.18,3.58-.35,7.16c2.4.53,4.79,1.07,7.18,1.64q-.54,10.49-1.09,21c-2.38-.38-4.75-.76-7.14-1.12q-.17,3.59-.35,7.17,7.14.92,14.23,2-1.14,20.43-2.27,40.85l-25.75.31q2.21-52,4.42-103.95Q923.35,204,936.54,208.68Z"/><path class="cls-12" d="M965.61,220.41q-.6,8.93-1.21,17.85-7-2.49-14.09-4.73l-.39,6.4c2.36.67,4.71,1.37,7.06,2.08l-1.2,18.54q-3.53-.75-7-1.45-.21,3.21-.4,6.4,7,1.19,14.07,2.52-1.2,17.85-2.41,35.71-12.87.11-25.74.24,2.68-47.1,5.36-94.19Q952.77,214.58,965.61,220.41Z"/><path class="cls-12" d="M993.8,234.69q-.56,7.38-1.09,14.76-6.83-3-13.74-5.72l-.39,5.45q3.46,1.23,6.91,2.54l-1.14,15.56q-3.47-.9-6.94-1.77L977,271q7,1.47,13.88,3.08-1.1,14.76-2.18,29.52-12.87,0-25.74.15l5.61-81.93Q981.39,227.72,993.8,234.69Z"/><path class="cls-12" d="M1005,281.89q-.78,10.82-1.57,21.62l-11.7,0q2.49-33.6,5-67.21,9,5.16,17.73,10.84c7.26,4.94,10.46,12.82,9.81,23.22s-4,14.73-10.09,13.5q3.89,10.83,8,19.61h-9.36Q1008.77,293.69,1005,281.89Zm6.65-27.88a2.4,2.4,0,0,0-3.32.8,9.76,9.76,0,0,0-1.75,5.47,15.4,15.4,0,0,0,.87,6.61c.76,2,1.77,3.17,3,3.62a2.87,2.87,0,0,0,3.35-1.19,8.8,8.8,0,0,0,1.7-5,14.46,14.46,0,0,0-.91-6.23A7.29,7.29,0,0,0,1011.63,254Z"/><path class="cls-12" d="M1028.59,284q-.37-13.33-.62-27.55,5.34,3.81,10.57,7.84-1.55,10.41-3.23,21.74C1033.07,285.33,1030.83,284.66,1028.59,284Zm7.09,7.21a9,9,0,0,1,1.43,5.32,7.65,7.65,0,0,1-1.92,4.9,5.51,5.51,0,0,1-4.24,2.09,4.54,4.54,0,0,1-4-2.4,9.93,9.93,0,0,1-1.34-6,9.17,9.17,0,0,1,2-5.61,3.92,3.92,0,0,1,4.15-1.41A6.64,6.64,0,0,1,1035.68,291.2Z"/><path class="cls-12" d="M1042.62,288.32q-.78-10.51-1.42-22,5.21,4.08,10.28,8.37-1,7.38-2.21,15.76Q1046,289.38,1042.62,288.32Zm7.22,6.09a6.22,6.22,0,0,1,1.64,4,4.53,4.53,0,0,1-1.7,3.57,6.11,6.11,0,0,1-4.15,1.55,5.09,5.09,0,0,1-4.07-1.9,6.83,6.83,0,0,1-1.52-4.77,5.84,5.84,0,0,1,1.83-4.33,4.07,4.07,0,0,1,4-.81A7.8,7.8,0,0,1,1049.84,294.41Z"/><text class="cls-25" transform="translate(684.08 371.91)">Score: 5 plastics</text></svg>
