<svg xmlns="http://www.w3.org/2000/svg" width="685" height="677" viewBox="0 0 685 677"><defs><style>.cls-1{fill:#f2f2f2;}.cls-2{fill:#e6e6e6;opacity:0.82;}.cls-3{font-size:48px;}.cls-3,.cls-7{font-family:GorgeousGirls, Gorgeous Girls;}.cls-4{letter-spacing:-0.08em;}.cls-5{stroke:#fff;stroke-miterlimit:10;stroke-width:7px;opacity:0.38;}.cls-6{opacity:0.15;}.cls-7{font-size:33.8px;}.cls-8{fill:#666;}.cls-9{font-size:36px;font-family:OpenSans, Open Sans;}</style></defs><title>gameover_symbol</title><g id="Layer_1" data-name="Layer 1"><circle class="cls-1" cx="352" cy="332" r="315"/><path class="cls-2" d="M367,81.87c5.44,13.3-62.12,11.35-125.33,37.19s-122.08,79.49-127.52,66.2C103.28,158.66,151.06,114,220.88,85.4S356.12,55.28,367,81.87Z"/><text class="cls-3" transform="translate(214.13 377.63)">try <tspan class="cls-4" x="112.31" y="0">a</tspan><tspan x="144.12" y="0">gian?</tspan></text><circle class="cls-5" cx="445.58" cy="471.06" r="69.42"/><ellipse class="cls-6" cx="445.92" cy="539.8" rx="72.84" ry="12.65"/><polygon points="451.17 443.44 415.83 436.52 435.8 461.11 451.17 443.44"/><path d="M421.59,504.69c.22-.23,3,3.42,7.65,5.95,7.66,4.18,21,5.67,28.9-1.7,8-7.51,8.68-20.38,6.8-25.5-5.95-16.15-20.4-24.65-24.65-28.9l5.95-7.65c1.24,1,3,2.43,5.1,4.25,12.83,11.28,22.74,20,24.65,32.3,1.37,8.89-1.33,20.27-9.35,27.2-7,6-15.5,6.59-18.7,6.8a28.57,28.57,0,0,1-15.3-2.55C425.32,511.27,421.31,505,421.59,504.69Z"/><circle class="cls-5" cx="273.02" cy="471.9" r="69.42"/><ellipse class="cls-6" cx="273.37" cy="540.64" rx="72.84" ry="12.65"/><text class="cls-7" transform="translate(233.7 483.87)">exit</text><path class="cls-8" d="M147.06,252.16a10.29,10.29,0,0,1-6.91,2.46c-4.55,0-8.52-2.36-11.73-6a17.52,17.52,0,0,1-4.72-12.5c0-5,1.47-10.06,4.25-16s6.08-11,10.11-14.12c3-2.34,5.79-3,8.36-1.64q-2.31,6.56-4.69,12.48a.26.26,0,0,1-.07-.11,2.33,2.33,0,0,0-3.15-.32,7.93,7.93,0,0,0-3,3.74,11.88,11.88,0,0,0-1.09,5.29,5.91,5.91,0,0,0,1.44,4.06,2.82,2.82,0,0,0,3.2.79,5.67,5.67,0,0,0,3.05-3.28,11.26,11.26,0,0,0,.6-1.65l-3.8,1.46q-.15-3.48-.29-6.94,7.56-4,15.27-7.74,1.33,21.24,2.66,42.46h-9.4C147.15,253.81,147.11,253,147.06,252.16Z"/><path class="cls-8" d="M170,244.92c-.31,3.29-.63,6.52-1,9.72H159.6c1.81-20.44,3.35-42.83,4.71-67q6.57-4.16,13.28-8c4.81,23.29,9.79,48.32,14.89,74.93l-9.39,0q-1.23-5.35-2.44-10.58ZM172,198.78c-1.24.58-2.22,2.06-3,4.38a20.09,20.09,0,0,0-.82,7.51,14.13,14.13,0,0,0,1.82,6.48c1,1.64,2.17,2.3,3.43,1.93s2.26-1.67,3-4a21,21,0,0,0,.79-7.86,15.24,15.24,0,0,0-1.87-6.88C174.39,198.7,173.25,198.2,172,198.78Z"/><path class="cls-8" d="M205.62,242.09q-.36,6.25-.74,12.4l-9.39,0c1.13-27.14,2.15-55.85,3.13-86q6.9-3.32,13.9-6.3,7.89,44.06,15.83,92l-9.39.08q-1.29-6.57-2.58-13C212.79,241.58,209.21,241.83,205.62,242.09Zm1.29-57.65c-1.28.46-2.29,2.09-3,4.85a28.6,28.6,0,0,0-.72,9.26,23.12,23.12,0,0,0,2,8.45c1.08,2.2,2.28,3.19,3.56,2.89s2.31-1.79,3-4.53a29.34,29.34,0,0,0,.72-9.54,24.07,24.07,0,0,0-2-8.76C209.39,184.84,208.2,184,206.91,184.44Z"/><path class="cls-8" d="M241.49,239.74q-.37,7.26-.74,14.44l-9.39.09q1.47-48.54,3.06-100.46,7.16-2.48,14.39-4.64,7.83,51,15.4,104.73l-9.38.12q-1.28-7.49-2.54-14.89Zm1.43-66.32c-1.32.34-2.36,2.06-3.11,5.12a35,35,0,0,0-.76,10.58,31.24,31.24,0,0,0,2,10c1.1,2.66,2.31,3.9,3.62,3.68s2.35-1.84,3.1-4.9a36.16,36.16,0,0,0,.78-10.76,32,32,0,0,0-2-10.2C245.45,174.23,244.24,173.08,242.92,173.42Z"/><path class="cls-8" d="M296,138.65l4.08,114.76-7,.11q-1-24.36-1.91-48.72-1.44,24.55-2.78,48.78l-4.69.07q-3.4-24-6.9-47.5,1.11,23.78,2.2,47.56l-11.73.16L261.6,145.63q7.29-1.87,14.65-3.43,3.72,27.36,7.32,55.21,1.2-28.35,2.52-57.13C289.38,139.69,292.67,139.14,296,138.65Z"/><path class="cls-8" d="M326.51,135.4q.25,12.6.5,25.2c-4.92.26-9.85.6-14.76,1,.08,2.77.15,5.54.23,8.32q3.67-.3,7.35-.53.29,12.54.59,25.1c-2.42.12-4.83.25-7.25.4.08,2.78.15,5.55.23,8.33q7.22-.41,14.45-.66.5,25.18,1,50.38l-25.79.4q-2-57.6-3.92-115.19Q312.78,136.26,326.51,135.4Z"/><path class="cls-8" d="M360.17,252.48c-4.53.07-8.41-5.62-11.76-17.09s-5.14-25.34-5.33-41.63,1.32-30.23,4.61-41.77,7.4-17.24,12.24-17.08,9,6.12,12.31,17.71S377.13,178,377,194.06s-1.87,29.72-5.16,41.14S364.7,252.41,360.17,252.48ZM360,160.1c-1.37,0-2.52,1.59-3.47,4.86a42.34,42.34,0,0,0-1.39,11.88,43.47,43.47,0,0,0,1.48,11.91c1,3.29,2.1,4.93,3.45,4.94s2.48-1.61,3.43-4.86a49.94,49.94,0,0,0,0-23.73Q362,160.15,360,160.1Z"/><path class="cls-8" d="M385.66,252.08q-3.95-57.56-8.52-116.2,6.25.5,12.49,1.22,2.08,29,4,57.74,2.89-28.43,5.94-56.45,5,.72,9.94,1.58-6.36,55-12.16,111.93Z"/><path class="cls-8" d="M439.79,146.52q-.46,11.23-.92,22.47-7.28-1.5-14.59-2.74c-.08,2.59-.17,5.17-.25,7.76,2.43.37,4.85.76,7.28,1.18q-.44,11.43-.85,22.87c-2.4-.27-4.8-.54-7.21-.79-.08,2.58-.17,5.17-.25,7.75,4.78.42,9.57.89,14.34,1.41q-.91,22.45-1.84,44.92l-25.76.36q1.49-55.59,3-111.18Q426.32,143,439.79,146.52Z"/><path class="cls-8" d="M469.54,155.68q-.56,10.22-1.13,20.42-7.16-2-14.37-3.73-.18,3.58-.35,7.16c2.4.53,4.79,1.07,7.18,1.64q-.54,10.49-1.09,21c-2.38-.38-4.75-.76-7.14-1.12q-.17,3.58-.35,7.17,7.14.92,14.23,2-1.14,20.43-2.27,40.85l-25.75.31q2.21-52,4.42-103.95Q456.35,151,469.54,155.68Z"/><path class="cls-8" d="M498.61,167.41q-.6,8.93-1.21,17.85-7-2.49-14.09-4.73l-.39,6.4c2.36.67,4.71,1.37,7.06,2.08l-1.2,18.54q-3.52-.75-7-1.45-.21,3.21-.4,6.4,7.05,1.19,14.07,2.52-1.22,17.85-2.41,35.71l-25.74.24q2.69-47.1,5.36-94.19Q485.77,161.58,498.61,167.41Z"/><path class="cls-8" d="M526.8,181.69q-.56,7.38-1.09,14.76-6.83-3-13.74-5.72l-.39,5.45q3.46,1.23,6.91,2.54l-1.14,15.56q-3.47-.9-6.94-1.77L510,218q7,1.47,13.88,3.08-1.1,14.76-2.18,29.52-12.87,0-25.74.15l5.61-81.93Q514.39,174.72,526.8,181.69Z"/><path class="cls-8" d="M538,228.89q-.78,10.81-1.57,21.62l-11.7,0q2.49-33.6,5-67.21,9,5.16,17.73,10.84c7.26,4.94,10.46,12.82,9.81,23.22s-4,14.73-10.09,13.5q3.89,10.83,8,19.61h-9.36Q541.77,240.69,538,228.89ZM544.63,201a2.4,2.4,0,0,0-3.32.8,9.76,9.76,0,0,0-1.75,5.47,15.25,15.25,0,0,0,.87,6.61c.76,2,1.77,3.17,3,3.62a2.87,2.87,0,0,0,3.35-1.19,8.8,8.8,0,0,0,1.7-5,14.63,14.63,0,0,0-.91-6.23A7.24,7.24,0,0,0,544.63,201Z"/><path class="cls-8" d="M561.59,231q-.37-13.34-.62-27.55,5.34,3.81,10.57,7.84Q570,221.69,568.31,233C566.07,232.33,563.83,231.66,561.59,231Zm7.09,7.21a9,9,0,0,1,1.43,5.32,7.65,7.65,0,0,1-1.92,4.9,5.49,5.49,0,0,1-4.24,2.09,4.54,4.54,0,0,1-4-2.4,9.93,9.93,0,0,1-1.34-6,9.23,9.23,0,0,1,2-5.61,3.92,3.92,0,0,1,4.15-1.41A6.64,6.64,0,0,1,568.68,238.2Z"/><path class="cls-8" d="M575.62,235.32q-.78-10.51-1.42-22,5.2,4.08,10.28,8.37-1,7.38-2.21,15.76Q579,236.38,575.62,235.32Zm7.22,6.09a6.22,6.22,0,0,1,1.64,4,4.53,4.53,0,0,1-1.7,3.57,6,6,0,0,1-4.15,1.55,5.09,5.09,0,0,1-4.07-1.9A6.79,6.79,0,0,1,573,243.9a5.84,5.84,0,0,1,1.83-4.33,4.05,4.05,0,0,1,4-.81A7.84,7.84,0,0,1,582.84,241.41Z"/><text class="cls-9" transform="translate(217.08 318.91)">Score: 5 plastics</text></g></svg>
