<svg xmlns="http://www.w3.org/2000/svg" width="65" height="57" viewBox="0 0 65 57"><defs><style>.cls-1{fill:#fff;}.cls-2{fill:#020100;}.cls-3{fill:#29abe2;}.cls-4{fill:#fcee21;}</style></defs><title>heart1</title><g id="UI-elementer"><g id="LIV"><g id="fisk"><path id="fiske_krop" class="cls-1" d="M57.91,3.73c-2.65-1-14.69-5.1-27.48.72A36.52,36.52,0,0,0,17.1,14.83a30.49,30.49,0,0,0-6.61,14.32c-.14.87-.21,1.6-.25,2.11l-.33,1L.8,33.39.93,36l9.62,2a21,21,0,0,0,5.52,7.91c5.23,4.57,13.19,6.51,16.85,6.2a5.1,5.1,0,0,1,2.54.29c1.81.76,1.85,2.27,3.46,3.39,1.44,1,3.72,1.41,5.07.58,1.83-1.11,2.43-4.74.55-8.5a9.52,9.52,0,0,0,.94-.75c3.51-3.15,2.58-6.86,4.39-8.49,3.43-3.08,14,3.77,14.7,2.53.47-.78-4-3.08-4-6.44s5-5.47,4.58-6.33c-.29-.63-3.27-.32-14.53,3.48l-.84-.1a9.4,9.4,0,0,0,.3-6.38c-1-2.94-4.18-5.25-10.45-9.76-2.43-1.75-3.53-2.42-3.84-3.86C35.12,8.49,39.44,5.54,40,5.32,48.05,2,56.24,3.14,57.91,3.73Z"/><path class="cls-2" d="M30.82,6.22a.13.13,0,0,1,.2.16A98.18,98.18,0,0,0,24.52,27c-1.31,6.41-1.84,18-2.23,23.3l-6.7-5.05c-.41-4.19.75-9.63,1.83-16.06a104.65,104.65,0,0,1,4.46-16.61Z"/><path d="M35.05,2.9c-3.64,7.41-3.91,13.6-4.37,17.69a22.68,22.68,0,0,0,.4,7.75,70.49,70.49,0,0,0,1.71,7.48c1.17,3.9,2.77,8.77.53,14.19-.22.52-.43.94-.57,1.22l-.34.53a.15.15,0,0,0,.13.24,7.74,7.74,0,0,1,3.07.41c.93.5,1.06.85,1.92,1.93,1.13,1.41,3.14,2.5,4.46,2.22.41-.09.12-1.44.19-1.69L42,52.71l-.36-4.32.72-6.34.43-3.81.11-4.69A35.18,35.18,0,0,1,41,29.27a33,33,0,0,1-1.46-13.44,11.4,11.4,0,0,1-3.65-3.63C34.55,10,37.39,6.8,39.69,5.35l-.46-3.48Z"/><g id="fiskeøje"><rect class="cls-1" x="18.57" y="30.23" width="4.25" height="4.25" rx="2.13" transform="translate(3.8 -2.14) rotate(6.51)"/><circle cx="19.85" cy="32.26" r="1.06"/><path class="cls-3" d="M18.58,32.12a2.13,2.13,0,0,1,4.23.48A2.39,2.39,0,0,0,18.58,32.12Z"/><circle class="cls-1" cx="19.95" cy="31.42" r="0.21"/></g><path class="cls-4" d="M25.44,40.21a8.66,8.66,0,0,0,7.51,5c2.17,0-5.26-8.37-4.53-8.9Z"/></g></g></g></svg>
