<svg xmlns="http://www.w3.org/2000/svg" width="725" height="697" viewBox="0 0 725 697"><defs><style>.cls-1{opacity:0.15;}.cls-2{fill:#f2f2f2;}.cls-3{fill:#e6e6e6;opacity:0.82;}.cls-4{font-size:48px;}.cls-4,.cls-7{font-family:GorgeousGirls, Gorgeous Girls;}.cls-5{letter-spacing:-0.08em;}.cls-6{stroke:#fff;stroke-miterlimit:10;stroke-width:7px;opacity:0.38;}.cls-7{font-size:33.8px;}.cls-8{fill:#67aab9;}.cls-9{font-size:36px;font-family:OpenSans, Open Sans;}</style></defs><title>levelcomplete_symbol</title><g id="Layer_1" data-name="Layer 1"><ellipse class="cls-1" cx="450.92" cy="552.8" rx="72.84" ry="12.65"/><ellipse class="cls-1" cx="278.37" cy="553.64" rx="72.84" ry="12.65"/><circle class="cls-2" cx="357" cy="345" r="315"/><path class="cls-3" d="M372,94.87c5.44,13.3-62.12,11.35-125.33,37.19s-122.08,79.49-127.52,66.2C108.28,171.66,156.06,127,225.88,98.4S361.12,68.28,372,94.87Z"/><text class="cls-4" transform="translate(219.13 390.63)">try <tspan class="cls-5" x="112.31" y="0">a</tspan><tspan x="144.12" y="0">gian?</tspan></text><circle class="cls-6" cx="450.58" cy="484.06" r="69.42"/><polygon points="456.17 456.44 420.83 449.52 440.8 474.11 456.17 456.44"/><path d="M426.59,517.69c.22-.23,3,3.42,7.65,5.95,7.66,4.18,21,5.67,28.9-1.7,8-7.51,8.68-20.38,6.8-25.5-5.95-16.15-20.4-24.65-24.65-28.9l5.95-7.65c1.24,1,3,2.43,5.1,4.25,12.83,11.28,22.74,20,24.65,32.3,1.37,8.89-1.33,20.27-9.35,27.2-7,6-15.5,6.59-18.7,6.8a28.57,28.57,0,0,1-15.3-2.55C430.32,524.27,426.31,518,426.59,517.69Z"/><circle class="cls-6" cx="278.02" cy="484.9" r="69.42"/><text class="cls-7" transform="translate(238.7 496.87)">exit</text><path class="cls-8" d="M147.47,231a5.11,5.11,0,0,0-.82-1.25,2.31,2.31,0,0,0-3.15-.33,8,8,0,0,0-2.95,3.74,11.82,11.82,0,0,0-1.09,5.3,5.93,5.93,0,0,0,1.44,4.06,2.82,2.82,0,0,0,3.2.79,5.67,5.67,0,0,0,3.05-3.28,11.41,11.41,0,0,0,.65-1.83q5.72-2.33,11.5-4.54c.19,1.35.34,2.76.43,4.23.51,8.23-.59,15.69-3.44,21.48s-6.6,8.26-11.14,8.23-8.52-2.36-11.73-6a17.52,17.52,0,0,1-4.72-12.5c0-5,1.47-10.06,4.25-16s6.08-11,10.11-14.13,7.63-3.25,10.9.49a19.29,19.29,0,0,1,3.57,6.46Q152.46,228.43,147.47,231Z"/><path class="cls-8" d="M181,267.63c-4.54,0-8.66-3.42-12.27-9.4s-5.62-12.8-6.16-21.26a63.51,63.51,0,0,1,3.08-24.22c2.58-7.93,5.94-13.66,10.21-16.25s8.22-1.16,11.87,5,5.93,15.08,6.75,26.13-.06,20.84-2.69,28.65S185.58,267.63,181,267.63Zm-4-55.89c-1.24.59-2.22,2.07-3,4.4a19.84,19.84,0,0,0-.81,7.51,14,14,0,0,0,1.81,6.48c1,1.64,2.17,2.31,3.43,1.93s2.27-1.67,3-4a20.72,20.72,0,0,0,.78-7.87,15.17,15.17,0,0,0-1.86-6.89C179.37,211.67,178.24,211.16,177,211.74Z"/><path class="cls-8" d="M209.06,223.93q1.58,21.78,3.17,43.55l-11.74.07q-3-40.74-6-81.47c3.79-2,7.6-3.87,11.43-5.7,4.13,13.06,8.31,26.89,12.5,41.4l-3.24-45.62c3.11-1.36,6.22-2.68,9.36-3.94L231,267.33l-9.39.08Q215.31,244.64,209.06,223.93Z"/><path class="cls-8" d="M250.14,193.39a27.21,27.21,0,0,0-1-3.12c-1.11-2.63-2.32-3.75-3.64-3.4s-2.35,2.08-3.1,5.14a34.7,34.7,0,0,0-.74,10.53,30.82,30.82,0,0,0,2,9.89c1.1,2.64,2.3,3.86,3.61,3.63s2.35-1.86,3.11-4.93a27.33,27.33,0,0,0,.59-3.24q6.16-1.17,12.35-2.2.38,3.72.59,7.7c.81,14.8-.12,27.64-2.75,38.13S255,267.1,250.44,267.14s-8.72-4.88-12.56-14.24-6.22-20.45-7.12-33.74-.06-25,2.54-35.63,6.2-17,10.83-18.55,8.9,2.25,12.77,11.75A83.09,83.09,0,0,1,261.14,191Q255.62,192.12,250.14,193.39Z"/><path class="cls-8" d="M279.69,227.19q1,19.78,1.91,39.57l-11.73.15L264.08,159q9.71-2.61,19.53-4.64c8.2-1.73,12.8,10,13.75,34.8.93,24.36-1.78,36.73-8.13,37.21q5.64,19.76,11.14,40.16l-9.39.13Q285.41,246.56,279.69,227.19Zm2.2-56.36q-2,.39-3.23,5.31a40.42,40.42,0,0,0-.88,11.47,37.54,37.54,0,0,0,2,11c1.09,3,2.29,4.36,3.63,4.19s2.39-1.88,3.19-5.14a41.6,41.6,0,0,0,.92-11.58,38.09,38.09,0,0,0-1.92-11.16C284.46,171.93,283.23,170.58,281.89,170.83Z"/><path class="cls-8" d="M313.87,249.66q-.57,8.34-1.12,16.66l-9.38.14Q305.9,208.91,309,150q7.45-1,14.92-1.64,6.45,58.41,12.3,117.57l-9.38.14q-1.05-8.39-2.1-16.77Zm3.28-75.43c-1.36.12-2.47,1.87-3.32,5.21a43,43,0,0,0-1.07,11.92A42,42,0,0,0,314.54,203c1,3.18,2.24,4.74,3.57,4.65s2.43-1.78,3.29-5.11a43.84,43.84,0,0,0,1.11-12,41.88,41.88,0,0,0-1.75-11.76C319.72,175.64,318.51,174.11,317.15,174.23Z"/><path class="cls-8" d="M351.76,197.9q.36,33.9.7,67.81l-11.72.19q-.57-33.87-1.15-67.72c-2.43.09-4.86.18-7.29.3l-1.06-50.65q13.72-.93,27.5-.8.17,25.41.32,50.82C356.63,197.85,354.19,197.87,351.76,197.9Z"/><path class="cls-8" d="M362.22,206.31q-.14-29.61-.28-59.24,6.27.12,12.52.45l-.09,42.09q0,25.26,4.77,25.34t5-25q.15-20.9.31-41.8,5,.41,10,.95-.37,29-.74,58Q392.9,265,378.9,265.29,362.55,265.61,362.22,206.31Z"/><path class="cls-8" d="M397.65,149.5q6.23.74,12.44,1.69l-1.38,64.95c3.2.19,6.41.4,9.61.63q-.65,24-1.28,47.94L396,265Q396.8,207.27,397.65,149.5Z"/><path class="cls-8" d="M431.58,249q-1.09,7.74-2.17,15.54l-9.37.14q6.25-55.7,13-109.21,7.38,1.62,14.73,3.54,2.71,54,5,105.22l-9.36.12q-.52-7.51-1.06-15.09Q437,249.1,431.58,249Zm8-68.85c-1.34-.25-2.54,1-3.6,3.89a35,35,0,0,0-1.8,10.72,38.57,38.57,0,0,0,1,11.14c.83,3.13,1.91,4.75,3.24,4.9s2.51-1.2,3.56-4a34.25,34.25,0,0,0,1.84-10.52,37.55,37.55,0,0,0-1-11C442,182.11,440.93,180.4,439.58,180.14Z"/><path class="cls-8" d="M472.08,208.61q-1.51,27.72-3,55.42l-11.71.14q1.41-28.88,2.8-57.74c-2.39-.42-4.78-.81-7.17-1.2L455,161q13.39,3.79,26.55,8.64-1.17,20.22-2.33,40.44C476.82,209.55,474.45,209.08,472.08,208.61Z"/><path class="cls-8" d="M496.43,175.47l-5.64,88.34-11.7.12q2.75-46.59,5.48-93.18Q490.54,173,496.43,175.47Z"/><path class="cls-8" d="M510.16,263.66c-4.52,0-8.11-3.86-10.75-12.35s-3.58-19-2.8-31.05,3.06-21.91,6.81-29,7.87-9.25,12.34-7.07,8,8,10.57,16.56A73.73,73.73,0,0,1,529.16,228c-.72,9.8-2.92,17.81-6.63,24.78S514.69,263.62,510.16,263.66Zm4.4-62.43c-1.28-.49-2.46.21-3.52,2.16a19.17,19.17,0,0,0-1.93,7.78,24.17,24.17,0,0,0,.79,8.6c.76,2.49,1.78,3.86,3.06,4.16s2.46-.53,3.52-2.46A18,18,0,0,0,518.4,214a22.91,22.91,0,0,0-.8-8.3C516.85,203.24,515.84,201.72,514.56,201.23Z"/><path class="cls-8" d="M543.55,232.06q-1.17,15.74-2.32,31.45l-11.7,0q2.58-34.73,5.14-69.46,5.64,3.16,11.2,6.53c2.18,12.27,4.43,23.7,6.77,34.2q1-14.34,2.05-28.69,4.38,2.84,8.7,5.79l-3.45,51.57h-9.36Q546.93,249.16,543.55,232.06Z"/><path class="cls-8" d="M575.7,242.53c-7.43-2.5-10.92-7.9-10.35-16.43.54-8.31,4.42-10,11.42-4.56q6.32,4.74,12.47,9.79c0,2.3-.08,4.61-.13,6.91q-6.33-4-12.8-7.71c-1.44-.83-2.18-.76-2.23.19-.07,1.13.63,2.06,2.08,2.81q3.26,1.69,6.48,3.45c7.13,4.14,10.63,9.68,10.68,16.31s-3.85,10.06-11.69,10.25l-18.7-.05,1.38-21.28q9,2.58,17.93,5.4c1.48.46,2.24.24,2.27-.67s-.7-1.44-2.17-2Q579,243.72,575.7,242.53Z"/><text class="cls-9" transform="translate(222.08 331.91)">Score: 23 plastics</text></g></svg>
