<svg xmlns="http://www.w3.org/2000/svg" width="274" height="57" viewBox="0 0 274 57"><defs><style>.cls-1{fill:#666;stroke:#fff;stroke-miterlimit:10;stroke-width:3px;}.cls-2{fill:#fff;}.cls-3{fill:#020100;}.cls-4{fill:#29abe2;}.cls-5{fill:#fcee21;}.cls-6{font-size:36px;font-family:GorgeousGirls, Gorgeous Girls;}</style></defs><title>liv_knap</title><g id="UI-elementer"><rect class="cls-1" x="4.4" width="188.87" height="57" rx="12"/><g id="LIV"><g id="fisk"><path id="fiske_krop" class="cls-2" d="M61.43,2.51c-2.65-1-14.69-5.1-27.48.72A36.71,36.71,0,0,0,20.62,13.61,30.49,30.49,0,0,0,14,27.93c-.13.87-.2,1.6-.24,2.11l-.33,1-9.12,1.1.13,2.59,9.63,2a20.73,20.73,0,0,0,5.52,7.91c5.22,4.57,13.18,6.51,16.85,6.2a5,5,0,0,1,2.53.29c1.81.76,1.86,2.27,3.47,3.39,1.44,1,3.71,1.41,5.07.58,1.83-1.11,2.43-4.74.54-8.5a11.35,11.35,0,0,0,.94-.75c3.52-3.16,2.58-6.86,4.4-8.49,3.42-3.08,13.95,3.77,14.69,2.53.47-.78-4-3.08-4-6.44S69.07,28,68.69,27.1c-.28-.64-3.27-.32-14.52,3.48l-.85-.1a9.37,9.37,0,0,0,.3-6.39c-1-2.93-4.18-5.24-10.45-9.75-2.43-1.75-3.53-2.42-3.84-3.86C38.65,7.27,43,4.32,43.49,4.1,51.57.74,59.76,1.91,61.43,2.51Z"/><path class="cls-3" d="M32.27,3.63a.14.14,0,0,1,.21.16A97.48,97.48,0,0,0,26,24.43c-1.31,6.4-1.84,18-2.23,23.29l-6.7-5c-.4-4.19.76-9.63,1.83-16.06A104.88,104.88,0,0,1,23.34,10Z"/><path d="M37.78,1.58C34.14,9,33.87,15.19,33.41,19.28a22.68,22.68,0,0,0,.4,7.75,71,71,0,0,0,1.71,7.48c1.17,3.9,2.77,8.77.53,14.19-.22.52-.42.93-.57,1.21l-.34.53a.16.16,0,0,0,.13.25,7.74,7.74,0,0,1,3.07.41c.93.5,1.06.85,1.92,1.93,1.13,1.41,3.14,2.5,4.46,2.22.42-.09.12-1.44.19-1.69l-.18-2.16-.36-4.32.72-6.34.43-3.81.11-4.7A33.86,33.86,0,0,1,43.76,28,32.93,32.93,0,0,1,42.3,14.52a11.66,11.66,0,0,1-3.65-3.63C37.28,8.72,40.12,5.49,42.42,4L42,.56Z"/><g id="fiskeøje"><rect class="cls-2" x="20.02" y="27.64" width="4.25" height="4.25" rx="2.13" transform="translate(3.52 -2.32) rotate(6.51)"/><circle cx="21.31" cy="29.67" r="1.06"/><path class="cls-4" d="M20,29.53a2.12,2.12,0,1,1,4.22.48C23.75,28.88,21.78,27.37,20,29.53Z"/><circle class="cls-2" cx="21.4" cy="28.83" r="0.21"/></g><path class="cls-5" d="M26.9,37.62a8.6,8.6,0,0,0,7.51,5c2.17,0-5.27-8.36-4.54-8.9Z"/></g><g id="fisk-2" data-name="fisk"><path id="fiske_krop-2" data-name="fiske_krop" class="cls-2" d="M123.91,2.84c-2.66-1-14.7-5.09-27.49.72A36.55,36.55,0,0,0,83.1,14a30.33,30.33,0,0,0-6.62,14.31c-.13.87-.2,1.6-.24,2.11l-.33,1-9.12,1.1.14,2.58,9.62,2A20.75,20.75,0,0,0,82.07,45c5.22,4.57,13.18,6.51,16.85,6.21a5,5,0,0,1,2.53.28c1.81.76,1.86,2.27,3.47,3.4,1.44,1,3.71,1.4,5.07.57,1.83-1.11,2.43-4.73.54-8.5a10.72,10.72,0,0,0,.94-.74c3.52-3.16,2.59-6.87,4.4-8.49,3.43-3.08,13.95,3.76,14.69,2.53.47-.79-4-3.08-4-6.45s5-5.47,4.57-6.33c-.28-.63-3.26-.32-14.52,3.48l-.85-.09a9.37,9.37,0,0,0,.3-6.39c-1-2.93-4.18-5.25-10.44-9.75-2.44-1.76-3.54-2.43-3.85-3.87-.68-3.21,3.64-6.16,4.16-6.37C114.05,1.08,122.24,2.25,123.91,2.84Z"/><path class="cls-3" d="M95.59,4a.14.14,0,0,1,.21.16A97.48,97.48,0,0,0,89.29,24.8c-1.31,6.4-1.83,18-2.23,23.29l-6.7-5c-.4-4.2.76-9.64,1.83-16.06a104.73,104.73,0,0,1,4.47-16.62Z"/><path d="M101.1,2c-3.64,7.41-3.9,13.6-4.37,17.69a22.68,22.68,0,0,0,.4,7.75,71,71,0,0,0,1.72,7.48c1.17,3.9,2.76,8.77.52,14.19-.22.52-.42.94-.57,1.22l-.34.53a.15.15,0,0,0,.13.24,7.74,7.74,0,0,1,3.07.41c.93.5,1.06.85,1.92,1.93,1.13,1.41,3.14,2.5,4.46,2.22.42-.09.12-1.44.19-1.69l-.18-2.16-.36-4.32.72-6.34.43-3.81.11-4.69a33.71,33.71,0,0,1-1.86-4.28,32.84,32.84,0,0,1-1.47-13.44A11.53,11.53,0,0,1,102,11.26c-1.36-2.17,1.47-5.4,3.78-6.85L105.29.93Z"/><g id="fiskeøje-2" data-name="fiskeøje"><rect class="cls-2" x="83.34" y="28.02" width="4.25" height="4.25" rx="2.13" transform="translate(3.97 -9.49) rotate(6.51)"/><circle cx="84.63" cy="30.05" r="1.06"/><path class="cls-4" d="M83.36,29.9a2.12,2.12,0,1,1,4.22.48A2.39,2.39,0,0,0,83.36,29.9Z"/><circle class="cls-2" cx="84.72" cy="29.2" r="0.21"/></g><path class="cls-5" d="M90.22,38a8.61,8.61,0,0,0,7.51,5c2.17,0-5.27-8.36-4.54-8.9Z"/></g><g id="fisk-3" data-name="fisk"><path id="fiske_krop-3" data-name="fiske_krop" class="cls-2" d="M185.91,2.73c-2.65-1-14.69-5.1-27.48.72A36.52,36.52,0,0,0,145.1,13.83a30.49,30.49,0,0,0-6.61,14.32c-.14.87-.21,1.6-.25,2.11l-.33,1-9.11,1.1.13,2.59,9.62,2a21,21,0,0,0,5.52,7.91c5.23,4.57,13.19,6.51,16.85,6.2a5.1,5.1,0,0,1,2.54.29c1.81.76,1.85,2.27,3.46,3.39,1.44,1,3.72,1.41,5.07.58,1.83-1.11,2.43-4.74.55-8.5a9.52,9.52,0,0,0,.94-.75c3.51-3.15,2.58-6.86,4.39-8.49,3.43-3.08,13.95,3.77,14.7,2.53.47-.78-4-3.08-4-6.44s5-5.47,4.58-6.33c-.29-.63-3.27-.32-14.53,3.48l-.84-.1a9.4,9.4,0,0,0,.3-6.38c-1-2.94-4.18-5.25-10.45-9.76-2.43-1.75-3.53-2.42-3.84-3.86-.69-3.21,3.63-6.16,4.15-6.38C176.05,1,184.24,2.14,185.91,2.73Z"/><path class="cls-3" d="M158.82,5.22a.13.13,0,0,1,.2.16A98.18,98.18,0,0,0,152.52,26c-1.31,6.41-1.84,18-2.23,23.3l-6.7-5.05c-.41-4.19.75-9.63,1.83-16.06a104.65,104.65,0,0,1,4.46-16.61Z"/><path d="M163.05,1.9c-3.64,7.41-3.91,13.6-4.37,17.69a22.68,22.68,0,0,0,.4,7.75,70.49,70.49,0,0,0,1.71,7.48c1.17,3.9,2.77,8.77.53,14.19-.22.52-.43.94-.57,1.22l-.34.53a.15.15,0,0,0,.13.24,7.74,7.74,0,0,1,3.07.41c.93.5,1.06.85,1.92,1.93,1.13,1.41,3.14,2.5,4.46,2.22.41-.09.12-1.44.19-1.69L170,51.71l-.36-4.32.72-6.34.43-3.81.11-4.69A35.18,35.18,0,0,1,169,28.27a33,33,0,0,1-1.46-13.44,11.4,11.4,0,0,1-3.65-3.63c-1.37-2.17,1.47-5.4,3.77-6.85L167.23.87Z"/><g id="fiskeøje-3" data-name="fiskeøje"><rect class="cls-2" x="146.57" y="29.23" width="4.25" height="4.25" rx="2.13" transform="translate(4.51 -16.65) rotate(6.51)"/><circle cx="147.85" cy="31.26" r="1.06"/><path class="cls-4" d="M146.58,31.12a2.13,2.13,0,0,1,4.23.48A2.39,2.39,0,0,0,146.58,31.12Z"/><circle class="cls-2" cx="147.95" cy="30.42" r="0.21"/></g><path class="cls-5" d="M153.44,39.21a8.66,8.66,0,0,0,7.51,5c2.17,0-5.26-8.37-4.53-8.9Z"/></g></g><text class="cls-6" transform="translate(201.36 40.23)">Life</text></g></svg>
