<svg xmlns="http://www.w3.org/2000/svg" width="427" height="144" viewBox="0 0 427 144"><defs><style>.cls-1{fill:#f2f2f2;opacity:0.5;}.cls-2,.cls-3{fill:#e6e6e6;stroke-miterlimit:10;}.cls-2{stroke:#ccc;}.cls-3{stroke:#42210b;stroke-width:5px;}</style></defs><title>point_knap</title><g id="UI-elementer"><path class="cls-1" d="M427.5,0c0,79-95.59,143-213.5,143S.5,79,.5,0C87.5,0,350.5-1,427.5,0Z"/><path class="cls-2" d="M40.75,44C39,48.77,43.69,57.16,46.9,63c2.35,4.25,3.53,6.37,5.91,8.42,7,6,12.09,1.48,20.34,7.26C78.6,82.47,83.34,89.32,83.81,90c1.93,2.82,1.89,3.41,3.37,4.81,4.56,4.29,8.52,2.12,13.19,6,1.63,1.37,2.92,3.52,5.48,7.82,3,5.06,2.54,5.74,4,7,3.83,3.34,11.93,3.2,17.08-1.22a13.89,13.89,0,0,0,4.8-12.34c-.62-3.87-3.07-6.38-4.88-8.24-4.69-4.82-7.54-3.55-10.78-7.69-3.51-4.49-3.35-10-3.32-11.13.14-4.85,2.22-6,3-11.07a28,28,0,0,0-1.52-12.39C108.31,34.55,45.69,30,40.75,44Z"/><path class="cls-3" d="M114.67,44.46C114,57,96.88,66.25,76.35,65.22c-14.81-.75-33.26-8.82-35.79-21a11.09,11.09,0,0,1-.26-3.47C41.39,29.07,61.75,19.1,78.63,20,99.16,21,115.3,32,114.67,44.46Z"/></g></svg>
