<svg xmlns="http://www.w3.org/2000/svg" width="516" height="184" viewBox="0 0 516 184"><defs><style>.cls-1{fill:#f2f2f2;opacity:0.5;}.cls-2,.cls-3{fill:#e6e6e6;stroke-miterlimit:10;}.cls-2{stroke:#ccc;}.cls-3{stroke:#42210b;stroke-width:5px;}</style></defs><title>point_knap</title><g id="UI-elementer"><path class="cls-1" d="M476.5,0c0,79-95.59,143-213.5,143S49.5,79,49.5,0C136.5,0,399.5-1,476.5,0Z"/><path class="cls-2" d="M89.75,44C88,48.77,92.69,57.16,95.9,63c2.35,4.25,3.53,6.37,5.91,8.42,7,6,12.09,1.48,20.34,7.26,5.45,3.82,10.19,10.67,10.66,11.36,1.93,2.82,1.89,3.41,3.37,4.81,4.56,4.29,8.52,2.12,13.19,6,1.63,1.37,2.92,3.52,5.48,7.82,3,5.06,2.54,5.74,4,7,3.83,3.34,11.93,3.2,17.08-1.22a13.89,13.89,0,0,0,4.8-12.34c-.62-3.87-3.07-6.38-4.88-8.24-4.69-4.82-7.54-3.55-10.78-7.69-3.51-4.49-3.35-10-3.32-11.13.14-4.85,2.22-6,3-11.07a28,28,0,0,0-1.52-12.39C157.31,34.55,94.69,30,89.75,44Z"/><path class="cls-3" d="M163.67,44.46C163,57,145.88,66.25,125.35,65.22c-14.81-.75-33.26-8.82-35.79-21a11.09,11.09,0,0,1-.26-3.47C90.39,29.07,110.75,19.1,127.63,20,148.16,21,164.3,32,163.67,44.46Z"/></g></svg>
