<svg xmlns="http://www.w3.org/2000/svg" xmlns:xlink="http://www.w3.org/1999/xlink" width="1798" height="1003" viewBox="0 0 1798 1003"><defs><style>.cls-1,.cls-7{fill:#fff;}.cls-1{opacity:0.76;}.cls-2{fill:none;stroke:#000;stroke-miterlimit:10;}.cls-3{font-size:16.53px;}.cls-3,.cls-4{font-family:GorgeousGirls, Gorgeous Girls;}.cls-4{font-size:22.03px;}.cls-5{letter-spacing:-0.08em;}.cls-6{fill:url(#linear-gradient);}.cls-8{fill:url(#linear-gradient-2);}.cls-9{fill:url(#linear-gradient-3);}.cls-10{fill:#b3b3b3;}.cls-11{fill:url(#linear-gradient-4);}.cls-12{fill:url(#linear-gradient-5);}.cls-13{fill:url(#linear-gradient-6);}.cls-14{fill:url(#linear-gradient-7);}.cls-15{fill:url(#linear-gradient-8);}.cls-16{fill:url(#linear-gradient-9);}.cls-17{fill:url(#linear-gradient-10);}.cls-18{fill:url(#linear-gradient-11);}.cls-19{fill:#999;}.cls-20{fill:url(#linear-gradient-12);}.cls-21{fill:url(#linear-gradient-13);}.cls-22{fill:url(#linear-gradient-14);}.cls-23{fill:url(#linear-gradient-15);}.cls-24{fill:url(#linear-gradient-16);}.cls-25{fill:url(#linear-gradient-17);}.cls-26{fill:url(#linear-gradient-18);}.cls-27{fill:url(#linear-gradient-19);}.cls-28{fill:url(#linear-gradient-20);}.cls-29{fill:url(#linear-gradient-21);}.cls-30{fill:url(#linear-gradient-22);}.cls-31{fill:url(#linear-gradient-23);}.cls-32{fill:url(#linear-gradient-24);}.cls-33{fill:url(#linear-gradient-25);}</style><linearGradient id="linear-gradient" x1="110.85" y1="135.68" x2="110.86" y2="156.82" gradientUnits="userSpaceOnUse"><stop offset="0.4" stop-color="#69b3c4"/><stop offset="0.77" stop-color="#313131"/></linearGradient><linearGradient id="linear-gradient-2" x1="91.11" y1="201.8" x2="91.12" y2="221.54" xlink:href="#linear-gradient"/><linearGradient id="linear-gradient-3" x1="184.07" y1="280.26" x2="184.08" y2="283.54" xlink:href="#linear-gradient"/><linearGradient id="linear-gradient-4" x1="378.85" y1="131.68" x2="378.86" y2="152.82" xlink:href="#linear-gradient"/><linearGradient id="linear-gradient-5" x1="359.11" y1="197.8" x2="359.12" y2="217.54" xlink:href="#linear-gradient"/><linearGradient id="linear-gradient-6" x1="474.51" y1="276.28" x2="474.52" y2="280.02" xlink:href="#linear-gradient"/><linearGradient id="linear-gradient-7" x1="664.85" y1="129.68" x2="664.86" y2="150.82" xlink:href="#linear-gradient"/><linearGradient id="linear-gradient-8" x1="645.11" y1="195.8" x2="645.12" y2="215.54" xlink:href="#linear-gradient"/><linearGradient id="linear-gradient-9" x1="953.85" y1="127.68" x2="953.86" y2="148.82" xlink:href="#linear-gradient"/><linearGradient id="linear-gradient-10" x1="934.11" y1="193.8" x2="934.12" y2="213.54" xlink:href="#linear-gradient"/><linearGradient id="linear-gradient-11" x1="1006.01" y1="271.95" x2="1006.02" y2="276.05" xlink:href="#linear-gradient"/><linearGradient id="linear-gradient-12" x1="96.11" y1="508.8" x2="96.12" y2="528.54" xlink:href="#linear-gradient"/><linearGradient id="linear-gradient-13" x1="189.07" y1="587.26" x2="189.08" y2="590.54" xlink:href="#linear-gradient"/><linearGradient id="linear-gradient-14" x1="374.11" y1="508.8" x2="374.12" y2="528.54" xlink:href="#linear-gradient"/><linearGradient id="linear-gradient-15" x1="489.51" y1="587.28" x2="489.52" y2="591.02" xlink:href="#linear-gradient"/><linearGradient id="linear-gradient-16" x1="663.1" y1="511.84" x2="663.12" y2="531.58" gradientTransform="translate(0.16 -0.21) rotate(0.01)" xlink:href="#linear-gradient"/><linearGradient id="linear-gradient-17" x1="926.11" y1="505.8" x2="926.12" y2="525.54" xlink:href="#linear-gradient"/><linearGradient id="linear-gradient-18" x1="998.01" y1="583.95" x2="998.02" y2="588.05" xlink:href="#linear-gradient"/><linearGradient id="linear-gradient-19" x1="184.07" y1="882.26" x2="184.08" y2="885.54" xlink:href="#linear-gradient"/><linearGradient id="linear-gradient-20" x1="133.11" y1="812.8" x2="133.12" y2="832.54" xlink:href="#linear-gradient"/><linearGradient id="linear-gradient-21" x1="487.51" y1="891.28" x2="487.52" y2="895.02" xlink:href="#linear-gradient"/><linearGradient id="linear-gradient-22" x1="1004.01" y1="887.95" x2="1004.02" y2="892.05" xlink:href="#linear-gradient"/><linearGradient id="linear-gradient-23" x1="410.11" y1="812.8" x2="410.12" y2="832.54" xlink:href="#linear-gradient"/><linearGradient id="linear-gradient-24" x1="698.1" y1="815.83" x2="698.12" y2="835.57" gradientTransform="translate(0.16 -0.21) rotate(0.01)" xlink:href="#linear-gradient"/><linearGradient id="linear-gradient-25" x1="970.11" y1="809.8" x2="970.12" y2="829.54" xlink:href="#linear-gradient"/></defs><title>settings</title><g id="Layer_1" data-name="Layer 1"><rect class="cls-1" x="28" y="37" width="269" height="291.03" rx="72.09"/><rect class="cls-2" x="57.38" y="62.71" width="210.24" height="242.38" rx="39.99"/><text class="cls-3" transform="translate(122.43 77.68)">settings</text><text class="cls-4" transform="translate(77.36 122.92)">music</text><text class="cls-4" transform="translate(77.33 186.96)">sound effects</text><text class="cls-4" transform="translate(77.54 249.94)"><tspan class="cls-5">v</tspan><tspan x="13.58" y="0">olume</tspan></text><rect class="cls-6" x="80.33" y="135.69" width="61.05" height="21.12" rx="10.56"/><rect class="cls-7" x="80.33" y="201.34" width="61.05" height="21.12" rx="10.56"/><circle class="cls-8" cx="91.12" cy="211.67" r="9.87"/><rect class="cls-9" x="133.12" y="280.29" width="101.91" height="3.21" rx="1.61"/><rect class="cls-10" x="89.05" y="280.29" width="38.56" height="3.21" rx="1.61"/><circle class="cls-7" cx="130.6" cy="281.44" r="4.82"/><circle class="cls-7" cx="130.6" cy="146.02" r="9.87"/><rect class="cls-1" x="296" y="33" width="269" height="291.03" rx="72.09"/><rect class="cls-2" x="325.38" y="58.71" width="210.24" height="242.38" rx="39.99"/><text class="cls-3" transform="translate(390.43 73.68)">settings</text><text class="cls-4" transform="translate(345.36 118.92)">music</text><text class="cls-4" transform="translate(345.33 182.96)">sound effects</text><text class="cls-4" transform="translate(345.54 245.94)"><tspan class="cls-5">v</tspan><tspan x="13.58" y="0">olume</tspan></text><rect class="cls-11" x="348.33" y="131.69" width="61.05" height="21.12" rx="10.56"/><rect class="cls-7" x="348.33" y="197.34" width="61.05" height="21.12" rx="10.56"/><circle class="cls-12" cx="359.12" cy="207.67" r="9.87"/><rect class="cls-13" x="446" y="276.29" width="57.03" height="3.71" rx="1.61"/><rect class="cls-10" x="357.05" y="276" width="87.95" height="3.51" rx="1.61"/><circle class="cls-7" cx="444.6" cy="277.44" r="4.82"/><circle class="cls-7" cx="398.6" cy="142.02" r="9.87"/><rect class="cls-1" x="582" y="31" width="269" height="291.03" rx="72.09"/><rect class="cls-2" x="611.38" y="56.71" width="210.24" height="242.38" rx="39.99"/><text class="cls-3" transform="translate(676.43 71.68)">settings</text><text class="cls-4" transform="translate(631.36 116.92)">music</text><text class="cls-4" transform="translate(631.33 180.96)">sound effects</text><text class="cls-4" transform="translate(631.54 243.94)"><tspan class="cls-5">v</tspan><tspan x="13.58" y="0">olume</tspan></text><rect class="cls-14" x="634.33" y="129.69" width="61.05" height="21.12" rx="10.56"/><rect class="cls-7" x="634.33" y="195.34" width="61.05" height="21.12" rx="10.56"/><circle class="cls-15" cx="645.12" cy="205.67" r="9.87"/><rect class="cls-10" x="643.05" y="274" width="142.95" height="3.51" rx="1.61"/><circle class="cls-7" cx="784.6" cy="275.44" r="4.82"/><circle class="cls-7" cx="684.6" cy="140.02" r="9.87"/><rect class="cls-1" x="871" y="29" width="269" height="291.03" rx="72.09"/><rect class="cls-2" x="900.38" y="54.71" width="210.24" height="242.38" rx="39.99"/><text class="cls-3" transform="translate(965.43 69.68)">settings</text><text class="cls-4" transform="translate(920.36 114.92)">music</text><text class="cls-4" transform="translate(920.33 178.96)">sound effects</text><text class="cls-4" transform="translate(920.54 241.94)"><tspan class="cls-5">v</tspan><tspan x="13.58" y="0">olume</tspan></text><rect class="cls-16" x="923.33" y="127.69" width="61.05" height="21.12" rx="10.56"/><rect class="cls-7" x="923.33" y="193.34" width="61.05" height="21.12" rx="10.56"/><circle class="cls-17" cx="934.12" cy="203.67" r="9.87"/><rect class="cls-18" x="934" y="272" width="144.03" height="4" rx="1.61"/><circle class="cls-7" cx="936.6" cy="273.44" r="4.82"/><circle class="cls-7" cx="973.6" cy="138.02" r="9.87"/><rect class="cls-1" x="33" y="344" width="269" height="291.03" rx="72.09"/><rect class="cls-2" x="62.38" y="369.71" width="210.24" height="242.38" rx="39.99"/><text class="cls-3" transform="translate(127.43 384.68)">settings</text><text class="cls-4" transform="translate(82.36 429.92)">music</text><text class="cls-4" transform="translate(82.33 493.96)">sound effects</text><text class="cls-4" transform="translate(82.54 556.94)"><tspan class="cls-5">v</tspan><tspan x="13.58" y="0">olume</tspan></text><rect class="cls-19" x="85.33" y="442.69" width="61.05" height="21.12" rx="10.56"/><rect class="cls-7" x="85.33" y="508.34" width="61.05" height="21.12" rx="10.56"/><circle class="cls-20" cx="96.12" cy="518.67" r="9.87"/><rect class="cls-21" x="138.12" y="587.29" width="101.91" height="3.21" rx="1.61"/><rect class="cls-10" x="94.05" y="587.29" width="38.56" height="3.21" rx="1.61"/><circle class="cls-7" cx="135.6" cy="588.44" r="4.82"/><circle class="cls-7" cx="96.6" cy="453.02" r="9.87"/><rect class="cls-1" x="311" y="344" width="269" height="291.03" rx="72.09"/><rect class="cls-2" x="340.38" y="369.71" width="210.24" height="242.38" rx="39.99"/><text class="cls-3" transform="translate(405.43 384.68)">settings</text><text class="cls-4" transform="translate(360.36 429.92)">music</text><text class="cls-4" transform="translate(360.33 493.96)">sound effects</text><text class="cls-4" transform="translate(360.54 556.94)"><tspan class="cls-5">v</tspan><tspan x="13.58" y="0">olume</tspan></text><rect class="cls-7" x="363.33" y="508.34" width="61.05" height="21.12" rx="10.56"/><circle class="cls-22" cx="374.12" cy="518.67" r="9.87"/><rect class="cls-23" x="461" y="587.29" width="57.03" height="3.71" rx="1.61"/><rect class="cls-10" x="372.05" y="587" width="87.95" height="3.51" rx="1.61"/><circle class="cls-7" cx="459.6" cy="588.44" r="4.82"/><rect class="cls-19" x="363.33" y="441.69" width="61.05" height="21.12" rx="10.56"/><circle class="cls-7" cx="374.6" cy="452.02" r="9.87"/><rect class="cls-1" x="600.03" y="347" width="269" height="291.03" rx="72.09"/><rect class="cls-2" x="629.41" y="372.71" width="210.24" height="242.38" rx="39.99"/><text class="cls-3" transform="translate(694.49 387.67) rotate(0.01)">settings</text><text class="cls-4" transform="translate(649.41 432.9) rotate(0.01)">music</text><text class="cls-4" transform="translate(649.36 496.94) rotate(0.01)">sound effects</text><text class="cls-4" transform="translate(649.55 559.92) rotate(0.01)"><tspan class="cls-5">v</tspan><tspan x="13.58" y="0">olume</tspan></text><rect class="cls-7" x="652.36" y="511.33" width="61.05" height="21.12" rx="10.56"/><circle class="cls-24" cx="663.15" cy="521.65" r="9.87"/><rect class="cls-10" x="661.06" y="590" width="142.95" height="3.51" rx="1.61"/><circle class="cls-7" cx="800.6" cy="591.44" r="4.82"/><rect class="cls-19" x="654.37" y="442.68" width="61.05" height="21.12" rx="10.56"/><circle class="cls-7" cx="665.64" cy="453.01" r="9.87"/><rect class="cls-1" x="863" y="341" width="269" height="291.03" rx="72.09"/><rect class="cls-2" x="892.38" y="366.71" width="210.24" height="242.38" rx="39.99"/><text class="cls-3" transform="translate(957.43 381.68)">settings</text><text class="cls-4" transform="translate(912.36 426.92)">music</text><text class="cls-4" transform="translate(912.33 490.96)">sound effects</text><text class="cls-4" transform="translate(912.54 553.94)"><tspan class="cls-5">v</tspan><tspan x="13.58" y="0">olume</tspan></text><rect class="cls-7" x="915.33" y="505.34" width="61.05" height="21.12" rx="10.56"/><circle class="cls-25" cx="926.12" cy="515.67" r="9.87"/><rect class="cls-26" x="926" y="584" width="144.03" height="4" rx="1.61"/><circle class="cls-7" cx="928.6" cy="585.44" r="4.82"/><rect class="cls-19" x="915.33" y="436.69" width="61.05" height="21.12" rx="10.56"/><circle class="cls-7" cx="926.6" cy="447.02" r="9.87"/><rect class="cls-1" x="33" y="647" width="269" height="291.03" rx="72.09"/><rect class="cls-2" x="62.38" y="672.71" width="210.24" height="242.38" rx="39.99"/><text class="cls-3" transform="translate(127.43 687.68)">settings</text><text class="cls-4" transform="translate(82.36 732.92)">music</text><text class="cls-4" transform="translate(82.33 796.96)">sound effects</text><text class="cls-4" transform="translate(82.54 859.94)"><tspan class="cls-5">v</tspan><tspan x="13.58" y="0">olume</tspan></text><rect class="cls-27" x="133.12" y="882.29" width="101.91" height="3.21" rx="1.61"/><rect class="cls-10" x="89.05" y="882.29" width="38.56" height="3.21" rx="1.61"/><circle class="cls-7" cx="130.6" cy="883.44" r="4.82"/><rect class="cls-19" x="84.33" y="811.69" width="61.05" height="21.12" rx="10.56"/><circle class="cls-28" cx="133.12" cy="822.67" r="9.87"/><rect class="cls-1" x="309" y="648" width="269" height="291.03" rx="72.09"/><rect class="cls-2" x="338.38" y="673.71" width="210.24" height="242.38" rx="39.99"/><text class="cls-3" transform="translate(403.43 688.68)">settings</text><text class="cls-4" transform="translate(358.36 733.92)">music</text><text class="cls-4" transform="translate(358.33 797.96)">sound effects</text><text class="cls-4" transform="translate(358.54 860.94)"><tspan class="cls-5">v</tspan><tspan x="13.58" y="0">olume</tspan></text><rect class="cls-29" x="459" y="891.29" width="57.03" height="3.71" rx="1.61"/><rect class="cls-10" x="370.05" y="891" width="87.95" height="3.51" rx="1.61"/><circle class="cls-7" cx="457.6" cy="892.44" r="4.82"/><rect class="cls-19" x="361.33" y="745.69" width="61.05" height="21.12" rx="10.56"/><circle class="cls-7" cx="372.6" cy="756.02" r="9.87"/><rect class="cls-1" x="597.97" y="651" width="269" height="291.03" rx="72.09"/><rect class="cls-2" x="627.34" y="676.71" width="210.24" height="242.38" rx="39.99"/><text class="cls-3" transform="translate(692.42 691.67) rotate(0.01)">settings</text><text class="cls-4" transform="translate(647.34 736.9) rotate(0.01)">music</text><text class="cls-4" transform="translate(647.29 800.94) rotate(0.01)">sound effects</text><text class="cls-4" transform="translate(647.49 863.92) rotate(0.01)"><tspan class="cls-5">v</tspan><tspan x="13.58" y="0">olume</tspan></text><rect class="cls-10" x="659.05" y="894" width="142.95" height="3.51" rx="1.61"/><circle class="cls-7" cx="799.6" cy="895.44" r="4.82"/><rect class="cls-19" x="652.31" y="746.68" width="61.05" height="21.12" rx="10.56"/><circle class="cls-7" cx="663.57" cy="757.01" r="9.87"/><rect class="cls-1" x="869" y="645" width="269" height="291.03" rx="72.09"/><rect class="cls-2" x="898.38" y="670.71" width="210.24" height="242.38" rx="39.99"/><text class="cls-3" transform="translate(963.43 685.68)">settings</text><text class="cls-4" transform="translate(918.36 730.92)">music</text><text class="cls-4" transform="translate(918.33 794.96)">sound effects</text><text class="cls-4" transform="translate(918.54 857.94)"><tspan class="cls-5">v</tspan><tspan x="13.58" y="0">olume</tspan></text><rect class="cls-30" x="932" y="888" width="144.03" height="4" rx="1.61"/><circle class="cls-7" cx="934.6" cy="889.44" r="4.82"/><rect class="cls-19" x="921.33" y="740.69" width="61.05" height="21.12" rx="10.56"/><circle class="cls-7" cx="932.6" cy="751.02" r="9.87"/><rect class="cls-19" x="361.33" y="811.69" width="61.05" height="21.12" rx="10.56"/><circle class="cls-31" cx="410.12" cy="822.67" r="9.87"/><rect class="cls-19" x="649.29" y="814.68" width="61.05" height="21.12" rx="10.56"/><circle class="cls-32" cx="698.08" cy="825.65" r="9.87"/><rect class="cls-19" x="920.33" y="808.69" width="61.05" height="21.12" rx="10.56"/><circle class="cls-33" cx="970.12" cy="819.67" r="9.87"/><rect class="cls-19" x="82.33" y="744.69" width="61.05" height="21.12" rx="10.56"/><circle class="cls-7" cx="93.6" cy="755.02" r="9.87"/></g></svg>
