<svg xmlns="http://www.w3.org/2000/svg" width="152" height="178" viewBox="0 0 152 178"><defs><style>.cls-1{fill:blue;}.cls-2{fill:#fff;}.cls-3,.cls-4,.cls-5{fill:none;stroke-miterlimit:10;}.cls-3{stroke:#000;}.cls-4{stroke:#333;}.cls-5{stroke:#4d4d4d;}</style></defs><title>tandbørste</title><g id="Layer_1" data-name="Layer 1"><g id="tandbørste"><path class="cls-1" d="M43,33a5.87,5.87,0,0,0-4-2c-2.64,0-5.14,2.79-6,5-2.54,6.53,8.11,13.08,20,32,1.55,2.47.46.9,7.5,13.5C68,94.83,72.9,103.69,78,112c9.19,15,22.83,37.26,29,35,2.15-.79,2.86-4.33,3-5,1.12-5.54-3.19-10.65-5-13-7-9.17-10.47-11.66-17-27-8.19-19.26-6-29-14-33-2.85-1.42-7.11-.66-11-4-2.21-1.9-3-3.78-5-8C55.74,52.12,49.92,39.71,43,33Z"/><path class="cls-2" d="M54.5,43.62a5,5,0,0,1-7-1.2l-8-11.29a5,5,0,0,1-.83-3.73,5.23,5.23,0,0,1,.58-1.63,5.46,5.46,0,0,1,1.46-1.6c1.36-1,4.27-.71,7,1.2l8,11.28A5,5,0,0,1,54.5,43.62Z"/><line class="cls-3" x1="36" y1="35" x2="39.5" y2="26.5"/><line class="cls-3" x1="36" y1="37" x2="39.5" y2="28.5"/><line class="cls-3" x1="37" y1="39" x2="40.5" y2="30.5"/><line class="cls-3" x1="38" y1="41" x2="41.5" y2="32.5"/><line class="cls-3" x1="39" y1="43" x2="42.5" y2="34.5"/><line class="cls-3" x1="40" y1="44" x2="43.5" y2="35.5"/><line class="cls-3" x1="47" y1="51" x2="50.5" y2="43.5"/><line class="cls-4" x1="43" y1="48" x2="46.5" y2="39.5"/><line class="cls-5" x1="41" y1="46" x2="44.5" y2="37.5"/><line class="cls-4" x1="36" y1="38" x2="39.5" y2="29.5"/><line class="cls-4" x1="37" y1="40" x2="40.5" y2="31.5"/><line class="cls-4" x1="38.5" y1="41.5" x2="42.5" y2="33.5"/><line class="cls-3" x1="48.5" y1="51.5" x2="51.5" y2="44.5"/><line class="cls-3" x1="50.5" y1="51.5" x2="53.5" y2="44.5"/><line class="cls-3" x1="52.5" y1="50.5" x2="54.5" y2="44.5"/><line class="cls-4" x1="49.5" y1="51.5" x2="52.5" y2="44.5"/><line class="cls-4" x1="47.5" y1="51.5" x2="50.5" y2="44.5"/><line class="cls-3" x1="42" y1="47" x2="45.5" y2="38.5"/><line class="cls-3" x1="41" y1="45" x2="44.5" y2="36.5"/><line class="cls-3" x1="44" y1="50" x2="47.5" y2="41.5"/><line class="cls-3" x1="36" y1="39" x2="39.5" y2="30.5"/><line class="cls-3" x1="38" y1="40" x2="40.5" y2="32.5"/><line class="cls-3" x1="45" y1="51" x2="48.5" y2="42.5"/><line class="cls-3" x1="42.5" y1="47.5" x2="45.5" y2="39.5"/><line class="cls-5" x1="46" y1="51" x2="49.5" y2="43.5"/><line class="cls-5" x1="43.5" y1="48.5" x2="46.5" y2="40.5"/></g></g></svg>
