<svg xmlns="http://www.w3.org/2000/svg" width="85" height="128" viewBox="0 0 85 128"><defs><style>.cls-1{fill:blue;}.cls-2{fill:#fff;}.cls-3,.cls-4,.cls-5{fill:none;stroke-miterlimit:10;}.cls-3{stroke:#000;}.cls-4{stroke:#333;}.cls-5{stroke:#4d4d4d;}</style></defs><title>tandbørste</title><g id="Layer_1" data-name="Layer 1"><g id="tandbørste"><path class="cls-1" d="M13,9A5.87,5.87,0,0,0,9,7C6.36,7,3.86,9.79,3,12,.46,18.53,11.11,25.08,23,44c1.55,2.47.46.9,7.5,13.5C38,70.83,42.9,79.69,48,88c9.19,15,22.83,37.26,29,35,2.15-.79,2.86-4.33,3-5,1.12-5.54-3.19-10.65-5-13-7-9.17-10.47-11.66-17-27-8.19-19.26-6-29-14-33-2.85-1.42-7.11-.66-11-4-2.21-1.9-3.05-3.78-5-8C25.74,28.12,19.92,15.71,13,9Z"/><path class="cls-2" d="M24.5,19.62a5,5,0,0,1-7-1.2l-8-11.29A5,5,0,0,1,8.73,3.4a5.23,5.23,0,0,1,.58-1.63A5.46,5.46,0,0,1,10.77.17c1.36-1,4.27-.71,7,1.2l8,11.28A5,5,0,0,1,24.5,19.62Z"/><line class="cls-3" x1="6" y1="11" x2="9.5" y2="2.5"/><line class="cls-3" x1="6" y1="13" x2="9.5" y2="4.5"/><line class="cls-3" x1="7" y1="15" x2="10.5" y2="6.5"/><line class="cls-3" x1="8" y1="17" x2="11.5" y2="8.5"/><line class="cls-3" x1="9" y1="19" x2="12.5" y2="10.5"/><line class="cls-3" x1="10" y1="20" x2="13.5" y2="11.5"/><line class="cls-3" x1="17" y1="27" x2="20.5" y2="19.5"/><line class="cls-4" x1="13" y1="24" x2="16.5" y2="15.5"/><line class="cls-5" x1="11" y1="22" x2="14.5" y2="13.5"/><line class="cls-4" x1="6" y1="14" x2="9.5" y2="5.5"/><line class="cls-4" x1="7" y1="16" x2="10.5" y2="7.5"/><line class="cls-4" x1="8.5" y1="17.5" x2="12.5" y2="9.5"/><line class="cls-3" x1="18.5" y1="27.5" x2="21.5" y2="20.5"/><line class="cls-3" x1="20.5" y1="27.5" x2="23.5" y2="20.5"/><line class="cls-3" x1="22.5" y1="26.5" x2="24.5" y2="20.5"/><line class="cls-4" x1="19.5" y1="27.5" x2="22.5" y2="20.5"/><line class="cls-4" x1="17.5" y1="27.5" x2="20.5" y2="20.5"/><line class="cls-3" x1="12" y1="23" x2="15.5" y2="14.5"/><line class="cls-3" x1="11" y1="21" x2="14.5" y2="12.5"/><line class="cls-3" x1="14" y1="26" x2="17.5" y2="17.5"/><line class="cls-3" x1="6" y1="15" x2="9.5" y2="6.5"/><line class="cls-3" x1="8" y1="16" x2="10.5" y2="8.5"/><line class="cls-3" x1="15" y1="27" x2="18.5" y2="18.5"/><line class="cls-3" x1="12.5" y1="23.5" x2="15.5" y2="15.5"/><line class="cls-5" x1="16" y1="27" x2="19.5" y2="19.5"/><line class="cls-5" x1="13.5" y1="24.5" x2="16.5" y2="16.5"/></g></g></svg>
