<svg xmlns="http://www.w3.org/2000/svg" width="319" height="269" viewBox="0 0 319 269"><defs><style>.cls-1{stroke:#fff;stroke-miterlimit:10;stroke-width:7px;opacity:0.38;}.cls-2{opacity:0.15;}</style></defs><title>tilbage_knap</title><g id="Layer_1" data-name="Layer 1"><circle class="cls-1" cx="160" cy="124" r="101.5"/><ellipse class="cls-2" cx="160.5" cy="224.5" rx="106.5" ry="18.5"/><polygon points="168.17 83.61 116.5 73.5 145.7 109.44 168.17 83.61"/><path d="M124.93,173.17c.32-.34,4.38,5,11.18,8.7,11.21,6.1,30.72,8.28,42.25-2.49,11.76-11,12.7-29.8,9.94-37.28-8.7-23.61-29.82-36-36-42.25L161,88.66c1.81,1.43,4.42,3.55,7.46,6.22,18.76,16.49,33.25,29.22,36,47.22,2,13-1.94,29.63-13.67,39.77-10.17,8.78-22.66,9.62-27.34,9.94-4.86.32-13.23.78-22.37-3.73C130.37,182.79,124.51,173.59,124.93,173.17Z"/></g></svg>
